%TF.GenerationSoftware,KiCad,Pcbnew,9.0.6*%
%TF.CreationDate,2025-12-22T11:29:25+05:30*%
%TF.ProjectId,joystick,6a6f7973-7469-4636-9b2e-6b696361645f,rev?*%
%TF.SameCoordinates,Original*%
%TF.FileFunction,Copper,L2,Bot*%
%TF.FilePolarity,Positive*%
%FSLAX46Y46*%
G04 Gerber Fmt 4.6, Leading zero omitted, Abs format (unit mm)*
G04 Created by KiCad (PCBNEW 9.0.6) date 2025-12-22 11:29:25*
%MOMM*%
%LPD*%
G01*
G04 APERTURE LIST*
%TA.AperFunction,ComponentPad*%
%ADD10C,0.300000*%
%TD*%
%TA.AperFunction,ComponentPad*%
%ADD11C,1.778000*%
%TD*%
%TA.AperFunction,ComponentPad*%
%ADD12C,2.286000*%
%TD*%
%TA.AperFunction,ComponentPad*%
%ADD13R,1.508000X1.508000*%
%TD*%
%TA.AperFunction,ComponentPad*%
%ADD14C,1.508000*%
%TD*%
%TA.AperFunction,ComponentPad*%
%ADD15C,3.000000*%
%TD*%
%TA.AperFunction,ComponentPad*%
%ADD16R,1.600000X1.600000*%
%TD*%
%TA.AperFunction,ComponentPad*%
%ADD17C,1.600000*%
%TD*%
%TA.AperFunction,ComponentPad*%
%ADD18R,2.000000X1.905000*%
%TD*%
%TA.AperFunction,ComponentPad*%
%ADD19O,2.000000X1.905000*%
%TD*%
%TA.AperFunction,ViaPad*%
%ADD20C,0.600000*%
%TD*%
%TA.AperFunction,Conductor*%
%ADD21C,0.500000*%
%TD*%
%TA.AperFunction,Conductor*%
%ADD22C,0.300000*%
%TD*%
G04 APERTURE END LIST*
D10*
%TO.P,U3,39_10,GND*%
%TO.N,GND*%
X128740000Y-98075000D03*
%TO.P,U3,39_11,GND*%
X128740000Y-96240000D03*
%TO.P,U3,39_12,GND*%
X129657500Y-98992500D03*
%TO.P,U3,39_13,GND*%
X129657500Y-97157500D03*
%TO.P,U3,39_14,GND*%
X129657500Y-95322500D03*
%TO.P,U3,39_15,GND*%
X130575000Y-98075000D03*
%TO.P,U3,39_16,GND*%
X130575000Y-96240000D03*
%TO.P,U3,39_17,GND*%
X131492500Y-98992500D03*
%TO.P,U3,39_18,GND*%
X131492500Y-97157500D03*
%TO.P,U3,39_19,GND*%
X131492500Y-95322500D03*
%TO.P,U3,39_20,GND*%
X132410000Y-98075000D03*
%TO.P,U3,39_21,GND*%
X132410000Y-96240000D03*
%TD*%
D11*
%TO.P,U1,B1A,SEL+*%
%TO.N,/D19*%
X86945000Y-115967500D03*
%TO.P,U1,B1B*%
%TO.N,N/C*%
X93295000Y-115967500D03*
%TO.P,U1,B2A,SEL-*%
%TO.N,GND*%
X86945000Y-121047500D03*
%TO.P,U1,B2B*%
%TO.N,N/C*%
X93295000Y-121047500D03*
%TO.P,U1,H1,H+*%
%TO.N,+3.3V*%
X87580000Y-138827500D03*
%TO.P,U1,H2,H*%
%TO.N,/VP*%
X90120000Y-138827500D03*
%TO.P,U1,H3,H-*%
%TO.N,GND*%
X92660000Y-138827500D03*
D12*
%TO.P,U1,S1,SHIELD*%
%TO.N,unconnected-(U1-SHIELD-PadS1)*%
X82500000Y-122000000D03*
%TO.P,U1,S2,SHIELD*%
%TO.N,unconnected-(U1-SHIELD-PadS1)_1*%
X82500000Y-135335000D03*
%TO.P,U1,S3,SHIELD*%
%TO.N,unconnected-(U1-SHIELD-PadS1)_3*%
X97740000Y-135335000D03*
%TO.P,U1,S4,SHIELD*%
%TO.N,unconnected-(U1-SHIELD-PadS1)_2*%
X97740000Y-122000000D03*
D11*
%TO.P,U1,V1,V+*%
%TO.N,+3.3V*%
X79960000Y-126127500D03*
%TO.P,U1,V2,V*%
%TO.N,/VN*%
X79960000Y-128667500D03*
%TO.P,U1,V3,V-*%
%TO.N,GND*%
X79960000Y-131207500D03*
%TD*%
D13*
%TO.P,U5,1,GND*%
%TO.N,GND*%
X73190000Y-77000000D03*
D14*
%TO.P,U5,2,VCC*%
%TO.N,+3.3V*%
X75730000Y-77000000D03*
%TO.P,U5,3,SCL*%
%TO.N,/D22*%
X78270000Y-77000000D03*
%TO.P,U5,4,SDA*%
%TO.N,/D21*%
X80810000Y-77000000D03*
D15*
%TO.P,U5,S1*%
%TO.N,N/C*%
X66000000Y-77500000D03*
%TO.P,U5,S2*%
X88000000Y-77500000D03*
%TO.P,U5,S3*%
X88000000Y-99500000D03*
%TO.P,U5,S4*%
X66000000Y-99500000D03*
%TD*%
D16*
%TO.P,BT1,1,+*%
%TO.N,Net-(BT1-+)*%
X63000000Y-61000000D03*
D17*
%TO.P,BT1,2,-*%
%TO.N,GND*%
X59750000Y-63650000D03*
%TD*%
D18*
%TO.P,U4,1,VI*%
%TO.N,Net-(SW1A-A)*%
X134550000Y-59960000D03*
D19*
%TO.P,U4,2,GND*%
%TO.N,GND*%
X134550000Y-62500000D03*
%TO.P,U4,3,VO*%
%TO.N,Net-(U4-VO)*%
X134550000Y-65040000D03*
%TD*%
D11*
%TO.P,U2,B1A,SEL+*%
%TO.N,/D32*%
X163945000Y-115632500D03*
%TO.P,U2,B1B*%
%TO.N,N/C*%
X170295000Y-115632500D03*
%TO.P,U2,B2A,SEL-*%
%TO.N,GND*%
X163945000Y-120712500D03*
%TO.P,U2,B2B*%
%TO.N,N/C*%
X170295000Y-120712500D03*
%TO.P,U2,H1,H+*%
%TO.N,+3.3V*%
X164580000Y-138492500D03*
%TO.P,U2,H2,H*%
%TO.N,/D35*%
X167120000Y-138492500D03*
%TO.P,U2,H3,H-*%
%TO.N,GND*%
X169660000Y-138492500D03*
D12*
%TO.P,U2,S1,SHIELD*%
%TO.N,unconnected-(U2-SHIELD-PadS1)_1*%
X159500000Y-121665000D03*
%TO.P,U2,S2,SHIELD*%
%TO.N,unconnected-(U2-SHIELD-PadS1)*%
X159500000Y-135000000D03*
%TO.P,U2,S3,SHIELD*%
%TO.N,unconnected-(U2-SHIELD-PadS1)_3*%
X174740000Y-135000000D03*
%TO.P,U2,S4,SHIELD*%
%TO.N,unconnected-(U2-SHIELD-PadS1)_2*%
X174740000Y-121665000D03*
D11*
%TO.P,U2,V1,V+*%
%TO.N,+3.3V*%
X156960000Y-125792500D03*
%TO.P,U2,V2,V*%
%TO.N,/D34*%
X156960000Y-128332500D03*
%TO.P,U2,V3,V-*%
%TO.N,GND*%
X156960000Y-130872500D03*
%TD*%
D20*
%TO.N,GND*%
X123075000Y-87657500D03*
X142000000Y-77000000D03*
X167000000Y-93000000D03*
X110000000Y-84000000D03*
%TO.N,+3.3V*%
X87580000Y-129080000D03*
X124500000Y-115500000D03*
%TO.N,/D33*%
X133000000Y-101500000D03*
X95000000Y-67000000D03*
%TO.N,/D19*%
X132000000Y-74000000D03*
%TD*%
D21*
%TO.N,GND*%
X167000000Y-116500000D02*
X167000000Y-93000000D01*
X169660000Y-131660000D02*
X164000000Y-126000000D01*
X163945000Y-120712500D02*
X163945000Y-119555000D01*
X163945000Y-125945000D02*
X163945000Y-120712500D01*
X169660000Y-138492500D02*
X169660000Y-131660000D01*
X156960000Y-130872500D02*
X159127500Y-130872500D01*
X164000000Y-126000000D02*
X163945000Y-125945000D01*
X163945000Y-119555000D02*
X167000000Y-116500000D01*
X159127500Y-130872500D02*
X164000000Y-126000000D01*
%TO.N,+3.3V*%
X134792500Y-125792500D02*
X124500000Y-115500000D01*
X75730000Y-87730000D02*
X75730000Y-77000000D01*
X84372500Y-126127500D02*
X79960000Y-126127500D01*
X87580000Y-129080000D02*
X84500000Y-126000000D01*
X156960000Y-125792500D02*
X134792500Y-125792500D01*
X79960000Y-91960000D02*
X75730000Y-87730000D01*
X87580000Y-138827500D02*
X87580000Y-129080000D01*
X87580000Y-129080000D02*
X87740000Y-129240000D01*
X84500000Y-126000000D02*
X84372500Y-126127500D01*
X79960000Y-126127500D02*
X79960000Y-91960000D01*
D22*
%TO.N,/D33*%
X144000000Y-101500000D02*
X133000000Y-101500000D01*
X95000000Y-67000000D02*
X139000000Y-67000000D01*
X139000000Y-67000000D02*
X153000000Y-81000000D01*
X153000000Y-81000000D02*
X153000000Y-92500000D01*
X153000000Y-92500000D02*
X144500000Y-101000000D01*
X144500000Y-101000000D02*
X144000000Y-101500000D01*
%TO.N,/D19*%
X101000000Y-77000000D02*
X104000000Y-74000000D01*
X86945000Y-115967500D02*
X101000000Y-101912500D01*
X104000000Y-74000000D02*
X132000000Y-74000000D01*
X101000000Y-101912500D02*
X101000000Y-77000000D01*
D21*
%TO.N,GND*%
X142000000Y-77000000D02*
X135000000Y-84000000D01*
X135000000Y-84000000D02*
X110000000Y-84000000D01*
%TD*%
%TA.AperFunction,Conductor*%
%TO.N,GND*%
G36*
X199692539Y-50270185D02*
G01*
X199738294Y-50322989D01*
X199749500Y-50374500D01*
X199749500Y-149625500D01*
X199729815Y-149692539D01*
X199677011Y-149738294D01*
X199625500Y-149749500D01*
X50374500Y-149749500D01*
X50307461Y-149729815D01*
X50261706Y-149677011D01*
X50250500Y-149625500D01*
X50250500Y-135205648D01*
X80856500Y-135205648D01*
X80856500Y-135464351D01*
X80882877Y-135630887D01*
X80896968Y-135719854D01*
X80976909Y-135965885D01*
X81094353Y-136196382D01*
X81246408Y-136405668D01*
X81429332Y-136588592D01*
X81638618Y-136740647D01*
X81869115Y-136858091D01*
X82115146Y-136938032D01*
X82210961Y-136953207D01*
X82370649Y-136978500D01*
X82370654Y-136978500D01*
X82629351Y-136978500D01*
X82771294Y-136956017D01*
X82884854Y-136938032D01*
X83130885Y-136858091D01*
X83361382Y-136740647D01*
X83570668Y-136588592D01*
X83753592Y-136405668D01*
X83905647Y-136196382D01*
X84023091Y-135965885D01*
X84103032Y-135719854D01*
X84121017Y-135606294D01*
X84143500Y-135464351D01*
X84143500Y-135205648D01*
X84116521Y-135035315D01*
X84103032Y-134950146D01*
X84023091Y-134704115D01*
X83905647Y-134473618D01*
X83753592Y-134264332D01*
X83570668Y-134081408D01*
X83361382Y-133929353D01*
X83130885Y-133811909D01*
X82884854Y-133731968D01*
X82884852Y-133731967D01*
X82884850Y-133731967D01*
X82629351Y-133691500D01*
X82629346Y-133691500D01*
X82370654Y-133691500D01*
X82370649Y-133691500D01*
X82115149Y-133731967D01*
X81869112Y-133811910D01*
X81638617Y-133929353D01*
X81429329Y-134081410D01*
X81246410Y-134264329D01*
X81094353Y-134473617D01*
X80976910Y-134704112D01*
X80896967Y-134950149D01*
X80856500Y-135205648D01*
X50250500Y-135205648D01*
X50250500Y-99368872D01*
X63999500Y-99368872D01*
X63999500Y-99631127D01*
X64026123Y-99833339D01*
X64033730Y-99891116D01*
X64101602Y-100144418D01*
X64101605Y-100144428D01*
X64201953Y-100386690D01*
X64201958Y-100386700D01*
X64333075Y-100613803D01*
X64492718Y-100821851D01*
X64492726Y-100821860D01*
X64678140Y-101007274D01*
X64678148Y-101007281D01*
X64886196Y-101166924D01*
X65113299Y-101298041D01*
X65113309Y-101298046D01*
X65355571Y-101398394D01*
X65355581Y-101398398D01*
X65608884Y-101466270D01*
X65868880Y-101500500D01*
X65868887Y-101500500D01*
X66131113Y-101500500D01*
X66131120Y-101500500D01*
X66391116Y-101466270D01*
X66644419Y-101398398D01*
X66886697Y-101298043D01*
X67113803Y-101166924D01*
X67321851Y-101007282D01*
X67321855Y-101007277D01*
X67321860Y-101007274D01*
X67507274Y-100821860D01*
X67507277Y-100821855D01*
X67507282Y-100821851D01*
X67666924Y-100613803D01*
X67798043Y-100386697D01*
X67898398Y-100144419D01*
X67966270Y-99891116D01*
X68000500Y-99631120D01*
X68000500Y-99368880D01*
X67966270Y-99108884D01*
X67898398Y-98855581D01*
X67847462Y-98732610D01*
X67798046Y-98613309D01*
X67798041Y-98613299D01*
X67666924Y-98386196D01*
X67507281Y-98178148D01*
X67507274Y-98178140D01*
X67321860Y-97992726D01*
X67321851Y-97992718D01*
X67113803Y-97833075D01*
X66886700Y-97701958D01*
X66886690Y-97701953D01*
X66644428Y-97601605D01*
X66644421Y-97601603D01*
X66644419Y-97601602D01*
X66391116Y-97533730D01*
X66333339Y-97526123D01*
X66131127Y-97499500D01*
X66131120Y-97499500D01*
X65868880Y-97499500D01*
X65868872Y-97499500D01*
X65637772Y-97529926D01*
X65608884Y-97533730D01*
X65355581Y-97601602D01*
X65355571Y-97601605D01*
X65113309Y-97701953D01*
X65113299Y-97701958D01*
X64886196Y-97833075D01*
X64678148Y-97992718D01*
X64492718Y-98178148D01*
X64333075Y-98386196D01*
X64201958Y-98613299D01*
X64201953Y-98613309D01*
X64101605Y-98855571D01*
X64101602Y-98855581D01*
X64042200Y-99077276D01*
X64033730Y-99108885D01*
X63999500Y-99368872D01*
X50250500Y-99368872D01*
X50250500Y-77368872D01*
X63999500Y-77368872D01*
X63999500Y-77631127D01*
X64021977Y-77801844D01*
X64033730Y-77891116D01*
X64101602Y-78144418D01*
X64101605Y-78144428D01*
X64201953Y-78386690D01*
X64201958Y-78386700D01*
X64333075Y-78613803D01*
X64492718Y-78821851D01*
X64492726Y-78821860D01*
X64678140Y-79007274D01*
X64678148Y-79007281D01*
X64886196Y-79166924D01*
X65113299Y-79298041D01*
X65113309Y-79298046D01*
X65355571Y-79398394D01*
X65355581Y-79398398D01*
X65608884Y-79466270D01*
X65868880Y-79500500D01*
X65868887Y-79500500D01*
X66131113Y-79500500D01*
X66131120Y-79500500D01*
X66391116Y-79466270D01*
X66644419Y-79398398D01*
X66886697Y-79298043D01*
X67113803Y-79166924D01*
X67321851Y-79007282D01*
X67321855Y-79007277D01*
X67321860Y-79007274D01*
X67507274Y-78821860D01*
X67507277Y-78821855D01*
X67507282Y-78821851D01*
X67666924Y-78613803D01*
X67798043Y-78386697D01*
X67898398Y-78144419D01*
X67966270Y-77891116D01*
X68000500Y-77631120D01*
X68000500Y-77368880D01*
X67984849Y-77250000D01*
X67980218Y-77214823D01*
X67975892Y-77181973D01*
X67966270Y-77108884D01*
X67898398Y-76855581D01*
X67879624Y-76810256D01*
X67798046Y-76613309D01*
X67798041Y-76613299D01*
X67666927Y-76386201D01*
X67587122Y-76282198D01*
X67522633Y-76198155D01*
X71936000Y-76198155D01*
X71936000Y-76750000D01*
X72756988Y-76750000D01*
X72724075Y-76807007D01*
X72690000Y-76934174D01*
X72690000Y-77065826D01*
X72724075Y-77192993D01*
X72756988Y-77250000D01*
X71936000Y-77250000D01*
X71936000Y-77801844D01*
X71942401Y-77861372D01*
X71942403Y-77861379D01*
X71992645Y-77996086D01*
X71992649Y-77996093D01*
X72078809Y-78111187D01*
X72078812Y-78111190D01*
X72193906Y-78197350D01*
X72193913Y-78197354D01*
X72328620Y-78247596D01*
X72328627Y-78247598D01*
X72388155Y-78253999D01*
X72388172Y-78254000D01*
X72940000Y-78254000D01*
X72940000Y-77433012D01*
X72997007Y-77465925D01*
X73124174Y-77500000D01*
X73255826Y-77500000D01*
X73382993Y-77465925D01*
X73440000Y-77433012D01*
X73440000Y-78254000D01*
X73991828Y-78254000D01*
X73991844Y-78253999D01*
X74051372Y-78247598D01*
X74051379Y-78247596D01*
X74186086Y-78197354D01*
X74186093Y-78197350D01*
X74301187Y-78111190D01*
X74301190Y-78111187D01*
X74387350Y-77996093D01*
X74387354Y-77996086D01*
X74437596Y-77861379D01*
X74437598Y-77861372D01*
X74443999Y-77801844D01*
X74444000Y-77801827D01*
X74444000Y-77745887D01*
X74463685Y-77678848D01*
X74516489Y-77633093D01*
X74585647Y-77623149D01*
X74649203Y-77652174D01*
X74668314Y-77672997D01*
X74773121Y-77817252D01*
X74912748Y-77956879D01*
X74928382Y-77968237D01*
X74971049Y-78023564D01*
X74979500Y-78068557D01*
X74979500Y-87803918D01*
X74979500Y-87803920D01*
X74979499Y-87803920D01*
X75008340Y-87948907D01*
X75008343Y-87948917D01*
X75064914Y-88085492D01*
X75097812Y-88134727D01*
X75097813Y-88134730D01*
X75147046Y-88208414D01*
X75147052Y-88208421D01*
X79173181Y-92234548D01*
X79206666Y-92295871D01*
X79209500Y-92322229D01*
X79209500Y-124892071D01*
X79189815Y-124959110D01*
X79158385Y-124992389D01*
X79054807Y-125067642D01*
X79054802Y-125067646D01*
X78900142Y-125222306D01*
X78771595Y-125399239D01*
X78672298Y-125594116D01*
X78672297Y-125594119D01*
X78604714Y-125802123D01*
X78570500Y-126018138D01*
X78570500Y-126236861D01*
X78604714Y-126452876D01*
X78672297Y-126660880D01*
X78672298Y-126660883D01*
X78771595Y-126855760D01*
X78900142Y-127032693D01*
X79054806Y-127187357D01*
X79205969Y-127297182D01*
X79248635Y-127352511D01*
X79254614Y-127422125D01*
X79222009Y-127483920D01*
X79205969Y-127497818D01*
X79054806Y-127607642D01*
X78900142Y-127762306D01*
X78771595Y-127939239D01*
X78672298Y-128134116D01*
X78672297Y-128134119D01*
X78604714Y-128342123D01*
X78570500Y-128558138D01*
X78570500Y-128776861D01*
X78604714Y-128992876D01*
X78672297Y-129200880D01*
X78672298Y-129200883D01*
X78771595Y-129395760D01*
X78900142Y-129572693D01*
X78900148Y-129572699D01*
X79054801Y-129727352D01*
X79206395Y-129837491D01*
X79249060Y-129892819D01*
X79255039Y-129962432D01*
X79222434Y-130024228D01*
X79206394Y-130038126D01*
X79170360Y-130064305D01*
X79170360Y-130064307D01*
X79875905Y-130769852D01*
X79788429Y-130793292D01*
X79687070Y-130851811D01*
X79604311Y-130934570D01*
X79545792Y-131035929D01*
X79522352Y-131123405D01*
X78816807Y-130417860D01*
X78816806Y-130417860D01*
X78772023Y-130479501D01*
X78672762Y-130674308D01*
X78672761Y-130674311D01*
X78605202Y-130882240D01*
X78571000Y-131098183D01*
X78571000Y-131316816D01*
X78605202Y-131532759D01*
X78672761Y-131740688D01*
X78672762Y-131740691D01*
X78772020Y-131935493D01*
X78772021Y-131935495D01*
X78816806Y-131997138D01*
X78816807Y-131997138D01*
X79522352Y-131291593D01*
X79545792Y-131379071D01*
X79604311Y-131480430D01*
X79687070Y-131563189D01*
X79788429Y-131621708D01*
X79875905Y-131645147D01*
X79170360Y-132350691D01*
X79232008Y-132395480D01*
X79426808Y-132494737D01*
X79426811Y-132494738D01*
X79634740Y-132562297D01*
X79850684Y-132596500D01*
X80069316Y-132596500D01*
X80285259Y-132562297D01*
X80493188Y-132494738D01*
X80493191Y-132494737D01*
X80687995Y-132395478D01*
X80749638Y-132350691D01*
X80749639Y-132350691D01*
X80044094Y-131645147D01*
X80131571Y-131621708D01*
X80232930Y-131563189D01*
X80315689Y-131480430D01*
X80374208Y-131379071D01*
X80397647Y-131291594D01*
X81103191Y-131997139D01*
X81103191Y-131997138D01*
X81147978Y-131935495D01*
X81247237Y-131740691D01*
X81247238Y-131740688D01*
X81314797Y-131532759D01*
X81349000Y-131316816D01*
X81349000Y-131098183D01*
X81314797Y-130882240D01*
X81247238Y-130674311D01*
X81247237Y-130674308D01*
X81147980Y-130479508D01*
X81103191Y-130417860D01*
X80397647Y-131123404D01*
X80374208Y-131035929D01*
X80315689Y-130934570D01*
X80232930Y-130851811D01*
X80131571Y-130793292D01*
X80044092Y-130769852D01*
X80749638Y-130064307D01*
X80749638Y-130064306D01*
X80713606Y-130038128D01*
X80670939Y-129982799D01*
X80664959Y-129913185D01*
X80697565Y-129851390D01*
X80713599Y-129837494D01*
X80865199Y-129727352D01*
X81019852Y-129572699D01*
X81019854Y-129572695D01*
X81019857Y-129572693D01*
X81076229Y-129495101D01*
X81148407Y-129395757D01*
X81247701Y-129200883D01*
X81315286Y-128992875D01*
X81335400Y-128865880D01*
X81349500Y-128776861D01*
X81349500Y-128558138D01*
X81319797Y-128370609D01*
X81315286Y-128342125D01*
X81247701Y-128134117D01*
X81247701Y-128134116D01*
X81213315Y-128066632D01*
X81148407Y-127939243D01*
X81140147Y-127927874D01*
X81019857Y-127762306D01*
X80865199Y-127607648D01*
X80860507Y-127604239D01*
X80714028Y-127497816D01*
X80671364Y-127442489D01*
X80665385Y-127372876D01*
X80697990Y-127311080D01*
X80714023Y-127297186D01*
X80865199Y-127187352D01*
X81019852Y-127032699D01*
X81095111Y-126929113D01*
X81150439Y-126886449D01*
X81195428Y-126878000D01*
X84265270Y-126878000D01*
X84332309Y-126897685D01*
X84352951Y-126914319D01*
X86793181Y-129354549D01*
X86826666Y-129415872D01*
X86829500Y-129442230D01*
X86829500Y-137592071D01*
X86809815Y-137659110D01*
X86778385Y-137692389D01*
X86674807Y-137767642D01*
X86674802Y-137767646D01*
X86520142Y-137922306D01*
X86391595Y-138099239D01*
X86292298Y-138294116D01*
X86292297Y-138294119D01*
X86224714Y-138502123D01*
X86190500Y-138718138D01*
X86190500Y-138936861D01*
X86224714Y-139152876D01*
X86292297Y-139360880D01*
X86292298Y-139360883D01*
X86359782Y-139493325D01*
X86379722Y-139532460D01*
X86391595Y-139555760D01*
X86520142Y-139732693D01*
X86674806Y-139887357D01*
X86789508Y-139970691D01*
X86851743Y-140015907D01*
X86979132Y-140080815D01*
X87046616Y-140115201D01*
X87046619Y-140115202D01*
X87150621Y-140148993D01*
X87254625Y-140182786D01*
X87354672Y-140198632D01*
X87470639Y-140217000D01*
X87470644Y-140217000D01*
X87689361Y-140217000D01*
X87794082Y-140200412D01*
X87905375Y-140182786D01*
X88113383Y-140115201D01*
X88308257Y-140015907D01*
X88407601Y-139943729D01*
X88485193Y-139887357D01*
X88485195Y-139887354D01*
X88485199Y-139887352D01*
X88639852Y-139732699D01*
X88749683Y-139581528D01*
X88805011Y-139538864D01*
X88874624Y-139532885D01*
X88936420Y-139565490D01*
X88950313Y-139581523D01*
X89022209Y-139680480D01*
X89060148Y-139732699D01*
X89214806Y-139887357D01*
X89329508Y-139970691D01*
X89391743Y-140015907D01*
X89519132Y-140080815D01*
X89586616Y-140115201D01*
X89586619Y-140115202D01*
X89690621Y-140148993D01*
X89794625Y-140182786D01*
X89894672Y-140198632D01*
X90010639Y-140217000D01*
X90010644Y-140217000D01*
X90229361Y-140217000D01*
X90334082Y-140200412D01*
X90445375Y-140182786D01*
X90653383Y-140115201D01*
X90848257Y-140015907D01*
X90947601Y-139943729D01*
X91025193Y-139887357D01*
X91025195Y-139887354D01*
X91025199Y-139887352D01*
X91179852Y-139732699D01*
X91289991Y-139581103D01*
X91345320Y-139538439D01*
X91414933Y-139532460D01*
X91476729Y-139565065D01*
X91490628Y-139581106D01*
X91516806Y-139617138D01*
X91516807Y-139617138D01*
X92222352Y-138911593D01*
X92245792Y-138999071D01*
X92304311Y-139100430D01*
X92387070Y-139183189D01*
X92488429Y-139241708D01*
X92575905Y-139265147D01*
X91870360Y-139970691D01*
X91932008Y-140015480D01*
X92126808Y-140114737D01*
X92126811Y-140114738D01*
X92334740Y-140182297D01*
X92550684Y-140216500D01*
X92769316Y-140216500D01*
X92985259Y-140182297D01*
X93193188Y-140114738D01*
X93193191Y-140114737D01*
X93387995Y-140015478D01*
X93449638Y-139970691D01*
X93449639Y-139970691D01*
X92744094Y-139265147D01*
X92831571Y-139241708D01*
X92932930Y-139183189D01*
X93015689Y-139100430D01*
X93074208Y-138999071D01*
X93097647Y-138911595D01*
X93803191Y-139617139D01*
X93803191Y-139617138D01*
X93847978Y-139555495D01*
X93947237Y-139360691D01*
X93947238Y-139360688D01*
X94014797Y-139152759D01*
X94049000Y-138936816D01*
X94049000Y-138718183D01*
X94014797Y-138502238D01*
X93986969Y-138416589D01*
X93976100Y-138383138D01*
X163190500Y-138383138D01*
X163190500Y-138601861D01*
X163224714Y-138817876D01*
X163292297Y-139025880D01*
X163292298Y-139025883D01*
X163356946Y-139152759D01*
X163379722Y-139197460D01*
X163391595Y-139220760D01*
X163520142Y-139397693D01*
X163674806Y-139552357D01*
X163789508Y-139635691D01*
X163851743Y-139680907D01*
X163953378Y-139732693D01*
X164046616Y-139780201D01*
X164046619Y-139780202D01*
X164150621Y-139813993D01*
X164254625Y-139847786D01*
X164354672Y-139863632D01*
X164470639Y-139882000D01*
X164470644Y-139882000D01*
X164689361Y-139882000D01*
X164794082Y-139865412D01*
X164905375Y-139847786D01*
X165113383Y-139780201D01*
X165308257Y-139680907D01*
X165445039Y-139581530D01*
X165485193Y-139552357D01*
X165485195Y-139552354D01*
X165485199Y-139552352D01*
X165639852Y-139397699D01*
X165749683Y-139246528D01*
X165805011Y-139203864D01*
X165874624Y-139197885D01*
X165936420Y-139230490D01*
X165950313Y-139246523D01*
X166033398Y-139360880D01*
X166060148Y-139397699D01*
X166214806Y-139552357D01*
X166329508Y-139635691D01*
X166391743Y-139680907D01*
X166493378Y-139732693D01*
X166586616Y-139780201D01*
X166586619Y-139780202D01*
X166690621Y-139813993D01*
X166794625Y-139847786D01*
X166894672Y-139863632D01*
X167010639Y-139882000D01*
X167010644Y-139882000D01*
X167229361Y-139882000D01*
X167334082Y-139865412D01*
X167445375Y-139847786D01*
X167653383Y-139780201D01*
X167848257Y-139680907D01*
X167985039Y-139581530D01*
X168025193Y-139552357D01*
X168025195Y-139552354D01*
X168025199Y-139552352D01*
X168179852Y-139397699D01*
X168289991Y-139246103D01*
X168345320Y-139203439D01*
X168414933Y-139197460D01*
X168476729Y-139230065D01*
X168490628Y-139246106D01*
X168516806Y-139282138D01*
X168516807Y-139282138D01*
X169222352Y-138576593D01*
X169245792Y-138664071D01*
X169304311Y-138765430D01*
X169387070Y-138848189D01*
X169488429Y-138906708D01*
X169575905Y-138930147D01*
X168870360Y-139635691D01*
X168932008Y-139680480D01*
X169126808Y-139779737D01*
X169126811Y-139779738D01*
X169334740Y-139847297D01*
X169550684Y-139881500D01*
X169769316Y-139881500D01*
X169985259Y-139847297D01*
X170193188Y-139779738D01*
X170193191Y-139779737D01*
X170387995Y-139680478D01*
X170449638Y-139635691D01*
X170449639Y-139635691D01*
X169744094Y-138930147D01*
X169831571Y-138906708D01*
X169932930Y-138848189D01*
X170015689Y-138765430D01*
X170074208Y-138664071D01*
X170097647Y-138576595D01*
X170803191Y-139282139D01*
X170803191Y-139282138D01*
X170847978Y-139220495D01*
X170947237Y-139025691D01*
X170947238Y-139025688D01*
X171014797Y-138817759D01*
X171049000Y-138601816D01*
X171049000Y-138383183D01*
X171014797Y-138167240D01*
X170947238Y-137959311D01*
X170947237Y-137959308D01*
X170847980Y-137764508D01*
X170803191Y-137702860D01*
X170097647Y-138408404D01*
X170074208Y-138320929D01*
X170015689Y-138219570D01*
X169932930Y-138136811D01*
X169831571Y-138078292D01*
X169744092Y-138054852D01*
X170449638Y-137349307D01*
X170449638Y-137349306D01*
X170387995Y-137304521D01*
X170387993Y-137304520D01*
X170193191Y-137205262D01*
X170193188Y-137205261D01*
X169985259Y-137137702D01*
X169769316Y-137103500D01*
X169550684Y-137103500D01*
X169334740Y-137137702D01*
X169126811Y-137205261D01*
X169126808Y-137205262D01*
X168932001Y-137304523D01*
X168870360Y-137349306D01*
X168870360Y-137349307D01*
X169575905Y-138054852D01*
X169488429Y-138078292D01*
X169387070Y-138136811D01*
X169304311Y-138219570D01*
X169245792Y-138320929D01*
X169222352Y-138408405D01*
X168516807Y-137702860D01*
X168516805Y-137702860D01*
X168490626Y-137738894D01*
X168435297Y-137781560D01*
X168365683Y-137787539D01*
X168303888Y-137754934D01*
X168289995Y-137738901D01*
X168179852Y-137587301D01*
X168025199Y-137432648D01*
X168025193Y-137432642D01*
X167848260Y-137304095D01*
X167848259Y-137304094D01*
X167848257Y-137304093D01*
X167785825Y-137272282D01*
X167653383Y-137204798D01*
X167653380Y-137204797D01*
X167445376Y-137137214D01*
X167229361Y-137103000D01*
X167229356Y-137103000D01*
X167010644Y-137103000D01*
X167010639Y-137103000D01*
X166794623Y-137137214D01*
X166586619Y-137204797D01*
X166586616Y-137204798D01*
X166391739Y-137304095D01*
X166214806Y-137432642D01*
X166060142Y-137587306D01*
X165950318Y-137738469D01*
X165894989Y-137781135D01*
X165825375Y-137787114D01*
X165763580Y-137754509D01*
X165749682Y-137738469D01*
X165639857Y-137587306D01*
X165485193Y-137432642D01*
X165308260Y-137304095D01*
X165308259Y-137304094D01*
X165308257Y-137304093D01*
X165245825Y-137272282D01*
X165113383Y-137204798D01*
X165113380Y-137204797D01*
X164905376Y-137137214D01*
X164689361Y-137103000D01*
X164689356Y-137103000D01*
X164470644Y-137103000D01*
X164470639Y-137103000D01*
X164254623Y-137137214D01*
X164046619Y-137204797D01*
X164046616Y-137204798D01*
X163851739Y-137304095D01*
X163674806Y-137432642D01*
X163520142Y-137587306D01*
X163391595Y-137764239D01*
X163292298Y-137959116D01*
X163292297Y-137959119D01*
X163224714Y-138167123D01*
X163190500Y-138383138D01*
X93976100Y-138383138D01*
X93947238Y-138294311D01*
X93947237Y-138294308D01*
X93847980Y-138099508D01*
X93803191Y-138037860D01*
X93097647Y-138743404D01*
X93074208Y-138655929D01*
X93015689Y-138554570D01*
X92932930Y-138471811D01*
X92831571Y-138413292D01*
X92744092Y-138389852D01*
X93449638Y-137684307D01*
X93449638Y-137684306D01*
X93387995Y-137639521D01*
X93387993Y-137639520D01*
X93193191Y-137540262D01*
X93193188Y-137540261D01*
X92985259Y-137472702D01*
X92769316Y-137438500D01*
X92550684Y-137438500D01*
X92334740Y-137472702D01*
X92126811Y-137540261D01*
X92126808Y-137540262D01*
X91932001Y-137639523D01*
X91870360Y-137684306D01*
X91870360Y-137684307D01*
X92575905Y-138389852D01*
X92488429Y-138413292D01*
X92387070Y-138471811D01*
X92304311Y-138554570D01*
X92245792Y-138655929D01*
X92222352Y-138743405D01*
X91516807Y-138037860D01*
X91516805Y-138037860D01*
X91490626Y-138073894D01*
X91435297Y-138116560D01*
X91365683Y-138122539D01*
X91303888Y-138089934D01*
X91289995Y-138073901D01*
X91179852Y-137922301D01*
X91025199Y-137767648D01*
X91025193Y-137767642D01*
X90848260Y-137639095D01*
X90848259Y-137639094D01*
X90848257Y-137639093D01*
X90755972Y-137592071D01*
X90653383Y-137539798D01*
X90653380Y-137539797D01*
X90445376Y-137472214D01*
X90229361Y-137438000D01*
X90229356Y-137438000D01*
X90010644Y-137438000D01*
X90010639Y-137438000D01*
X89794623Y-137472214D01*
X89586619Y-137539797D01*
X89586616Y-137539798D01*
X89391739Y-137639095D01*
X89214806Y-137767642D01*
X89060142Y-137922306D01*
X88950318Y-138073469D01*
X88894989Y-138116135D01*
X88825375Y-138122114D01*
X88763580Y-138089509D01*
X88749682Y-138073469D01*
X88639857Y-137922306D01*
X88485197Y-137767646D01*
X88485192Y-137767642D01*
X88381615Y-137692389D01*
X88338949Y-137637059D01*
X88330500Y-137592071D01*
X88330500Y-135205648D01*
X96096500Y-135205648D01*
X96096500Y-135464351D01*
X96122877Y-135630887D01*
X96136968Y-135719854D01*
X96216909Y-135965885D01*
X96334353Y-136196382D01*
X96486408Y-136405668D01*
X96669332Y-136588592D01*
X96878618Y-136740647D01*
X97109115Y-136858091D01*
X97355146Y-136938032D01*
X97450961Y-136953207D01*
X97610649Y-136978500D01*
X97610654Y-136978500D01*
X97869351Y-136978500D01*
X98011294Y-136956017D01*
X98124854Y-136938032D01*
X98370885Y-136858091D01*
X98601382Y-136740647D01*
X98810668Y-136588592D01*
X98993592Y-136405668D01*
X99145647Y-136196382D01*
X99263091Y-135965885D01*
X99343032Y-135719854D01*
X99361017Y-135606294D01*
X99383500Y-135464351D01*
X99383500Y-135205648D01*
X99361426Y-135066286D01*
X99343032Y-134950146D01*
X99317201Y-134870648D01*
X157856500Y-134870648D01*
X157856500Y-135129351D01*
X157896967Y-135384850D01*
X157896968Y-135384854D01*
X157976909Y-135630885D01*
X158094353Y-135861382D01*
X158246408Y-136070668D01*
X158429332Y-136253592D01*
X158638618Y-136405647D01*
X158869115Y-136523091D01*
X159115146Y-136603032D01*
X159210961Y-136618207D01*
X159370649Y-136643500D01*
X159370654Y-136643500D01*
X159629351Y-136643500D01*
X159771294Y-136621017D01*
X159884854Y-136603032D01*
X160130885Y-136523091D01*
X160361382Y-136405647D01*
X160570668Y-136253592D01*
X160753592Y-136070668D01*
X160905647Y-135861382D01*
X161023091Y-135630885D01*
X161103032Y-135384854D01*
X161121017Y-135271294D01*
X161143500Y-135129351D01*
X161143500Y-134870648D01*
X173096500Y-134870648D01*
X173096500Y-135129351D01*
X173136967Y-135384850D01*
X173136968Y-135384854D01*
X173216909Y-135630885D01*
X173334353Y-135861382D01*
X173486408Y-136070668D01*
X173669332Y-136253592D01*
X173878618Y-136405647D01*
X174109115Y-136523091D01*
X174355146Y-136603032D01*
X174450961Y-136618207D01*
X174610649Y-136643500D01*
X174610654Y-136643500D01*
X174869351Y-136643500D01*
X175011294Y-136621017D01*
X175124854Y-136603032D01*
X175370885Y-136523091D01*
X175601382Y-136405647D01*
X175810668Y-136253592D01*
X175993592Y-136070668D01*
X176145647Y-135861382D01*
X176263091Y-135630885D01*
X176343032Y-135384854D01*
X176361017Y-135271294D01*
X176383500Y-135129351D01*
X176383500Y-134870648D01*
X176343032Y-134615149D01*
X176343032Y-134615146D01*
X176263091Y-134369115D01*
X176145647Y-134138618D01*
X175993592Y-133929332D01*
X175810668Y-133746408D01*
X175601382Y-133594353D01*
X175370885Y-133476909D01*
X175124854Y-133396968D01*
X175124852Y-133396967D01*
X175124850Y-133396967D01*
X174869351Y-133356500D01*
X174869346Y-133356500D01*
X174610654Y-133356500D01*
X174610649Y-133356500D01*
X174355149Y-133396967D01*
X174109112Y-133476910D01*
X173878617Y-133594353D01*
X173669329Y-133746410D01*
X173486410Y-133929329D01*
X173334353Y-134138617D01*
X173216910Y-134369112D01*
X173136967Y-134615149D01*
X173096500Y-134870648D01*
X161143500Y-134870648D01*
X161103032Y-134615149D01*
X161103032Y-134615146D01*
X161023091Y-134369115D01*
X160905647Y-134138618D01*
X160753592Y-133929332D01*
X160570668Y-133746408D01*
X160361382Y-133594353D01*
X160130885Y-133476909D01*
X159884854Y-133396968D01*
X159884852Y-133396967D01*
X159884850Y-133396967D01*
X159629351Y-133356500D01*
X159629346Y-133356500D01*
X159370654Y-133356500D01*
X159370649Y-133356500D01*
X159115149Y-133396967D01*
X158869112Y-133476910D01*
X158638617Y-133594353D01*
X158429329Y-133746410D01*
X158246410Y-133929329D01*
X158094353Y-134138617D01*
X157976910Y-134369112D01*
X157896967Y-134615149D01*
X157856500Y-134870648D01*
X99317201Y-134870648D01*
X99263091Y-134704115D01*
X99145647Y-134473618D01*
X98993592Y-134264332D01*
X98810668Y-134081408D01*
X98601382Y-133929353D01*
X98370885Y-133811909D01*
X98124854Y-133731968D01*
X98124852Y-133731967D01*
X98124850Y-133731967D01*
X97869351Y-133691500D01*
X97869346Y-133691500D01*
X97610654Y-133691500D01*
X97610649Y-133691500D01*
X97355149Y-133731967D01*
X97109112Y-133811910D01*
X96878617Y-133929353D01*
X96669329Y-134081410D01*
X96486410Y-134264329D01*
X96334353Y-134473617D01*
X96216910Y-134704112D01*
X96136967Y-134950149D01*
X96096500Y-135205648D01*
X88330500Y-135205648D01*
X88330500Y-129744732D01*
X88350185Y-129677693D01*
X88351398Y-129675841D01*
X88370135Y-129647799D01*
X88405084Y-129595494D01*
X88461658Y-129458912D01*
X88490500Y-129313917D01*
X88490500Y-129166082D01*
X88490500Y-129166079D01*
X88461659Y-129021092D01*
X88461658Y-129021091D01*
X88461658Y-129021087D01*
X88449972Y-128992875D01*
X88405087Y-128884511D01*
X88405080Y-128884498D01*
X88322951Y-128761584D01*
X88319086Y-128756874D01*
X88320218Y-128755944D01*
X88299192Y-128724476D01*
X88289394Y-128700821D01*
X88260698Y-128657875D01*
X88201789Y-128569711D01*
X88201786Y-128569707D01*
X88090292Y-128458213D01*
X88090288Y-128458210D01*
X87959185Y-128370609D01*
X87959175Y-128370604D01*
X87935523Y-128360807D01*
X87895295Y-128333927D01*
X84978421Y-125417052D01*
X84978417Y-125417049D01*
X84978416Y-125417048D01*
X84855494Y-125334916D01*
X84855492Y-125334915D01*
X84855490Y-125334914D01*
X84718912Y-125278342D01*
X84718906Y-125278340D01*
X84573919Y-125249500D01*
X84573917Y-125249500D01*
X84426082Y-125249500D01*
X84426080Y-125249500D01*
X84281092Y-125278340D01*
X84281086Y-125278342D01*
X84144508Y-125334914D01*
X84144501Y-125334918D01*
X84112796Y-125356103D01*
X84046118Y-125376980D01*
X84043906Y-125377000D01*
X81195428Y-125377000D01*
X81128389Y-125357315D01*
X81095111Y-125325887D01*
X81019852Y-125222301D01*
X80865199Y-125067648D01*
X80865197Y-125067646D01*
X80865192Y-125067642D01*
X80761615Y-124992389D01*
X80718949Y-124937059D01*
X80710500Y-124892071D01*
X80710500Y-122593867D01*
X80730185Y-122526828D01*
X80782989Y-122481073D01*
X80852147Y-122471129D01*
X80915703Y-122500154D01*
X80952430Y-122555547D01*
X80976909Y-122630885D01*
X81094353Y-122861382D01*
X81246408Y-123070668D01*
X81429332Y-123253592D01*
X81638618Y-123405647D01*
X81869115Y-123523091D01*
X82115146Y-123603032D01*
X82210961Y-123618207D01*
X82370649Y-123643500D01*
X82370654Y-123643500D01*
X82629351Y-123643500D01*
X82771294Y-123621017D01*
X82884854Y-123603032D01*
X83130885Y-123523091D01*
X83361382Y-123405647D01*
X83570668Y-123253592D01*
X83753592Y-123070668D01*
X83905647Y-122861382D01*
X84023091Y-122630885D01*
X84103032Y-122384854D01*
X84143500Y-122129346D01*
X84143500Y-121870654D01*
X84143500Y-121870648D01*
X84103032Y-121615149D01*
X84103032Y-121615146D01*
X84023091Y-121369115D01*
X83905647Y-121138618D01*
X83760023Y-120938183D01*
X85556000Y-120938183D01*
X85556000Y-121156816D01*
X85590202Y-121372759D01*
X85657761Y-121580688D01*
X85657762Y-121580691D01*
X85757020Y-121775493D01*
X85757021Y-121775495D01*
X85801806Y-121837138D01*
X85801807Y-121837138D01*
X86502861Y-121136084D01*
X86525667Y-121221194D01*
X86584910Y-121323806D01*
X86668694Y-121407590D01*
X86771306Y-121466833D01*
X86856414Y-121489637D01*
X86155360Y-122190691D01*
X86217008Y-122235480D01*
X86411808Y-122334737D01*
X86411811Y-122334738D01*
X86619740Y-122402297D01*
X86835684Y-122436500D01*
X87054316Y-122436500D01*
X87270259Y-122402297D01*
X87478188Y-122334738D01*
X87478191Y-122334737D01*
X87672995Y-122235478D01*
X87734638Y-122190691D01*
X87734639Y-122190691D01*
X87033585Y-121489638D01*
X87118694Y-121466833D01*
X87221306Y-121407590D01*
X87305090Y-121323806D01*
X87364333Y-121221194D01*
X87387137Y-121136085D01*
X88088191Y-121837139D01*
X88088191Y-121837138D01*
X88132978Y-121775495D01*
X88232237Y-121580691D01*
X88232238Y-121580688D01*
X88299797Y-121372759D01*
X88334000Y-121156816D01*
X88334000Y-120938183D01*
X88333993Y-120938138D01*
X91905500Y-120938138D01*
X91905500Y-121156861D01*
X91939714Y-121372876D01*
X92007297Y-121580880D01*
X92007298Y-121580883D01*
X92074782Y-121713325D01*
X92106592Y-121775756D01*
X92106595Y-121775760D01*
X92235142Y-121952693D01*
X92389806Y-122107357D01*
X92504508Y-122190691D01*
X92566743Y-122235907D01*
X92684456Y-122295885D01*
X92761616Y-122335201D01*
X92761619Y-122335202D01*
X92865621Y-122368993D01*
X92969625Y-122402786D01*
X93069672Y-122418632D01*
X93185639Y-122437000D01*
X93185644Y-122437000D01*
X93404361Y-122437000D01*
X93509082Y-122420412D01*
X93620375Y-122402786D01*
X93828383Y-122335201D01*
X94023257Y-122235907D01*
X94122601Y-122163729D01*
X94200193Y-122107357D01*
X94200195Y-122107354D01*
X94200199Y-122107352D01*
X94354852Y-121952699D01*
X94414465Y-121870648D01*
X96096500Y-121870648D01*
X96096500Y-122129351D01*
X96129104Y-122335202D01*
X96136968Y-122384854D01*
X96216909Y-122630885D01*
X96334353Y-122861382D01*
X96486408Y-123070668D01*
X96669332Y-123253592D01*
X96878618Y-123405647D01*
X97109115Y-123523091D01*
X97355146Y-123603032D01*
X97450961Y-123618207D01*
X97610649Y-123643500D01*
X97610654Y-123643500D01*
X97869351Y-123643500D01*
X98011294Y-123621017D01*
X98124854Y-123603032D01*
X98370885Y-123523091D01*
X98601382Y-123405647D01*
X98810668Y-123253592D01*
X98993592Y-123070668D01*
X99145647Y-122861382D01*
X99263091Y-122630885D01*
X99343032Y-122384854D01*
X99383499Y-122129355D01*
X99383500Y-122129351D01*
X99383500Y-121870648D01*
X99343032Y-121615149D01*
X99343032Y-121615146D01*
X99263091Y-121369115D01*
X99145647Y-121138618D01*
X98993592Y-120929332D01*
X98810668Y-120746408D01*
X98601382Y-120594353D01*
X98370885Y-120476909D01*
X98124854Y-120396968D01*
X98124852Y-120396967D01*
X98124850Y-120396967D01*
X97869351Y-120356500D01*
X97869346Y-120356500D01*
X97610654Y-120356500D01*
X97610649Y-120356500D01*
X97355149Y-120396967D01*
X97109112Y-120476910D01*
X96878617Y-120594353D01*
X96669329Y-120746410D01*
X96486410Y-120929329D01*
X96334353Y-121138617D01*
X96216910Y-121369112D01*
X96136967Y-121615149D01*
X96096500Y-121870648D01*
X94414465Y-121870648D01*
X94483407Y-121775757D01*
X94582701Y-121580883D01*
X94650286Y-121372875D01*
X94670430Y-121245691D01*
X94684500Y-121156861D01*
X94684500Y-120938138D01*
X94658145Y-120771744D01*
X94650286Y-120722125D01*
X94582701Y-120514117D01*
X94582701Y-120514116D01*
X94530369Y-120411410D01*
X94483407Y-120319243D01*
X94438810Y-120257860D01*
X94354857Y-120142306D01*
X94200193Y-119987642D01*
X94023260Y-119859095D01*
X94023259Y-119859094D01*
X94023257Y-119859093D01*
X93960825Y-119827282D01*
X93828383Y-119759798D01*
X93828380Y-119759797D01*
X93620376Y-119692214D01*
X93404361Y-119658000D01*
X93404356Y-119658000D01*
X93185644Y-119658000D01*
X93185639Y-119658000D01*
X92969623Y-119692214D01*
X92761619Y-119759797D01*
X92761616Y-119759798D01*
X92566739Y-119859095D01*
X92389806Y-119987642D01*
X92235142Y-120142306D01*
X92106595Y-120319239D01*
X92007298Y-120514116D01*
X92007297Y-120514119D01*
X91939714Y-120722123D01*
X91905500Y-120938138D01*
X88333993Y-120938138D01*
X88299797Y-120722240D01*
X88232238Y-120514311D01*
X88232237Y-120514308D01*
X88132980Y-120319508D01*
X88088191Y-120257860D01*
X87387137Y-120958914D01*
X87364333Y-120873806D01*
X87305090Y-120771194D01*
X87221306Y-120687410D01*
X87118694Y-120628167D01*
X87033583Y-120605361D01*
X87734638Y-119904307D01*
X87734638Y-119904306D01*
X87672995Y-119859521D01*
X87672993Y-119859520D01*
X87478191Y-119760262D01*
X87478188Y-119760261D01*
X87270259Y-119692702D01*
X87054316Y-119658500D01*
X86835684Y-119658500D01*
X86619740Y-119692702D01*
X86411811Y-119760261D01*
X86411808Y-119760262D01*
X86217001Y-119859523D01*
X86155360Y-119904306D01*
X86155360Y-119904307D01*
X86856414Y-120605361D01*
X86771306Y-120628167D01*
X86668694Y-120687410D01*
X86584910Y-120771194D01*
X86525667Y-120873806D01*
X86502861Y-120958914D01*
X85801807Y-120257860D01*
X85801806Y-120257860D01*
X85757023Y-120319501D01*
X85657762Y-120514308D01*
X85657761Y-120514311D01*
X85590202Y-120722240D01*
X85556000Y-120938183D01*
X83760023Y-120938183D01*
X83753592Y-120929332D01*
X83570668Y-120746408D01*
X83361382Y-120594353D01*
X83130885Y-120476909D01*
X82884854Y-120396968D01*
X82884852Y-120396967D01*
X82884850Y-120396967D01*
X82629351Y-120356500D01*
X82629346Y-120356500D01*
X82370654Y-120356500D01*
X82370649Y-120356500D01*
X82115149Y-120396967D01*
X81869112Y-120476910D01*
X81638617Y-120594353D01*
X81429329Y-120746410D01*
X81246410Y-120929329D01*
X81094353Y-121138617D01*
X80976910Y-121369110D01*
X80961367Y-121416946D01*
X80953632Y-121440756D01*
X80952431Y-121444451D01*
X80912993Y-121502126D01*
X80848634Y-121529324D01*
X80779788Y-121517409D01*
X80728312Y-121470165D01*
X80710500Y-121406132D01*
X80710500Y-115858138D01*
X85555500Y-115858138D01*
X85555500Y-116076861D01*
X85589714Y-116292876D01*
X85657297Y-116500880D01*
X85657298Y-116500883D01*
X85756595Y-116695760D01*
X85885142Y-116872693D01*
X86039806Y-117027357D01*
X86205374Y-117147647D01*
X86216743Y-117155907D01*
X86344132Y-117220815D01*
X86411616Y-117255201D01*
X86411619Y-117255202D01*
X86515621Y-117288993D01*
X86619625Y-117322786D01*
X86719672Y-117338632D01*
X86835639Y-117357000D01*
X86835644Y-117357000D01*
X87054361Y-117357000D01*
X87159082Y-117340412D01*
X87270375Y-117322786D01*
X87478383Y-117255201D01*
X87673257Y-117155907D01*
X87772601Y-117083729D01*
X87850193Y-117027357D01*
X87850195Y-117027354D01*
X87850199Y-117027352D01*
X88004852Y-116872699D01*
X88004854Y-116872695D01*
X88004857Y-116872693D01*
X88061229Y-116795101D01*
X88133407Y-116695757D01*
X88232701Y-116500883D01*
X88300286Y-116292875D01*
X88320400Y-116165880D01*
X88334500Y-116076861D01*
X88334500Y-115858138D01*
X91905500Y-115858138D01*
X91905500Y-116076861D01*
X91939714Y-116292876D01*
X92007297Y-116500880D01*
X92007298Y-116500883D01*
X92106595Y-116695760D01*
X92235142Y-116872693D01*
X92389806Y-117027357D01*
X92555374Y-117147647D01*
X92566743Y-117155907D01*
X92694132Y-117220815D01*
X92761616Y-117255201D01*
X92761619Y-117255202D01*
X92865621Y-117288993D01*
X92969625Y-117322786D01*
X93069672Y-117338632D01*
X93185639Y-117357000D01*
X93185644Y-117357000D01*
X93404361Y-117357000D01*
X93509082Y-117340412D01*
X93620375Y-117322786D01*
X93828383Y-117255201D01*
X94023257Y-117155907D01*
X94122601Y-117083729D01*
X94200193Y-117027357D01*
X94200195Y-117027354D01*
X94200199Y-117027352D01*
X94354852Y-116872699D01*
X94354854Y-116872695D01*
X94354857Y-116872693D01*
X94411229Y-116795101D01*
X94483407Y-116695757D01*
X94582701Y-116500883D01*
X94650286Y-116292875D01*
X94670400Y-116165880D01*
X94684500Y-116076861D01*
X94684500Y-115858138D01*
X94650286Y-115642127D01*
X94650286Y-115642125D01*
X94582701Y-115434117D01*
X94576095Y-115421153D01*
X123699500Y-115421153D01*
X123699500Y-115578846D01*
X123730261Y-115733489D01*
X123730264Y-115733501D01*
X123790602Y-115879172D01*
X123790609Y-115879185D01*
X123878210Y-116010288D01*
X123878213Y-116010292D01*
X123989710Y-116121789D01*
X124055702Y-116165883D01*
X124120821Y-116209394D01*
X124144475Y-116219191D01*
X124184703Y-116246071D01*
X134209549Y-126270916D01*
X134264513Y-126325880D01*
X134314085Y-126375452D01*
X134436998Y-126457580D01*
X134437011Y-126457587D01*
X134573582Y-126514156D01*
X134573587Y-126514158D01*
X134573591Y-126514158D01*
X134573592Y-126514159D01*
X134718579Y-126543000D01*
X134718582Y-126543000D01*
X134718583Y-126543000D01*
X134866417Y-126543000D01*
X155724572Y-126543000D01*
X155791611Y-126562685D01*
X155824888Y-126594112D01*
X155873398Y-126660880D01*
X155900148Y-126697699D01*
X156054806Y-126852357D01*
X156205969Y-126962182D01*
X156248635Y-127017511D01*
X156254614Y-127087125D01*
X156222009Y-127148920D01*
X156205969Y-127162818D01*
X156054806Y-127272642D01*
X155900142Y-127427306D01*
X155771595Y-127604239D01*
X155672298Y-127799116D01*
X155672297Y-127799119D01*
X155604714Y-128007123D01*
X155570500Y-128223138D01*
X155570500Y-128441861D01*
X155604714Y-128657876D01*
X155672297Y-128865880D01*
X155672298Y-128865883D01*
X155737005Y-128992875D01*
X155751377Y-129021082D01*
X155771595Y-129060760D01*
X155900142Y-129237693D01*
X155900148Y-129237699D01*
X156054801Y-129392352D01*
X156206395Y-129502491D01*
X156249060Y-129557819D01*
X156255039Y-129627432D01*
X156222434Y-129689228D01*
X156206394Y-129703126D01*
X156170360Y-129729305D01*
X156170360Y-129729307D01*
X156875905Y-130434852D01*
X156788429Y-130458292D01*
X156687070Y-130516811D01*
X156604311Y-130599570D01*
X156545792Y-130700929D01*
X156522352Y-130788405D01*
X155816807Y-130082860D01*
X155816806Y-130082860D01*
X155772023Y-130144501D01*
X155672762Y-130339308D01*
X155672761Y-130339311D01*
X155605202Y-130547240D01*
X155571000Y-130763183D01*
X155571000Y-130981816D01*
X155605202Y-131197759D01*
X155672761Y-131405688D01*
X155672762Y-131405691D01*
X155772020Y-131600493D01*
X155772021Y-131600495D01*
X155816806Y-131662138D01*
X155816807Y-131662138D01*
X156522352Y-130956593D01*
X156545792Y-131044071D01*
X156604311Y-131145430D01*
X156687070Y-131228189D01*
X156788429Y-131286708D01*
X156875905Y-131310147D01*
X156170360Y-132015691D01*
X156232008Y-132060480D01*
X156426808Y-132159737D01*
X156426811Y-132159738D01*
X156634740Y-132227297D01*
X156850684Y-132261500D01*
X157069316Y-132261500D01*
X157285259Y-132227297D01*
X157493188Y-132159738D01*
X157493191Y-132159737D01*
X157687995Y-132060478D01*
X157749638Y-132015691D01*
X157749639Y-132015691D01*
X157044094Y-131310147D01*
X157131571Y-131286708D01*
X157232930Y-131228189D01*
X157315689Y-131145430D01*
X157374208Y-131044071D01*
X157397647Y-130956595D01*
X158103191Y-131662139D01*
X158103191Y-131662138D01*
X158147978Y-131600495D01*
X158247237Y-131405691D01*
X158247238Y-131405688D01*
X158314797Y-131197759D01*
X158349000Y-130981816D01*
X158349000Y-130763183D01*
X158314797Y-130547240D01*
X158247238Y-130339311D01*
X158247237Y-130339308D01*
X158147980Y-130144508D01*
X158103191Y-130082860D01*
X157397647Y-130788404D01*
X157374208Y-130700929D01*
X157315689Y-130599570D01*
X157232930Y-130516811D01*
X157131571Y-130458292D01*
X157044092Y-130434852D01*
X157749638Y-129729307D01*
X157749638Y-129729306D01*
X157713606Y-129703128D01*
X157670939Y-129647799D01*
X157664959Y-129578185D01*
X157697565Y-129516390D01*
X157713599Y-129502494D01*
X157865199Y-129392352D01*
X158019852Y-129237699D01*
X158019854Y-129237695D01*
X158019857Y-129237693D01*
X158076229Y-129160101D01*
X158148407Y-129060757D01*
X158247701Y-128865883D01*
X158315286Y-128657875D01*
X158332912Y-128546582D01*
X158349500Y-128441861D01*
X158349500Y-128223138D01*
X158329595Y-128097471D01*
X158315286Y-128007125D01*
X158247701Y-127799117D01*
X158247701Y-127799116D01*
X158213315Y-127731632D01*
X158148407Y-127604243D01*
X158140147Y-127592874D01*
X158019857Y-127427306D01*
X157865199Y-127272648D01*
X157865191Y-127272642D01*
X157714028Y-127162816D01*
X157671364Y-127107489D01*
X157665385Y-127037876D01*
X157697990Y-126976080D01*
X157714023Y-126962186D01*
X157865199Y-126852352D01*
X158019852Y-126697699D01*
X158019854Y-126697695D01*
X158019857Y-126697693D01*
X158076229Y-126620101D01*
X158148407Y-126520757D01*
X158247701Y-126325883D01*
X158315286Y-126117875D01*
X158332912Y-126006582D01*
X158349500Y-125901861D01*
X158349500Y-125683138D01*
X158329595Y-125557471D01*
X158315286Y-125467125D01*
X158269395Y-125325885D01*
X158247702Y-125259119D01*
X158247701Y-125259116D01*
X158213315Y-125191632D01*
X158148407Y-125064243D01*
X158105860Y-125005681D01*
X158019857Y-124887306D01*
X157865193Y-124732642D01*
X157688260Y-124604095D01*
X157688259Y-124604094D01*
X157688257Y-124604093D01*
X157625825Y-124572282D01*
X157493383Y-124504798D01*
X157493380Y-124504797D01*
X157285376Y-124437214D01*
X157069361Y-124403000D01*
X157069356Y-124403000D01*
X156850644Y-124403000D01*
X156850639Y-124403000D01*
X156634623Y-124437214D01*
X156426619Y-124504797D01*
X156426616Y-124504798D01*
X156231739Y-124604095D01*
X156054806Y-124732642D01*
X155900148Y-124887300D01*
X155900144Y-124887306D01*
X155824888Y-124990886D01*
X155769561Y-125033551D01*
X155724572Y-125042000D01*
X135154729Y-125042000D01*
X135087690Y-125022315D01*
X135067048Y-125005681D01*
X131597015Y-121535648D01*
X157856500Y-121535648D01*
X157856500Y-121794351D01*
X157889104Y-122000202D01*
X157896968Y-122049854D01*
X157976909Y-122295885D01*
X158094353Y-122526382D01*
X158246408Y-122735668D01*
X158429332Y-122918592D01*
X158638618Y-123070647D01*
X158869115Y-123188091D01*
X159115146Y-123268032D01*
X159210961Y-123283207D01*
X159370649Y-123308500D01*
X159370654Y-123308500D01*
X159629351Y-123308500D01*
X159771294Y-123286017D01*
X159884854Y-123268032D01*
X160130885Y-123188091D01*
X160361382Y-123070647D01*
X160570668Y-122918592D01*
X160753592Y-122735668D01*
X160905647Y-122526382D01*
X161023091Y-122295885D01*
X161103032Y-122049854D01*
X161133784Y-121855691D01*
X161143499Y-121794355D01*
X161143500Y-121794347D01*
X161143500Y-121535648D01*
X161103032Y-121280149D01*
X161103032Y-121280146D01*
X161023091Y-121034115D01*
X160905647Y-120803618D01*
X160760023Y-120603183D01*
X162556000Y-120603183D01*
X162556000Y-120821816D01*
X162590202Y-121037759D01*
X162657761Y-121245688D01*
X162657762Y-121245691D01*
X162757020Y-121440493D01*
X162757021Y-121440495D01*
X162801806Y-121502138D01*
X162801807Y-121502138D01*
X163502861Y-120801084D01*
X163525667Y-120886194D01*
X163584910Y-120988806D01*
X163668694Y-121072590D01*
X163771306Y-121131833D01*
X163856414Y-121154637D01*
X163155360Y-121855691D01*
X163217008Y-121900480D01*
X163411808Y-121999737D01*
X163411811Y-121999738D01*
X163619740Y-122067297D01*
X163835684Y-122101500D01*
X164054316Y-122101500D01*
X164270259Y-122067297D01*
X164478188Y-121999738D01*
X164478191Y-121999737D01*
X164672995Y-121900478D01*
X164734638Y-121855691D01*
X164734639Y-121855691D01*
X164033585Y-121154638D01*
X164118694Y-121131833D01*
X164221306Y-121072590D01*
X164305090Y-120988806D01*
X164364333Y-120886194D01*
X164387138Y-120801085D01*
X165088191Y-121502139D01*
X165088191Y-121502138D01*
X165132978Y-121440495D01*
X165232237Y-121245691D01*
X165232238Y-121245688D01*
X165299797Y-121037759D01*
X165334000Y-120821816D01*
X165334000Y-120603183D01*
X165333993Y-120603138D01*
X168905500Y-120603138D01*
X168905500Y-120821861D01*
X168939714Y-121037876D01*
X169007297Y-121245880D01*
X169007298Y-121245883D01*
X169047003Y-121323806D01*
X169106592Y-121440756D01*
X169106595Y-121440760D01*
X169235142Y-121617693D01*
X169389806Y-121772357D01*
X169525103Y-121870654D01*
X169566743Y-121900907D01*
X169668376Y-121952692D01*
X169761616Y-122000201D01*
X169761619Y-122000202D01*
X169865621Y-122033993D01*
X169969625Y-122067786D01*
X170069672Y-122083632D01*
X170185639Y-122102000D01*
X170185644Y-122102000D01*
X170404361Y-122102000D01*
X170509082Y-122085412D01*
X170620375Y-122067786D01*
X170828383Y-122000201D01*
X171023257Y-121900907D01*
X171122601Y-121828729D01*
X171200193Y-121772357D01*
X171200195Y-121772354D01*
X171200199Y-121772352D01*
X171354852Y-121617699D01*
X171414465Y-121535648D01*
X173096500Y-121535648D01*
X173096500Y-121794351D01*
X173129104Y-122000202D01*
X173136968Y-122049854D01*
X173216909Y-122295885D01*
X173334353Y-122526382D01*
X173486408Y-122735668D01*
X173669332Y-122918592D01*
X173878618Y-123070647D01*
X174109115Y-123188091D01*
X174355146Y-123268032D01*
X174450961Y-123283207D01*
X174610649Y-123308500D01*
X174610654Y-123308500D01*
X174869351Y-123308500D01*
X175011294Y-123286017D01*
X175124854Y-123268032D01*
X175370885Y-123188091D01*
X175601382Y-123070647D01*
X175810668Y-122918592D01*
X175993592Y-122735668D01*
X176145647Y-122526382D01*
X176263091Y-122295885D01*
X176343032Y-122049854D01*
X176366691Y-121900478D01*
X176383500Y-121794351D01*
X176383500Y-121535648D01*
X176343032Y-121280149D01*
X176343032Y-121280146D01*
X176263091Y-121034115D01*
X176145647Y-120803618D01*
X175993592Y-120594332D01*
X175810668Y-120411408D01*
X175601382Y-120259353D01*
X175370885Y-120141909D01*
X175124854Y-120061968D01*
X175124852Y-120061967D01*
X175124850Y-120061967D01*
X174869351Y-120021500D01*
X174869346Y-120021500D01*
X174610654Y-120021500D01*
X174610649Y-120021500D01*
X174355149Y-120061967D01*
X174109112Y-120141910D01*
X173878617Y-120259353D01*
X173669329Y-120411410D01*
X173486410Y-120594329D01*
X173334353Y-120803617D01*
X173216910Y-121034112D01*
X173136967Y-121280149D01*
X173096500Y-121535648D01*
X171414465Y-121535648D01*
X171483407Y-121440757D01*
X171582701Y-121245883D01*
X171650286Y-121037875D01*
X171676272Y-120873806D01*
X171684500Y-120821861D01*
X171684500Y-120603138D01*
X171664506Y-120476909D01*
X171650286Y-120387125D01*
X171582701Y-120179117D01*
X171582701Y-120179116D01*
X171523010Y-120061968D01*
X171483407Y-119984243D01*
X171438810Y-119922860D01*
X171354857Y-119807306D01*
X171200193Y-119652642D01*
X171023260Y-119524095D01*
X171023259Y-119524094D01*
X171023257Y-119524093D01*
X170960825Y-119492282D01*
X170828383Y-119424798D01*
X170828380Y-119424797D01*
X170620376Y-119357214D01*
X170404361Y-119323000D01*
X170404356Y-119323000D01*
X170185644Y-119323000D01*
X170185639Y-119323000D01*
X169969623Y-119357214D01*
X169761619Y-119424797D01*
X169761616Y-119424798D01*
X169566739Y-119524095D01*
X169389806Y-119652642D01*
X169235142Y-119807306D01*
X169106595Y-119984239D01*
X169007298Y-120179116D01*
X169007297Y-120179119D01*
X168939714Y-120387123D01*
X168905500Y-120603138D01*
X165333993Y-120603138D01*
X165299797Y-120387240D01*
X165232238Y-120179311D01*
X165232237Y-120179308D01*
X165132980Y-119984508D01*
X165088191Y-119922860D01*
X164387137Y-120623914D01*
X164364333Y-120538806D01*
X164305090Y-120436194D01*
X164221306Y-120352410D01*
X164118694Y-120293167D01*
X164033583Y-120270361D01*
X164734638Y-119569307D01*
X164734638Y-119569306D01*
X164672995Y-119524521D01*
X164672993Y-119524520D01*
X164478191Y-119425262D01*
X164478188Y-119425261D01*
X164270259Y-119357702D01*
X164054316Y-119323500D01*
X163835684Y-119323500D01*
X163619740Y-119357702D01*
X163411811Y-119425261D01*
X163411808Y-119425262D01*
X163217001Y-119524523D01*
X163155360Y-119569306D01*
X163155360Y-119569307D01*
X163856414Y-120270361D01*
X163771306Y-120293167D01*
X163668694Y-120352410D01*
X163584910Y-120436194D01*
X163525667Y-120538806D01*
X163502861Y-120623914D01*
X162801807Y-119922860D01*
X162801806Y-119922860D01*
X162757023Y-119984501D01*
X162657762Y-120179308D01*
X162657761Y-120179311D01*
X162590202Y-120387240D01*
X162556000Y-120603183D01*
X160760023Y-120603183D01*
X160753592Y-120594332D01*
X160570668Y-120411408D01*
X160361382Y-120259353D01*
X160130885Y-120141909D01*
X159884854Y-120061968D01*
X159884852Y-120061967D01*
X159884850Y-120061967D01*
X159629351Y-120021500D01*
X159629346Y-120021500D01*
X159370654Y-120021500D01*
X159370649Y-120021500D01*
X159115149Y-120061967D01*
X158869112Y-120141910D01*
X158638617Y-120259353D01*
X158429329Y-120411410D01*
X158246410Y-120594329D01*
X158094353Y-120803617D01*
X157976910Y-121034112D01*
X157896967Y-121280149D01*
X157856500Y-121535648D01*
X131597015Y-121535648D01*
X130203276Y-120141909D01*
X125584506Y-115523138D01*
X162555500Y-115523138D01*
X162555500Y-115741861D01*
X162589714Y-115957876D01*
X162657297Y-116165880D01*
X162657298Y-116165883D01*
X162756595Y-116360760D01*
X162885142Y-116537693D01*
X163039806Y-116692357D01*
X163205374Y-116812647D01*
X163216743Y-116820907D01*
X163318378Y-116872693D01*
X163411616Y-116920201D01*
X163411619Y-116920202D01*
X163515621Y-116953993D01*
X163619625Y-116987786D01*
X163719672Y-117003632D01*
X163835639Y-117022000D01*
X163835644Y-117022000D01*
X164054361Y-117022000D01*
X164159082Y-117005412D01*
X164270375Y-116987786D01*
X164478383Y-116920201D01*
X164673257Y-116820907D01*
X164772601Y-116748729D01*
X164850193Y-116692357D01*
X164850195Y-116692354D01*
X164850199Y-116692352D01*
X165004852Y-116537699D01*
X165004854Y-116537695D01*
X165004857Y-116537693D01*
X165061229Y-116460101D01*
X165133407Y-116360757D01*
X165232701Y-116165883D01*
X165300286Y-115957875D01*
X165317912Y-115846582D01*
X165334500Y-115741861D01*
X165334500Y-115523138D01*
X168905500Y-115523138D01*
X168905500Y-115741861D01*
X168939714Y-115957876D01*
X169007297Y-116165880D01*
X169007298Y-116165883D01*
X169106595Y-116360760D01*
X169235142Y-116537693D01*
X169389806Y-116692357D01*
X169555374Y-116812647D01*
X169566743Y-116820907D01*
X169668378Y-116872693D01*
X169761616Y-116920201D01*
X169761619Y-116920202D01*
X169865621Y-116953993D01*
X169969625Y-116987786D01*
X170069672Y-117003632D01*
X170185639Y-117022000D01*
X170185644Y-117022000D01*
X170404361Y-117022000D01*
X170509082Y-117005412D01*
X170620375Y-116987786D01*
X170828383Y-116920201D01*
X171023257Y-116820907D01*
X171122601Y-116748729D01*
X171200193Y-116692357D01*
X171200195Y-116692354D01*
X171200199Y-116692352D01*
X171354852Y-116537699D01*
X171354854Y-116537695D01*
X171354857Y-116537693D01*
X171411229Y-116460101D01*
X171483407Y-116360757D01*
X171582701Y-116165883D01*
X171650286Y-115957875D01*
X171667912Y-115846582D01*
X171684500Y-115741861D01*
X171684500Y-115523138D01*
X171664595Y-115397471D01*
X171650286Y-115307125D01*
X171589755Y-115120827D01*
X171582702Y-115099119D01*
X171582701Y-115099116D01*
X171526953Y-114989707D01*
X171483407Y-114904243D01*
X171400848Y-114790609D01*
X171354857Y-114727306D01*
X171200193Y-114572642D01*
X171023260Y-114444095D01*
X171023259Y-114444094D01*
X171023257Y-114444093D01*
X170960825Y-114412282D01*
X170828383Y-114344798D01*
X170828380Y-114344797D01*
X170620376Y-114277214D01*
X170404361Y-114243000D01*
X170404356Y-114243000D01*
X170185644Y-114243000D01*
X170185639Y-114243000D01*
X169969623Y-114277214D01*
X169761619Y-114344797D01*
X169761616Y-114344798D01*
X169566739Y-114444095D01*
X169389806Y-114572642D01*
X169235142Y-114727306D01*
X169106595Y-114904239D01*
X169007298Y-115099116D01*
X169007297Y-115099119D01*
X168939714Y-115307123D01*
X168905500Y-115523138D01*
X165334500Y-115523138D01*
X165314595Y-115397471D01*
X165300286Y-115307125D01*
X165239755Y-115120827D01*
X165232702Y-115099119D01*
X165232701Y-115099116D01*
X165176953Y-114989707D01*
X165133407Y-114904243D01*
X165050848Y-114790609D01*
X165004857Y-114727306D01*
X164850193Y-114572642D01*
X164673260Y-114444095D01*
X164673259Y-114444094D01*
X164673257Y-114444093D01*
X164610825Y-114412282D01*
X164478383Y-114344798D01*
X164478380Y-114344797D01*
X164270376Y-114277214D01*
X164054361Y-114243000D01*
X164054356Y-114243000D01*
X163835644Y-114243000D01*
X163835639Y-114243000D01*
X163619623Y-114277214D01*
X163411619Y-114344797D01*
X163411616Y-114344798D01*
X163216739Y-114444095D01*
X163039806Y-114572642D01*
X162885142Y-114727306D01*
X162756595Y-114904239D01*
X162657298Y-115099116D01*
X162657297Y-115099119D01*
X162589714Y-115307123D01*
X162555500Y-115523138D01*
X125584506Y-115523138D01*
X125246071Y-115184703D01*
X125219191Y-115144475D01*
X125209394Y-115120821D01*
X125194891Y-115099116D01*
X125121789Y-114989710D01*
X125010292Y-114878213D01*
X125010288Y-114878210D01*
X124879185Y-114790609D01*
X124879172Y-114790602D01*
X124733501Y-114730264D01*
X124733489Y-114730261D01*
X124578845Y-114699500D01*
X124578842Y-114699500D01*
X124421158Y-114699500D01*
X124421155Y-114699500D01*
X124266510Y-114730261D01*
X124266498Y-114730264D01*
X124120827Y-114790602D01*
X124120814Y-114790609D01*
X123989711Y-114878210D01*
X123989707Y-114878213D01*
X123878213Y-114989707D01*
X123878210Y-114989711D01*
X123790609Y-115120814D01*
X123790602Y-115120827D01*
X123730264Y-115266498D01*
X123730261Y-115266510D01*
X123699500Y-115421153D01*
X94576095Y-115421153D01*
X94483407Y-115239243D01*
X94443782Y-115184703D01*
X94354857Y-115062306D01*
X94200193Y-114907642D01*
X94023260Y-114779095D01*
X94023259Y-114779094D01*
X94023257Y-114779093D01*
X93960825Y-114747282D01*
X93828383Y-114679798D01*
X93828380Y-114679797D01*
X93620376Y-114612214D01*
X93404361Y-114578000D01*
X93404356Y-114578000D01*
X93185644Y-114578000D01*
X93185639Y-114578000D01*
X92969623Y-114612214D01*
X92761619Y-114679797D01*
X92761616Y-114679798D01*
X92566739Y-114779095D01*
X92389806Y-114907642D01*
X92235142Y-115062306D01*
X92106595Y-115239239D01*
X92007298Y-115434116D01*
X92007297Y-115434119D01*
X91939714Y-115642123D01*
X91905500Y-115858138D01*
X88334500Y-115858138D01*
X88300286Y-115642128D01*
X88300286Y-115642127D01*
X88300286Y-115642125D01*
X88296798Y-115631393D01*
X88294804Y-115561552D01*
X88327047Y-115505397D01*
X98674946Y-105157500D01*
X115585000Y-105157500D01*
X121885000Y-105157500D01*
X121885000Y-99546091D01*
X129316040Y-99546091D01*
X129349612Y-99568523D01*
X129467901Y-99617520D01*
X129467909Y-99617522D01*
X129593476Y-99642499D01*
X129593480Y-99642500D01*
X129721520Y-99642500D01*
X129721523Y-99642499D01*
X129847090Y-99617522D01*
X129847094Y-99617521D01*
X129965391Y-99568520D01*
X129965398Y-99568516D01*
X129998958Y-99546091D01*
X131151040Y-99546091D01*
X131184612Y-99568523D01*
X131302901Y-99617520D01*
X131302909Y-99617522D01*
X131428476Y-99642499D01*
X131428480Y-99642500D01*
X131556520Y-99642500D01*
X131556523Y-99642499D01*
X131682090Y-99617522D01*
X131682094Y-99617521D01*
X131800391Y-99568520D01*
X131800398Y-99568516D01*
X131833958Y-99546091D01*
X131833959Y-99546090D01*
X131492501Y-99204632D01*
X131492500Y-99204632D01*
X131151040Y-99546091D01*
X129998958Y-99546091D01*
X129998959Y-99546090D01*
X129657501Y-99204632D01*
X129657500Y-99204632D01*
X129316040Y-99546091D01*
X121885000Y-99546091D01*
X121885000Y-98628591D01*
X128398540Y-98628591D01*
X128432112Y-98651023D01*
X128550401Y-98700020D01*
X128550409Y-98700022D01*
X128675976Y-98724999D01*
X128675980Y-98725000D01*
X128804020Y-98725000D01*
X128804020Y-98724999D01*
X128876010Y-98710680D01*
X128945602Y-98716907D01*
X129000779Y-98759770D01*
X129024024Y-98825659D01*
X129021820Y-98856487D01*
X129007500Y-98928482D01*
X129007500Y-99056523D01*
X129032477Y-99182090D01*
X129032479Y-99182098D01*
X129081476Y-99300386D01*
X129081481Y-99300396D01*
X129103907Y-99333958D01*
X129103908Y-99333958D01*
X129445368Y-98992500D01*
X129425477Y-98972609D01*
X129557500Y-98972609D01*
X129557500Y-99012391D01*
X129572724Y-99049145D01*
X129600855Y-99077276D01*
X129637609Y-99092500D01*
X129677391Y-99092500D01*
X129714145Y-99077276D01*
X129742276Y-99049145D01*
X129757500Y-99012391D01*
X129757500Y-98992499D01*
X129869632Y-98992499D01*
X129869632Y-98992500D01*
X130211090Y-99333959D01*
X130211091Y-99333958D01*
X130233516Y-99300398D01*
X130233520Y-99300391D01*
X130282521Y-99182094D01*
X130282522Y-99182090D01*
X130307499Y-99056523D01*
X130307500Y-99056520D01*
X130307500Y-98928480D01*
X130307499Y-98928479D01*
X130293180Y-98856489D01*
X130299407Y-98786897D01*
X130342270Y-98731720D01*
X130408160Y-98708475D01*
X130438989Y-98710680D01*
X130510979Y-98724999D01*
X130510980Y-98725000D01*
X130639020Y-98725000D01*
X130639020Y-98724999D01*
X130711010Y-98710680D01*
X130780602Y-98716907D01*
X130835779Y-98759770D01*
X130859024Y-98825659D01*
X130856820Y-98856487D01*
X130842500Y-98928482D01*
X130842500Y-99056523D01*
X130867477Y-99182090D01*
X130867479Y-99182098D01*
X130916476Y-99300386D01*
X130916481Y-99300396D01*
X130938907Y-99333958D01*
X130938908Y-99333958D01*
X131280368Y-98992500D01*
X131260477Y-98972609D01*
X131392500Y-98972609D01*
X131392500Y-99012391D01*
X131407724Y-99049145D01*
X131435855Y-99077276D01*
X131472609Y-99092500D01*
X131512391Y-99092500D01*
X131549145Y-99077276D01*
X131577276Y-99049145D01*
X131592500Y-99012391D01*
X131592500Y-98992499D01*
X131704632Y-98992499D01*
X131704632Y-98992500D01*
X132046090Y-99333959D01*
X132046091Y-99333958D01*
X132068516Y-99300398D01*
X132068520Y-99300391D01*
X132117521Y-99182094D01*
X132117522Y-99182090D01*
X132142499Y-99056523D01*
X132142500Y-99056520D01*
X132142500Y-98928480D01*
X132142499Y-98928479D01*
X132128180Y-98856489D01*
X132134407Y-98786897D01*
X132177270Y-98731720D01*
X132243160Y-98708475D01*
X132273989Y-98710680D01*
X132345979Y-98724999D01*
X132345980Y-98725000D01*
X132474020Y-98725000D01*
X132474023Y-98724999D01*
X132599590Y-98700022D01*
X132599594Y-98700021D01*
X132717891Y-98651020D01*
X132717898Y-98651016D01*
X132751458Y-98628591D01*
X132751459Y-98628590D01*
X132410001Y-98287132D01*
X132410000Y-98287132D01*
X132087561Y-98609570D01*
X131964523Y-98732609D01*
X131964522Y-98732609D01*
X131704632Y-98992499D01*
X131592500Y-98992499D01*
X131592500Y-98972609D01*
X131577276Y-98935855D01*
X131549145Y-98907724D01*
X131512391Y-98892500D01*
X131472609Y-98892500D01*
X131435855Y-98907724D01*
X131407724Y-98935855D01*
X131392500Y-98972609D01*
X131260477Y-98972609D01*
X131020478Y-98732610D01*
X131020476Y-98732609D01*
X130897437Y-98609569D01*
X130897437Y-98609568D01*
X130575001Y-98287132D01*
X130575000Y-98287132D01*
X130252561Y-98609570D01*
X130129523Y-98732609D01*
X130129522Y-98732609D01*
X129869632Y-98992499D01*
X129757500Y-98992499D01*
X129757500Y-98972609D01*
X129742276Y-98935855D01*
X129714145Y-98907724D01*
X129677391Y-98892500D01*
X129637609Y-98892500D01*
X129600855Y-98907724D01*
X129572724Y-98935855D01*
X129557500Y-98972609D01*
X129425477Y-98972609D01*
X129185478Y-98732610D01*
X129185476Y-98732609D01*
X129062437Y-98609569D01*
X129062437Y-98609568D01*
X128740001Y-98287132D01*
X128740000Y-98287132D01*
X128398540Y-98628591D01*
X121885000Y-98628591D01*
X121885000Y-98010976D01*
X128090000Y-98010976D01*
X128090000Y-98139023D01*
X128114977Y-98264590D01*
X128114979Y-98264598D01*
X128163976Y-98382886D01*
X128163981Y-98382896D01*
X128186407Y-98416458D01*
X128186408Y-98416458D01*
X128527868Y-98075000D01*
X128527868Y-98074999D01*
X128507978Y-98055109D01*
X128640000Y-98055109D01*
X128640000Y-98094891D01*
X128655224Y-98131645D01*
X128683355Y-98159776D01*
X128720109Y-98175000D01*
X128759891Y-98175000D01*
X128796645Y-98159776D01*
X128824776Y-98131645D01*
X128840000Y-98094891D01*
X128840000Y-98074999D01*
X128952132Y-98074999D01*
X128952132Y-98075000D01*
X129274569Y-98397437D01*
X129274570Y-98397439D01*
X129657500Y-98780368D01*
X129657501Y-98780368D01*
X129979937Y-98457930D01*
X129979937Y-98457929D01*
X130102977Y-98334891D01*
X130362868Y-98075000D01*
X130342977Y-98055109D01*
X130475000Y-98055109D01*
X130475000Y-98094891D01*
X130490224Y-98131645D01*
X130518355Y-98159776D01*
X130555109Y-98175000D01*
X130594891Y-98175000D01*
X130631645Y-98159776D01*
X130659776Y-98131645D01*
X130675000Y-98094891D01*
X130675000Y-98074999D01*
X130787132Y-98074999D01*
X130787132Y-98075000D01*
X131109569Y-98397437D01*
X131109570Y-98397439D01*
X131492500Y-98780368D01*
X131492501Y-98780368D01*
X131814937Y-98457930D01*
X131814937Y-98457929D01*
X131937977Y-98334891D01*
X132197868Y-98075000D01*
X132177977Y-98055109D01*
X132310000Y-98055109D01*
X132310000Y-98094891D01*
X132325224Y-98131645D01*
X132353355Y-98159776D01*
X132390109Y-98175000D01*
X132429891Y-98175000D01*
X132466645Y-98159776D01*
X132494776Y-98131645D01*
X132510000Y-98094891D01*
X132510000Y-98074999D01*
X132622132Y-98074999D01*
X132622132Y-98075001D01*
X132963590Y-98416459D01*
X132963591Y-98416458D01*
X132986016Y-98382898D01*
X132986020Y-98382891D01*
X133035021Y-98264594D01*
X133035022Y-98264590D01*
X133059999Y-98139023D01*
X133060000Y-98139020D01*
X133060000Y-98010980D01*
X133059999Y-98010976D01*
X133035022Y-97885409D01*
X133035020Y-97885401D01*
X132986023Y-97767112D01*
X132963591Y-97733540D01*
X132622132Y-98074999D01*
X132510000Y-98074999D01*
X132510000Y-98055109D01*
X132494776Y-98018355D01*
X132466645Y-97990224D01*
X132429891Y-97975000D01*
X132390109Y-97975000D01*
X132353355Y-97990224D01*
X132325224Y-98018355D01*
X132310000Y-98055109D01*
X132177977Y-98055109D01*
X131937978Y-97815110D01*
X131937976Y-97815109D01*
X131814937Y-97692069D01*
X131814937Y-97692068D01*
X131492501Y-97369632D01*
X131492500Y-97369632D01*
X131170061Y-97692070D01*
X131047023Y-97815109D01*
X131047022Y-97815109D01*
X130787132Y-98074999D01*
X130675000Y-98074999D01*
X130675000Y-98055109D01*
X130659776Y-98018355D01*
X130631645Y-97990224D01*
X130594891Y-97975000D01*
X130555109Y-97975000D01*
X130518355Y-97990224D01*
X130490224Y-98018355D01*
X130475000Y-98055109D01*
X130342977Y-98055109D01*
X130102978Y-97815110D01*
X130102976Y-97815109D01*
X129979937Y-97692069D01*
X129979937Y-97692068D01*
X129657501Y-97369632D01*
X129657500Y-97369632D01*
X129335061Y-97692070D01*
X129212023Y-97815109D01*
X129212022Y-97815109D01*
X128952132Y-98074999D01*
X128840000Y-98074999D01*
X128840000Y-98055109D01*
X128824776Y-98018355D01*
X128796645Y-97990224D01*
X128759891Y-97975000D01*
X128720109Y-97975000D01*
X128683355Y-97990224D01*
X128655224Y-98018355D01*
X128640000Y-98055109D01*
X128507978Y-98055109D01*
X128186408Y-97733539D01*
X128186407Y-97733540D01*
X128163978Y-97767109D01*
X128114979Y-97885401D01*
X128114977Y-97885409D01*
X128090000Y-98010976D01*
X121885000Y-98010976D01*
X121885000Y-97521408D01*
X128398539Y-97521408D01*
X128740000Y-97862868D01*
X128740001Y-97862868D01*
X129062437Y-97540430D01*
X129062437Y-97540429D01*
X129185477Y-97417391D01*
X129445368Y-97157500D01*
X129425477Y-97137609D01*
X129557500Y-97137609D01*
X129557500Y-97177391D01*
X129572724Y-97214145D01*
X129600855Y-97242276D01*
X129637609Y-97257500D01*
X129677391Y-97257500D01*
X129714145Y-97242276D01*
X129742276Y-97214145D01*
X129757500Y-97177391D01*
X129757500Y-97157499D01*
X129869632Y-97157499D01*
X129869632Y-97157500D01*
X130192069Y-97479937D01*
X130192070Y-97479939D01*
X130575000Y-97862868D01*
X130575001Y-97862868D01*
X130897437Y-97540430D01*
X130897437Y-97540429D01*
X131020477Y-97417391D01*
X131280368Y-97157500D01*
X131260477Y-97137609D01*
X131392500Y-97137609D01*
X131392500Y-97177391D01*
X131407724Y-97214145D01*
X131435855Y-97242276D01*
X131472609Y-97257500D01*
X131512391Y-97257500D01*
X131549145Y-97242276D01*
X131577276Y-97214145D01*
X131592500Y-97177391D01*
X131592500Y-97157499D01*
X131704632Y-97157499D01*
X131704632Y-97157500D01*
X132027069Y-97479937D01*
X132027070Y-97479939D01*
X132410000Y-97862868D01*
X132410001Y-97862868D01*
X132751458Y-97521408D01*
X132751458Y-97521407D01*
X132717896Y-97498981D01*
X132717886Y-97498976D01*
X132599598Y-97449979D01*
X132599590Y-97449977D01*
X132474023Y-97425000D01*
X132345982Y-97425000D01*
X132273987Y-97439320D01*
X132204395Y-97433091D01*
X132149219Y-97390228D01*
X132125975Y-97324338D01*
X132128180Y-97293510D01*
X132142499Y-97221520D01*
X132142500Y-97221520D01*
X132142500Y-97093480D01*
X132142499Y-97093479D01*
X132128180Y-97021489D01*
X132134407Y-96951897D01*
X132177270Y-96896720D01*
X132243160Y-96873475D01*
X132273989Y-96875680D01*
X132345979Y-96889999D01*
X132345980Y-96890000D01*
X132474020Y-96890000D01*
X132474023Y-96889999D01*
X132599590Y-96865022D01*
X132599594Y-96865021D01*
X132717891Y-96816020D01*
X132717898Y-96816016D01*
X132751458Y-96793591D01*
X132751459Y-96793590D01*
X132410001Y-96452132D01*
X132410000Y-96452132D01*
X132087561Y-96774570D01*
X131964523Y-96897609D01*
X131964522Y-96897609D01*
X131704632Y-97157499D01*
X131592500Y-97157499D01*
X131592500Y-97137609D01*
X131577276Y-97100855D01*
X131549145Y-97072724D01*
X131512391Y-97057500D01*
X131472609Y-97057500D01*
X131435855Y-97072724D01*
X131407724Y-97100855D01*
X131392500Y-97137609D01*
X131260477Y-97137609D01*
X131020478Y-96897610D01*
X131020476Y-96897609D01*
X130897437Y-96774569D01*
X130897437Y-96774568D01*
X130575001Y-96452132D01*
X130575000Y-96452132D01*
X130252561Y-96774570D01*
X130129523Y-96897609D01*
X130129522Y-96897609D01*
X129869632Y-97157499D01*
X129757500Y-97157499D01*
X129757500Y-97137609D01*
X129742276Y-97100855D01*
X129714145Y-97072724D01*
X129677391Y-97057500D01*
X129637609Y-97057500D01*
X129600855Y-97072724D01*
X129572724Y-97100855D01*
X129557500Y-97137609D01*
X129425477Y-97137609D01*
X129185478Y-96897610D01*
X129185476Y-96897609D01*
X129062437Y-96774569D01*
X129062437Y-96774568D01*
X128740001Y-96452132D01*
X128740000Y-96452132D01*
X128398540Y-96793591D01*
X128432112Y-96816023D01*
X128550401Y-96865020D01*
X128550409Y-96865022D01*
X128675976Y-96889999D01*
X128675980Y-96890000D01*
X128804020Y-96890000D01*
X128804020Y-96889999D01*
X128876010Y-96875680D01*
X128945602Y-96881907D01*
X129000779Y-96924770D01*
X129024024Y-96990659D01*
X129021820Y-97021487D01*
X129007500Y-97093482D01*
X129007500Y-97221517D01*
X129021820Y-97293512D01*
X129015591Y-97363103D01*
X128972728Y-97418280D01*
X128906838Y-97441524D01*
X128876012Y-97439320D01*
X128804018Y-97425000D01*
X128675976Y-97425000D01*
X128550409Y-97449977D01*
X128550401Y-97449979D01*
X128432109Y-97498978D01*
X128398540Y-97521407D01*
X128398539Y-97521408D01*
X121885000Y-97521408D01*
X121885000Y-96175976D01*
X128090000Y-96175976D01*
X128090000Y-96304023D01*
X128114977Y-96429590D01*
X128114979Y-96429598D01*
X128163976Y-96547886D01*
X128163981Y-96547896D01*
X128186407Y-96581458D01*
X128186408Y-96581458D01*
X128527868Y-96240000D01*
X128527868Y-96239999D01*
X128507978Y-96220109D01*
X128640000Y-96220109D01*
X128640000Y-96259891D01*
X128655224Y-96296645D01*
X128683355Y-96324776D01*
X128720109Y-96340000D01*
X128759891Y-96340000D01*
X128796645Y-96324776D01*
X128824776Y-96296645D01*
X128840000Y-96259891D01*
X128840000Y-96239999D01*
X128952132Y-96239999D01*
X128952132Y-96240000D01*
X129274569Y-96562437D01*
X129274570Y-96562439D01*
X129657500Y-96945368D01*
X129657501Y-96945368D01*
X129979937Y-96622930D01*
X129979937Y-96622929D01*
X130102977Y-96499891D01*
X130362868Y-96240000D01*
X130342977Y-96220109D01*
X130475000Y-96220109D01*
X130475000Y-96259891D01*
X130490224Y-96296645D01*
X130518355Y-96324776D01*
X130555109Y-96340000D01*
X130594891Y-96340000D01*
X130631645Y-96324776D01*
X130659776Y-96296645D01*
X130675000Y-96259891D01*
X130675000Y-96239999D01*
X130787132Y-96239999D01*
X130787132Y-96240000D01*
X131109569Y-96562437D01*
X131109570Y-96562439D01*
X131492500Y-96945368D01*
X131492501Y-96945368D01*
X131814937Y-96622930D01*
X131814937Y-96622929D01*
X131937977Y-96499891D01*
X132197868Y-96240000D01*
X132177977Y-96220109D01*
X132310000Y-96220109D01*
X132310000Y-96259891D01*
X132325224Y-96296645D01*
X132353355Y-96324776D01*
X132390109Y-96340000D01*
X132429891Y-96340000D01*
X132466645Y-96324776D01*
X132494776Y-96296645D01*
X132510000Y-96259891D01*
X132510000Y-96239999D01*
X132622132Y-96239999D01*
X132622132Y-96240001D01*
X132963590Y-96581459D01*
X132963591Y-96581458D01*
X132986016Y-96547898D01*
X132986020Y-96547891D01*
X133035021Y-96429594D01*
X133035022Y-96429590D01*
X133059999Y-96304023D01*
X133060000Y-96304020D01*
X133060000Y-96175980D01*
X133059999Y-96175976D01*
X133035022Y-96050409D01*
X133035020Y-96050401D01*
X132986023Y-95932112D01*
X132963591Y-95898540D01*
X132622132Y-96239999D01*
X132510000Y-96239999D01*
X132510000Y-96220109D01*
X132494776Y-96183355D01*
X132466645Y-96155224D01*
X132429891Y-96140000D01*
X132390109Y-96140000D01*
X132353355Y-96155224D01*
X132325224Y-96183355D01*
X132310000Y-96220109D01*
X132177977Y-96220109D01*
X131937978Y-95980110D01*
X131937976Y-95980109D01*
X131814937Y-95857069D01*
X131814937Y-95857068D01*
X131492501Y-95534632D01*
X131492500Y-95534632D01*
X131170061Y-95857070D01*
X131047023Y-95980109D01*
X131047022Y-95980109D01*
X130787132Y-96239999D01*
X130675000Y-96239999D01*
X130675000Y-96220109D01*
X130659776Y-96183355D01*
X130631645Y-96155224D01*
X130594891Y-96140000D01*
X130555109Y-96140000D01*
X130518355Y-96155224D01*
X130490224Y-96183355D01*
X130475000Y-96220109D01*
X130342977Y-96220109D01*
X130102978Y-95980110D01*
X130102976Y-95980109D01*
X129979937Y-95857069D01*
X129979937Y-95857068D01*
X129657501Y-95534632D01*
X129657500Y-95534632D01*
X129335061Y-95857070D01*
X129212023Y-95980109D01*
X129212022Y-95980109D01*
X128952132Y-96239999D01*
X128840000Y-96239999D01*
X128840000Y-96220109D01*
X128824776Y-96183355D01*
X128796645Y-96155224D01*
X128759891Y-96140000D01*
X128720109Y-96140000D01*
X128683355Y-96155224D01*
X128655224Y-96183355D01*
X128640000Y-96220109D01*
X128507978Y-96220109D01*
X128186408Y-95898539D01*
X128186407Y-95898540D01*
X128163978Y-95932109D01*
X128114979Y-96050401D01*
X128114977Y-96050409D01*
X128090000Y-96175976D01*
X121885000Y-96175976D01*
X121885000Y-95686408D01*
X128398539Y-95686408D01*
X128740000Y-96027868D01*
X128740001Y-96027868D01*
X129062437Y-95705430D01*
X129062437Y-95705429D01*
X129185477Y-95582391D01*
X129445368Y-95322500D01*
X129445368Y-95322499D01*
X129425478Y-95302609D01*
X129557500Y-95302609D01*
X129557500Y-95342391D01*
X129572724Y-95379145D01*
X129600855Y-95407276D01*
X129637609Y-95422500D01*
X129677391Y-95422500D01*
X129714145Y-95407276D01*
X129742276Y-95379145D01*
X129757500Y-95342391D01*
X129757500Y-95322499D01*
X129869632Y-95322499D01*
X129869632Y-95322500D01*
X130192069Y-95644937D01*
X130192070Y-95644939D01*
X130575000Y-96027868D01*
X130575001Y-96027868D01*
X130897437Y-95705430D01*
X130897437Y-95705429D01*
X131020477Y-95582391D01*
X131280368Y-95322500D01*
X131280368Y-95322499D01*
X131260478Y-95302609D01*
X131392500Y-95302609D01*
X131392500Y-95342391D01*
X131407724Y-95379145D01*
X131435855Y-95407276D01*
X131472609Y-95422500D01*
X131512391Y-95422500D01*
X131549145Y-95407276D01*
X131577276Y-95379145D01*
X131592500Y-95342391D01*
X131592500Y-95322499D01*
X131704632Y-95322499D01*
X131704632Y-95322500D01*
X132027069Y-95644937D01*
X132027070Y-95644939D01*
X132410000Y-96027868D01*
X132410001Y-96027868D01*
X132751458Y-95686408D01*
X132751458Y-95686407D01*
X132717896Y-95663981D01*
X132717886Y-95663976D01*
X132599598Y-95614979D01*
X132599590Y-95614977D01*
X132474023Y-95590000D01*
X132345982Y-95590000D01*
X132273987Y-95604320D01*
X132204395Y-95598091D01*
X132149219Y-95555228D01*
X132125975Y-95489338D01*
X132128180Y-95458510D01*
X132142499Y-95386520D01*
X132142500Y-95386520D01*
X132142500Y-95258480D01*
X132142499Y-95258476D01*
X132117522Y-95132909D01*
X132117520Y-95132901D01*
X132068523Y-95014612D01*
X132046091Y-94981040D01*
X131704632Y-95322499D01*
X131592500Y-95322499D01*
X131592500Y-95302609D01*
X131577276Y-95265855D01*
X131549145Y-95237724D01*
X131512391Y-95222500D01*
X131472609Y-95222500D01*
X131435855Y-95237724D01*
X131407724Y-95265855D01*
X131392500Y-95302609D01*
X131260478Y-95302609D01*
X130938908Y-94981039D01*
X130938907Y-94981040D01*
X130916478Y-95014609D01*
X130867479Y-95132901D01*
X130867477Y-95132909D01*
X130842500Y-95258476D01*
X130842500Y-95386517D01*
X130856820Y-95458512D01*
X130850591Y-95528103D01*
X130807728Y-95583280D01*
X130741838Y-95606524D01*
X130711012Y-95604320D01*
X130639018Y-95590000D01*
X130510982Y-95590000D01*
X130438987Y-95604320D01*
X130369395Y-95598091D01*
X130314219Y-95555228D01*
X130290975Y-95489338D01*
X130293180Y-95458510D01*
X130307499Y-95386520D01*
X130307500Y-95386520D01*
X130307500Y-95258480D01*
X130307499Y-95258476D01*
X130282522Y-95132909D01*
X130282520Y-95132901D01*
X130233523Y-95014612D01*
X130211091Y-94981040D01*
X129869632Y-95322499D01*
X129757500Y-95322499D01*
X129757500Y-95302609D01*
X129742276Y-95265855D01*
X129714145Y-95237724D01*
X129677391Y-95222500D01*
X129637609Y-95222500D01*
X129600855Y-95237724D01*
X129572724Y-95265855D01*
X129557500Y-95302609D01*
X129425478Y-95302609D01*
X129103908Y-94981039D01*
X129103907Y-94981040D01*
X129081478Y-95014609D01*
X129032479Y-95132901D01*
X129032477Y-95132909D01*
X129007500Y-95258476D01*
X129007500Y-95386517D01*
X129021820Y-95458512D01*
X129015591Y-95528103D01*
X128972728Y-95583280D01*
X128906838Y-95606524D01*
X128876012Y-95604320D01*
X128804018Y-95590000D01*
X128675976Y-95590000D01*
X128550409Y-95614977D01*
X128550401Y-95614979D01*
X128432109Y-95663978D01*
X128398540Y-95686407D01*
X128398539Y-95686408D01*
X121885000Y-95686408D01*
X121885000Y-94768908D01*
X129316039Y-94768908D01*
X129657500Y-95110368D01*
X129657501Y-95110368D01*
X129998958Y-94768908D01*
X131151039Y-94768908D01*
X131492500Y-95110368D01*
X131492501Y-95110368D01*
X131833958Y-94768908D01*
X131833958Y-94768907D01*
X131800396Y-94746481D01*
X131800386Y-94746476D01*
X131682098Y-94697479D01*
X131682090Y-94697477D01*
X131556523Y-94672500D01*
X131428476Y-94672500D01*
X131302909Y-94697477D01*
X131302901Y-94697479D01*
X131184609Y-94746478D01*
X131151040Y-94768907D01*
X131151039Y-94768908D01*
X129998958Y-94768908D01*
X129998958Y-94768907D01*
X129965396Y-94746481D01*
X129965386Y-94746476D01*
X129847098Y-94697479D01*
X129847090Y-94697477D01*
X129721523Y-94672500D01*
X129593476Y-94672500D01*
X129467909Y-94697477D01*
X129467901Y-94697479D01*
X129349609Y-94746478D01*
X129316040Y-94768907D01*
X129316039Y-94768908D01*
X121885000Y-94768908D01*
X121885000Y-87157500D01*
X115585000Y-87157500D01*
X115585000Y-105157500D01*
X98674946Y-105157500D01*
X101505277Y-102327169D01*
X101576466Y-102220626D01*
X101596857Y-102171398D01*
X101605513Y-102150500D01*
X101605513Y-102150499D01*
X101615867Y-102125502D01*
X101625501Y-102102244D01*
X101643792Y-102010292D01*
X101650500Y-101976571D01*
X101650500Y-77320808D01*
X101670185Y-77253769D01*
X101686819Y-77233127D01*
X104233127Y-74686819D01*
X104294450Y-74653334D01*
X104320808Y-74650500D01*
X131495065Y-74650500D01*
X131562104Y-74670185D01*
X131563909Y-74671366D01*
X131620821Y-74709394D01*
X131620823Y-74709395D01*
X131620827Y-74709397D01*
X131766498Y-74769735D01*
X131766503Y-74769737D01*
X131921153Y-74800499D01*
X131921156Y-74800500D01*
X131921158Y-74800500D01*
X132078844Y-74800500D01*
X132078845Y-74800499D01*
X132233497Y-74769737D01*
X132379179Y-74709394D01*
X132510289Y-74621789D01*
X132621789Y-74510289D01*
X132709394Y-74379179D01*
X132769737Y-74233497D01*
X132800500Y-74078842D01*
X132800500Y-73921158D01*
X132800500Y-73921155D01*
X132800499Y-73921153D01*
X132769738Y-73766510D01*
X132769737Y-73766503D01*
X132769735Y-73766498D01*
X132709397Y-73620827D01*
X132709390Y-73620814D01*
X132621789Y-73489711D01*
X132621786Y-73489707D01*
X132510292Y-73378213D01*
X132510288Y-73378210D01*
X132379185Y-73290609D01*
X132379172Y-73290602D01*
X132233501Y-73230264D01*
X132233489Y-73230261D01*
X132078845Y-73199500D01*
X132078842Y-73199500D01*
X131921158Y-73199500D01*
X131921155Y-73199500D01*
X131766510Y-73230261D01*
X131766498Y-73230264D01*
X131620827Y-73290602D01*
X131620820Y-73290606D01*
X131591928Y-73309911D01*
X131563955Y-73328602D01*
X131497279Y-73349480D01*
X131495065Y-73349500D01*
X103935929Y-73349500D01*
X103810261Y-73374497D01*
X103810255Y-73374499D01*
X103691874Y-73423534D01*
X103585326Y-73494726D01*
X100494724Y-76585328D01*
X100455184Y-76644504D01*
X100455185Y-76644505D01*
X100423534Y-76691874D01*
X100374499Y-76810255D01*
X100374497Y-76810261D01*
X100349500Y-76935928D01*
X100349500Y-101591691D01*
X100329815Y-101658730D01*
X100313181Y-101679372D01*
X87407103Y-114585449D01*
X87345780Y-114618934D01*
X87281109Y-114615701D01*
X87270375Y-114612213D01*
X87054361Y-114578000D01*
X87054356Y-114578000D01*
X86835644Y-114578000D01*
X86835639Y-114578000D01*
X86619623Y-114612214D01*
X86411619Y-114679797D01*
X86411616Y-114679798D01*
X86216739Y-114779095D01*
X86039806Y-114907642D01*
X85885142Y-115062306D01*
X85756595Y-115239239D01*
X85657298Y-115434116D01*
X85657297Y-115434119D01*
X85589714Y-115642123D01*
X85555500Y-115858138D01*
X80710500Y-115858138D01*
X80710500Y-99368872D01*
X85999500Y-99368872D01*
X85999500Y-99631127D01*
X86026123Y-99833339D01*
X86033730Y-99891116D01*
X86101602Y-100144418D01*
X86101605Y-100144428D01*
X86201953Y-100386690D01*
X86201958Y-100386700D01*
X86333075Y-100613803D01*
X86492718Y-100821851D01*
X86492726Y-100821860D01*
X86678140Y-101007274D01*
X86678148Y-101007281D01*
X86886196Y-101166924D01*
X87113299Y-101298041D01*
X87113309Y-101298046D01*
X87355571Y-101398394D01*
X87355581Y-101398398D01*
X87608884Y-101466270D01*
X87868880Y-101500500D01*
X87868887Y-101500500D01*
X88131113Y-101500500D01*
X88131120Y-101500500D01*
X88391116Y-101466270D01*
X88644419Y-101398398D01*
X88886697Y-101298043D01*
X89113803Y-101166924D01*
X89321851Y-101007282D01*
X89321855Y-101007277D01*
X89321860Y-101007274D01*
X89507274Y-100821860D01*
X89507277Y-100821855D01*
X89507282Y-100821851D01*
X89666924Y-100613803D01*
X89798043Y-100386697D01*
X89898398Y-100144419D01*
X89966270Y-99891116D01*
X90000500Y-99631120D01*
X90000500Y-99368880D01*
X89966270Y-99108884D01*
X89898398Y-98855581D01*
X89847462Y-98732610D01*
X89798046Y-98613309D01*
X89798041Y-98613299D01*
X89666924Y-98386196D01*
X89507281Y-98178148D01*
X89507274Y-98178140D01*
X89321860Y-97992726D01*
X89321851Y-97992718D01*
X89113803Y-97833075D01*
X88886700Y-97701958D01*
X88886690Y-97701953D01*
X88644428Y-97601605D01*
X88644421Y-97601603D01*
X88644419Y-97601602D01*
X88391116Y-97533730D01*
X88333339Y-97526123D01*
X88131127Y-97499500D01*
X88131120Y-97499500D01*
X87868880Y-97499500D01*
X87868872Y-97499500D01*
X87637772Y-97529926D01*
X87608884Y-97533730D01*
X87355581Y-97601602D01*
X87355571Y-97601605D01*
X87113309Y-97701953D01*
X87113299Y-97701958D01*
X86886196Y-97833075D01*
X86678148Y-97992718D01*
X86492718Y-98178148D01*
X86333075Y-98386196D01*
X86201958Y-98613299D01*
X86201953Y-98613309D01*
X86101605Y-98855571D01*
X86101602Y-98855581D01*
X86042200Y-99077276D01*
X86033730Y-99108885D01*
X85999500Y-99368872D01*
X80710500Y-99368872D01*
X80710500Y-91886079D01*
X80681659Y-91741092D01*
X80681658Y-91741091D01*
X80681658Y-91741087D01*
X80681656Y-91741082D01*
X80625087Y-91604511D01*
X80625080Y-91604498D01*
X80542952Y-91481585D01*
X80542951Y-91481584D01*
X80438416Y-91377049D01*
X76516819Y-87455451D01*
X76483334Y-87394128D01*
X76480500Y-87367770D01*
X76480500Y-78068557D01*
X76500185Y-78001518D01*
X76531616Y-77968238D01*
X76547252Y-77956879D01*
X76686879Y-77817252D01*
X76686881Y-77817248D01*
X76686884Y-77817246D01*
X76802941Y-77657505D01*
X76802942Y-77657504D01*
X76802944Y-77657501D01*
X76889517Y-77487593D01*
X76937490Y-77436800D01*
X77005311Y-77420005D01*
X77071446Y-77442542D01*
X77110482Y-77487593D01*
X77183614Y-77631120D01*
X77197058Y-77657505D01*
X77313115Y-77817246D01*
X77452753Y-77956884D01*
X77602234Y-78065486D01*
X77612499Y-78072944D01*
X77788439Y-78162591D01*
X77895417Y-78197350D01*
X77976236Y-78223610D01*
X78171264Y-78254500D01*
X78171269Y-78254500D01*
X78368736Y-78254500D01*
X78563763Y-78223610D01*
X78751561Y-78162591D01*
X78927501Y-78072944D01*
X79033288Y-77996086D01*
X79087246Y-77956884D01*
X79087248Y-77956881D01*
X79087252Y-77956879D01*
X79226879Y-77817252D01*
X79226881Y-77817248D01*
X79226884Y-77817246D01*
X79342941Y-77657505D01*
X79342942Y-77657504D01*
X79342944Y-77657501D01*
X79429517Y-77487593D01*
X79477490Y-77436800D01*
X79545311Y-77420005D01*
X79611446Y-77442542D01*
X79650482Y-77487593D01*
X79723614Y-77631120D01*
X79737058Y-77657505D01*
X79853115Y-77817246D01*
X79992753Y-77956884D01*
X80142234Y-78065486D01*
X80152499Y-78072944D01*
X80328439Y-78162591D01*
X80435417Y-78197350D01*
X80516236Y-78223610D01*
X80711264Y-78254500D01*
X80711269Y-78254500D01*
X80908736Y-78254500D01*
X81103763Y-78223610D01*
X81291561Y-78162591D01*
X81467501Y-78072944D01*
X81573288Y-77996086D01*
X81627246Y-77956884D01*
X81627248Y-77956881D01*
X81627252Y-77956879D01*
X81766879Y-77817252D01*
X81766881Y-77817248D01*
X81766884Y-77817246D01*
X81818728Y-77745887D01*
X81882944Y-77657501D01*
X81972591Y-77481561D01*
X82009206Y-77368872D01*
X85999500Y-77368872D01*
X85999500Y-77631127D01*
X86021977Y-77801844D01*
X86033730Y-77891116D01*
X86101602Y-78144418D01*
X86101605Y-78144428D01*
X86201953Y-78386690D01*
X86201958Y-78386700D01*
X86333075Y-78613803D01*
X86492718Y-78821851D01*
X86492726Y-78821860D01*
X86678140Y-79007274D01*
X86678148Y-79007281D01*
X86886196Y-79166924D01*
X87113299Y-79298041D01*
X87113309Y-79298046D01*
X87355571Y-79398394D01*
X87355581Y-79398398D01*
X87608884Y-79466270D01*
X87868880Y-79500500D01*
X87868887Y-79500500D01*
X88131113Y-79500500D01*
X88131120Y-79500500D01*
X88391116Y-79466270D01*
X88644419Y-79398398D01*
X88886697Y-79298043D01*
X89113803Y-79166924D01*
X89321851Y-79007282D01*
X89321855Y-79007277D01*
X89321860Y-79007274D01*
X89507274Y-78821860D01*
X89507277Y-78821855D01*
X89507282Y-78821851D01*
X89666924Y-78613803D01*
X89798043Y-78386697D01*
X89898398Y-78144419D01*
X89966270Y-77891116D01*
X90000500Y-77631120D01*
X90000500Y-77368880D01*
X89966270Y-77108884D01*
X89898398Y-76855581D01*
X89879624Y-76810256D01*
X89798046Y-76613309D01*
X89798041Y-76613299D01*
X89666924Y-76386196D01*
X89507281Y-76178148D01*
X89507274Y-76178140D01*
X89321860Y-75992726D01*
X89321851Y-75992718D01*
X89113803Y-75833075D01*
X88886700Y-75701958D01*
X88886690Y-75701953D01*
X88644428Y-75601605D01*
X88644421Y-75601603D01*
X88644419Y-75601602D01*
X88391116Y-75533730D01*
X88333339Y-75526123D01*
X88131127Y-75499500D01*
X88131120Y-75499500D01*
X87868880Y-75499500D01*
X87868872Y-75499500D01*
X87637772Y-75529926D01*
X87608884Y-75533730D01*
X87355581Y-75601602D01*
X87355571Y-75601605D01*
X87113309Y-75701953D01*
X87113299Y-75701958D01*
X86886196Y-75833075D01*
X86678148Y-75992718D01*
X86492718Y-76178148D01*
X86333075Y-76386196D01*
X86201958Y-76613299D01*
X86201953Y-76613309D01*
X86101605Y-76855571D01*
X86101602Y-76855581D01*
X86036451Y-77098731D01*
X86033730Y-77108885D01*
X85999500Y-77368872D01*
X82009206Y-77368872D01*
X82033610Y-77293763D01*
X82046113Y-77214823D01*
X82064500Y-77098736D01*
X82064500Y-76901263D01*
X82033610Y-76706236D01*
X81977671Y-76534075D01*
X81972591Y-76518439D01*
X81882944Y-76342499D01*
X81871681Y-76326997D01*
X81766884Y-76182753D01*
X81627246Y-76043115D01*
X81467504Y-75927058D01*
X81467503Y-75927057D01*
X81467501Y-75927056D01*
X81291561Y-75837409D01*
X81291558Y-75837408D01*
X81103763Y-75776389D01*
X80908736Y-75745500D01*
X80908731Y-75745500D01*
X80711269Y-75745500D01*
X80711264Y-75745500D01*
X80516236Y-75776389D01*
X80328441Y-75837408D01*
X80152495Y-75927058D01*
X79992753Y-76043115D01*
X79853115Y-76182753D01*
X79737058Y-76342495D01*
X79737056Y-76342499D01*
X79656805Y-76500000D01*
X79650485Y-76512403D01*
X79602510Y-76563199D01*
X79534689Y-76579994D01*
X79468554Y-76557456D01*
X79429515Y-76512403D01*
X79342944Y-76342499D01*
X79331681Y-76326997D01*
X79226884Y-76182753D01*
X79087246Y-76043115D01*
X78927504Y-75927058D01*
X78927503Y-75927057D01*
X78927501Y-75927056D01*
X78751561Y-75837409D01*
X78751558Y-75837408D01*
X78563763Y-75776389D01*
X78368736Y-75745500D01*
X78368731Y-75745500D01*
X78171269Y-75745500D01*
X78171264Y-75745500D01*
X77976236Y-75776389D01*
X77788441Y-75837408D01*
X77612495Y-75927058D01*
X77452753Y-76043115D01*
X77313115Y-76182753D01*
X77197058Y-76342495D01*
X77197056Y-76342499D01*
X77116805Y-76500000D01*
X77110485Y-76512403D01*
X77062510Y-76563199D01*
X76994689Y-76579994D01*
X76928554Y-76557456D01*
X76889515Y-76512403D01*
X76802944Y-76342499D01*
X76791681Y-76326997D01*
X76686884Y-76182753D01*
X76547246Y-76043115D01*
X76387504Y-75927058D01*
X76387503Y-75927057D01*
X76387501Y-75927056D01*
X76211561Y-75837409D01*
X76211558Y-75837408D01*
X76023763Y-75776389D01*
X75828736Y-75745500D01*
X75828731Y-75745500D01*
X75631269Y-75745500D01*
X75631264Y-75745500D01*
X75436236Y-75776389D01*
X75248441Y-75837408D01*
X75072495Y-75927058D01*
X74912753Y-76043115D01*
X74773115Y-76182753D01*
X74668318Y-76326997D01*
X74612989Y-76369663D01*
X74543375Y-76375642D01*
X74481580Y-76343037D01*
X74447223Y-76282198D01*
X74444000Y-76254112D01*
X74444000Y-76198172D01*
X74443999Y-76198155D01*
X74437598Y-76138627D01*
X74437596Y-76138620D01*
X74387354Y-76003913D01*
X74387350Y-76003906D01*
X74301190Y-75888812D01*
X74301187Y-75888809D01*
X74186093Y-75802649D01*
X74186086Y-75802645D01*
X74051379Y-75752403D01*
X74051372Y-75752401D01*
X73991844Y-75746000D01*
X73440000Y-75746000D01*
X73440000Y-76566988D01*
X73382993Y-76534075D01*
X73255826Y-76500000D01*
X73124174Y-76500000D01*
X72997007Y-76534075D01*
X72940000Y-76566988D01*
X72940000Y-75746000D01*
X72388155Y-75746000D01*
X72328627Y-75752401D01*
X72328620Y-75752403D01*
X72193913Y-75802645D01*
X72193906Y-75802649D01*
X72078812Y-75888809D01*
X72078809Y-75888812D01*
X71992649Y-76003906D01*
X71992645Y-76003913D01*
X71942403Y-76138620D01*
X71942401Y-76138627D01*
X71936000Y-76198155D01*
X67522633Y-76198155D01*
X67507282Y-76178149D01*
X67507281Y-76178148D01*
X67507274Y-76178140D01*
X67321860Y-75992726D01*
X67321851Y-75992718D01*
X67113803Y-75833075D01*
X66886700Y-75701958D01*
X66886690Y-75701953D01*
X66644428Y-75601605D01*
X66644421Y-75601603D01*
X66644419Y-75601602D01*
X66391116Y-75533730D01*
X66333339Y-75526123D01*
X66131127Y-75499500D01*
X66131120Y-75499500D01*
X65868880Y-75499500D01*
X65868872Y-75499500D01*
X65637772Y-75529926D01*
X65608884Y-75533730D01*
X65355581Y-75601602D01*
X65355571Y-75601605D01*
X65113309Y-75701953D01*
X65113299Y-75701958D01*
X64886196Y-75833075D01*
X64678148Y-75992718D01*
X64492718Y-76178148D01*
X64333075Y-76386196D01*
X64201958Y-76613299D01*
X64201953Y-76613309D01*
X64101605Y-76855571D01*
X64101602Y-76855581D01*
X64036451Y-77098731D01*
X64033730Y-77108885D01*
X63999500Y-77368872D01*
X50250500Y-77368872D01*
X50250500Y-66921153D01*
X94199500Y-66921153D01*
X94199500Y-67078846D01*
X94230261Y-67233489D01*
X94230264Y-67233501D01*
X94290602Y-67379172D01*
X94290609Y-67379185D01*
X94378210Y-67510288D01*
X94378213Y-67510292D01*
X94489707Y-67621786D01*
X94489711Y-67621789D01*
X94620814Y-67709390D01*
X94620827Y-67709397D01*
X94766498Y-67769735D01*
X94766503Y-67769737D01*
X94921153Y-67800499D01*
X94921156Y-67800500D01*
X94921158Y-67800500D01*
X95078844Y-67800500D01*
X95078845Y-67800499D01*
X95233497Y-67769737D01*
X95379179Y-67709394D01*
X95436044Y-67671397D01*
X95502721Y-67650520D01*
X95504935Y-67650500D01*
X138679192Y-67650500D01*
X138746231Y-67670185D01*
X138766873Y-67686819D01*
X152313181Y-81233127D01*
X152346666Y-81294450D01*
X152349500Y-81320808D01*
X152349500Y-92179192D01*
X152329815Y-92246231D01*
X152313181Y-92266873D01*
X143766873Y-100813181D01*
X143705550Y-100846666D01*
X143679192Y-100849500D01*
X133504935Y-100849500D01*
X133437896Y-100829815D01*
X133436090Y-100828633D01*
X133379179Y-100790606D01*
X133379172Y-100790602D01*
X133233501Y-100730264D01*
X133233489Y-100730261D01*
X133078845Y-100699500D01*
X133078842Y-100699500D01*
X132921158Y-100699500D01*
X132921155Y-100699500D01*
X132766510Y-100730261D01*
X132766498Y-100730264D01*
X132620827Y-100790602D01*
X132620814Y-100790609D01*
X132489711Y-100878210D01*
X132489707Y-100878213D01*
X132378213Y-100989707D01*
X132378210Y-100989711D01*
X132290609Y-101120814D01*
X132290602Y-101120827D01*
X132230264Y-101266498D01*
X132230261Y-101266510D01*
X132199500Y-101421153D01*
X132199500Y-101578846D01*
X132230261Y-101733489D01*
X132230264Y-101733501D01*
X132290602Y-101879172D01*
X132290609Y-101879185D01*
X132378210Y-102010288D01*
X132378213Y-102010292D01*
X132489707Y-102121786D01*
X132489711Y-102121789D01*
X132620814Y-102209390D01*
X132620827Y-102209397D01*
X132766498Y-102269735D01*
X132766503Y-102269737D01*
X132921153Y-102300499D01*
X132921156Y-102300500D01*
X132921158Y-102300500D01*
X133078844Y-102300500D01*
X133078845Y-102300499D01*
X133233497Y-102269737D01*
X133379179Y-102209394D01*
X133436044Y-102171397D01*
X133502721Y-102150520D01*
X133504935Y-102150500D01*
X144064071Y-102150500D01*
X144148615Y-102133682D01*
X144189744Y-102125501D01*
X144308127Y-102076465D01*
X144414669Y-102005277D01*
X145005277Y-101414669D01*
X153505276Y-92914670D01*
X153576465Y-92808127D01*
X153625501Y-92689744D01*
X153638363Y-92625084D01*
X153650500Y-92564069D01*
X153650500Y-80935931D01*
X153650500Y-80935928D01*
X153625502Y-80810261D01*
X153625501Y-80810260D01*
X153625501Y-80810256D01*
X153576465Y-80691873D01*
X153505277Y-80585331D01*
X153505275Y-80585329D01*
X153505273Y-80585326D01*
X139414673Y-66494726D01*
X139414669Y-66494723D01*
X139308127Y-66423535D01*
X139189744Y-66374499D01*
X139189738Y-66374497D01*
X139064071Y-66349500D01*
X139064069Y-66349500D01*
X135642214Y-66349500D01*
X135575175Y-66329815D01*
X135529420Y-66277011D01*
X135519476Y-66207853D01*
X135548501Y-66144297D01*
X135554533Y-66137819D01*
X135705786Y-65986566D01*
X135840217Y-65801538D01*
X135944048Y-65597758D01*
X136014722Y-65380245D01*
X136050500Y-65154354D01*
X136050500Y-64925646D01*
X136014722Y-64699755D01*
X136014721Y-64699751D01*
X136014721Y-64699750D01*
X135944049Y-64482244D01*
X135867169Y-64331359D01*
X135840217Y-64278462D01*
X135705786Y-64093434D01*
X135544066Y-63931714D01*
X135459134Y-63870007D01*
X135416470Y-63814678D01*
X135410491Y-63745064D01*
X135443097Y-63683269D01*
X135459137Y-63669371D01*
X135543739Y-63607905D01*
X135705402Y-63446242D01*
X135839788Y-63261276D01*
X135943582Y-63057570D01*
X136014234Y-62840128D01*
X136028509Y-62750000D01*
X135040748Y-62750000D01*
X135062518Y-62712292D01*
X135100000Y-62572409D01*
X135100000Y-62427591D01*
X135062518Y-62287708D01*
X135040748Y-62250000D01*
X136028509Y-62250000D01*
X136014234Y-62159871D01*
X135943582Y-61942429D01*
X135839788Y-61738723D01*
X135706988Y-61555940D01*
X135683508Y-61490133D01*
X135699333Y-61422079D01*
X135749439Y-61373384D01*
X135763966Y-61366875D01*
X135792331Y-61356296D01*
X135907546Y-61270046D01*
X135993796Y-61154831D01*
X136044091Y-61019983D01*
X136050500Y-60960373D01*
X136050499Y-58959628D01*
X136044091Y-58900017D01*
X135993796Y-58765169D01*
X135993795Y-58765168D01*
X135993793Y-58765164D01*
X135907547Y-58649955D01*
X135907544Y-58649952D01*
X135792335Y-58563706D01*
X135792328Y-58563702D01*
X135657482Y-58513408D01*
X135657483Y-58513408D01*
X135597883Y-58507001D01*
X135597881Y-58507000D01*
X135597873Y-58507000D01*
X135597864Y-58507000D01*
X133502129Y-58507000D01*
X133502123Y-58507001D01*
X133442516Y-58513408D01*
X133307671Y-58563702D01*
X133307664Y-58563706D01*
X133192455Y-58649952D01*
X133192452Y-58649955D01*
X133106206Y-58765164D01*
X133106202Y-58765171D01*
X133055908Y-58900017D01*
X133049501Y-58959616D01*
X133049501Y-58959623D01*
X133049500Y-58959635D01*
X133049500Y-60960370D01*
X133049501Y-60960376D01*
X133055908Y-61019983D01*
X133106202Y-61154828D01*
X133106206Y-61154835D01*
X133192452Y-61270044D01*
X133192455Y-61270047D01*
X133307664Y-61356293D01*
X133307667Y-61356295D01*
X133307668Y-61356295D01*
X133307669Y-61356296D01*
X133336025Y-61366872D01*
X133391958Y-61408742D01*
X133416376Y-61474206D01*
X133401525Y-61542479D01*
X133393010Y-61555939D01*
X133260213Y-61738719D01*
X133156417Y-61942429D01*
X133085765Y-62159871D01*
X133071491Y-62250000D01*
X134059252Y-62250000D01*
X134037482Y-62287708D01*
X134000000Y-62427591D01*
X134000000Y-62572409D01*
X134037482Y-62712292D01*
X134059252Y-62750000D01*
X133071491Y-62750000D01*
X133085765Y-62840128D01*
X133156417Y-63057570D01*
X133260211Y-63261276D01*
X133394597Y-63446242D01*
X133556257Y-63607902D01*
X133556263Y-63607907D01*
X133640863Y-63669372D01*
X133683529Y-63724701D01*
X133689508Y-63794315D01*
X133656903Y-63856110D01*
X133640864Y-63870007D01*
X133555940Y-63931709D01*
X133555931Y-63931716D01*
X133394216Y-64093431D01*
X133394216Y-64093432D01*
X133394214Y-64093434D01*
X133336480Y-64172896D01*
X133259783Y-64278461D01*
X133155950Y-64482244D01*
X133085278Y-64699750D01*
X133085278Y-64699753D01*
X133049500Y-64925646D01*
X133049500Y-65154353D01*
X133085278Y-65380246D01*
X133085278Y-65380249D01*
X133155950Y-65597755D01*
X133155952Y-65597758D01*
X133259783Y-65801538D01*
X133394214Y-65986566D01*
X133394216Y-65986568D01*
X133545467Y-66137819D01*
X133578952Y-66199142D01*
X133573968Y-66268834D01*
X133532096Y-66324767D01*
X133466632Y-66349184D01*
X133457786Y-66349500D01*
X95504935Y-66349500D01*
X95437896Y-66329815D01*
X95436090Y-66328633D01*
X95379179Y-66290606D01*
X95379172Y-66290602D01*
X95233501Y-66230264D01*
X95233489Y-66230261D01*
X95078845Y-66199500D01*
X95078842Y-66199500D01*
X94921158Y-66199500D01*
X94921155Y-66199500D01*
X94766510Y-66230261D01*
X94766498Y-66230264D01*
X94620827Y-66290602D01*
X94620814Y-66290609D01*
X94489711Y-66378210D01*
X94489707Y-66378213D01*
X94378213Y-66489707D01*
X94378210Y-66489711D01*
X94290609Y-66620814D01*
X94290602Y-66620827D01*
X94230264Y-66766498D01*
X94230261Y-66766510D01*
X94199500Y-66921153D01*
X50250500Y-66921153D01*
X50250500Y-63547682D01*
X58450000Y-63547682D01*
X58450000Y-63752317D01*
X58482009Y-63954417D01*
X58545244Y-64149031D01*
X58638141Y-64331350D01*
X58638147Y-64331359D01*
X58670523Y-64375921D01*
X58670524Y-64375922D01*
X59230294Y-63816151D01*
X59242141Y-63860362D01*
X59313891Y-63984638D01*
X59415362Y-64086109D01*
X59539638Y-64157859D01*
X59583847Y-64169704D01*
X59024076Y-64729474D01*
X59068650Y-64761859D01*
X59250968Y-64854755D01*
X59445582Y-64917990D01*
X59647683Y-64950000D01*
X59852317Y-64950000D01*
X60054417Y-64917990D01*
X60249031Y-64854755D01*
X60431349Y-64761859D01*
X60475921Y-64729474D01*
X59916152Y-64169705D01*
X59960362Y-64157859D01*
X60084638Y-64086109D01*
X60186109Y-63984638D01*
X60257859Y-63860362D01*
X60269705Y-63816152D01*
X60829474Y-64375921D01*
X60861859Y-64331349D01*
X60954755Y-64149031D01*
X61017990Y-63954417D01*
X61050000Y-63752317D01*
X61050000Y-63547682D01*
X61017990Y-63345582D01*
X60954755Y-63150968D01*
X60861859Y-62968650D01*
X60829474Y-62924077D01*
X60829474Y-62924076D01*
X60269704Y-63483846D01*
X60257859Y-63439638D01*
X60186109Y-63315362D01*
X60084638Y-63213891D01*
X59960362Y-63142141D01*
X59916151Y-63130294D01*
X60475922Y-62570524D01*
X60475921Y-62570523D01*
X60431359Y-62538147D01*
X60431350Y-62538141D01*
X60249031Y-62445244D01*
X60054417Y-62382009D01*
X59852317Y-62350000D01*
X59647683Y-62350000D01*
X59445582Y-62382009D01*
X59250968Y-62445244D01*
X59068644Y-62538143D01*
X59024077Y-62570523D01*
X59024077Y-62570524D01*
X59583848Y-63130294D01*
X59539638Y-63142141D01*
X59415362Y-63213891D01*
X59313891Y-63315362D01*
X59242141Y-63439638D01*
X59230294Y-63483847D01*
X58670524Y-62924077D01*
X58670523Y-62924077D01*
X58638143Y-62968644D01*
X58545244Y-63150968D01*
X58482009Y-63345582D01*
X58450000Y-63547682D01*
X50250500Y-63547682D01*
X50250500Y-60152135D01*
X61699500Y-60152135D01*
X61699500Y-61847870D01*
X61699501Y-61847876D01*
X61705908Y-61907483D01*
X61756202Y-62042328D01*
X61756206Y-62042335D01*
X61842452Y-62157544D01*
X61842455Y-62157547D01*
X61957664Y-62243793D01*
X61957671Y-62243797D01*
X62092517Y-62294091D01*
X62092516Y-62294091D01*
X62099444Y-62294835D01*
X62152127Y-62300500D01*
X63847872Y-62300499D01*
X63907483Y-62294091D01*
X64042331Y-62243796D01*
X64157546Y-62157546D01*
X64243796Y-62042331D01*
X64294091Y-61907483D01*
X64300500Y-61847873D01*
X64300499Y-60152128D01*
X64294091Y-60092517D01*
X64243796Y-59957669D01*
X64243795Y-59957668D01*
X64243793Y-59957664D01*
X64157547Y-59842455D01*
X64157544Y-59842452D01*
X64042335Y-59756206D01*
X64042328Y-59756202D01*
X63907482Y-59705908D01*
X63907483Y-59705908D01*
X63847883Y-59699501D01*
X63847881Y-59699500D01*
X63847873Y-59699500D01*
X63847864Y-59699500D01*
X62152129Y-59699500D01*
X62152123Y-59699501D01*
X62092516Y-59705908D01*
X61957671Y-59756202D01*
X61957664Y-59756206D01*
X61842455Y-59842452D01*
X61842452Y-59842455D01*
X61756206Y-59957664D01*
X61756202Y-59957671D01*
X61705908Y-60092517D01*
X61699501Y-60152116D01*
X61699501Y-60152123D01*
X61699500Y-60152135D01*
X50250500Y-60152135D01*
X50250500Y-50374500D01*
X50270185Y-50307461D01*
X50322989Y-50261706D01*
X50374500Y-50250500D01*
X199625500Y-50250500D01*
X199692539Y-50270185D01*
G37*
%TD.AperFunction*%
%TD*%
M02*
