%TF.GenerationSoftware,KiCad,Pcbnew,9.0.6*%
%TF.CreationDate,2025-12-22T11:30:34+05:30*%
%TF.ProjectId,joystick,6a6f7973-7469-4636-9b2e-6b696361645f,rev?*%
%TF.SameCoordinates,Original*%
%TF.FileFunction,Plated,1,2,PTH,Drill*%
%TF.FilePolarity,Positive*%
%FSLAX46Y46*%
G04 Gerber Fmt 4.6, Leading zero omitted, Abs format (unit mm)*
G04 Created by KiCad (PCBNEW 9.0.6) date 2025-12-22 11:30:34*
%MOMM*%
%LPD*%
G01*
G04 APERTURE LIST*
%TA.AperFunction,ComponentDrill*%
%ADD10C,0.200000*%
%TD*%
%TA.AperFunction,ViaDrill*%
%ADD11C,0.300000*%
%TD*%
%TA.AperFunction,ComponentDrill*%
%ADD12C,0.889000*%
%TD*%
%TA.AperFunction,ComponentDrill*%
%ADD13C,0.900000*%
%TD*%
%TA.AperFunction,ComponentDrill*%
%ADD14C,1.000000*%
%TD*%
%TA.AperFunction,ComponentDrill*%
%ADD15C,1.090000*%
%TD*%
%TA.AperFunction,ComponentDrill*%
%ADD16C,1.100000*%
%TD*%
%TA.AperFunction,ComponentDrill*%
%ADD17C,1.397000*%
%TD*%
%TA.AperFunction,ComponentDrill*%
%ADD18C,2.000000*%
%TD*%
G04 APERTURE END LIST*
D10*
%TO.C,U3*%
X128740000Y-96240000D03*
X128740000Y-98075000D03*
X129657500Y-95322500D03*
X129657500Y-97157500D03*
X129657500Y-98992500D03*
X130575000Y-96240000D03*
X130575000Y-98075000D03*
X131492500Y-95322500D03*
X131492500Y-97157500D03*
X131492500Y-98992500D03*
X132410000Y-96240000D03*
X132410000Y-98075000D03*
%TD*%
D11*
X87580000Y-129080000D03*
X95000000Y-67000000D03*
X110000000Y-84000000D03*
X123075000Y-87657500D03*
X124500000Y-115500000D03*
X132000000Y-74000000D03*
X133000000Y-101500000D03*
X142000000Y-77000000D03*
X167000000Y-93000000D03*
D12*
%TO.C,U1*%
X79960000Y-126127500D03*
X79960000Y-128667500D03*
X79960000Y-131207500D03*
X87580000Y-138827500D03*
X90120000Y-138827500D03*
X92660000Y-138827500D03*
%TO.C,U2*%
X156960000Y-125792500D03*
X156960000Y-128332500D03*
X156960000Y-130872500D03*
X164580000Y-138492500D03*
X167120000Y-138492500D03*
X169660000Y-138492500D03*
D13*
%TO.C,U1*%
X86945000Y-115967500D03*
X86945000Y-121047500D03*
X93295000Y-115967500D03*
X93295000Y-121047500D03*
%TO.C,U2*%
X163945000Y-115632500D03*
X163945000Y-120712500D03*
X170295000Y-115632500D03*
X170295000Y-120712500D03*
D14*
%TO.C,U5*%
X73190000Y-77000000D03*
X75730000Y-77000000D03*
X78270000Y-77000000D03*
X80810000Y-77000000D03*
D15*
%TO.C,BT1*%
X59750000Y-63650000D03*
X63000000Y-61000000D03*
D16*
%TO.C,U4*%
X134550000Y-59960000D03*
X134550000Y-62500000D03*
X134550000Y-65040000D03*
D17*
%TO.C,U1*%
X82500000Y-122000000D03*
X82500000Y-135335000D03*
X97740000Y-122000000D03*
X97740000Y-135335000D03*
%TO.C,U2*%
X159500000Y-121665000D03*
X159500000Y-135000000D03*
X174740000Y-121665000D03*
X174740000Y-135000000D03*
D18*
%TO.C,U5*%
X66000000Y-77500000D03*
X66000000Y-99500000D03*
X88000000Y-77500000D03*
X88000000Y-99500000D03*
M02*
