%TF.GenerationSoftware,KiCad,Pcbnew,9.0.6*%
%TF.CreationDate,2025-12-22T11:29:25+05:30*%
%TF.ProjectId,joystick,6a6f7973-7469-4636-9b2e-6b696361645f,rev?*%
%TF.SameCoordinates,Original*%
%TF.FileFunction,Copper,L1,Top*%
%TF.FilePolarity,Positive*%
%FSLAX46Y46*%
G04 Gerber Fmt 4.6, Leading zero omitted, Abs format (unit mm)*
G04 Created by KiCad (PCBNEW 9.0.6) date 2025-12-22 11:29:25*
%MOMM*%
%LPD*%
G01*
G04 APERTURE LIST*
G04 Aperture macros list*
%AMRoundRect*
0 Rectangle with rounded corners*
0 $1 Rounding radius*
0 $2 $3 $4 $5 $6 $7 $8 $9 X,Y pos of 4 corners*
0 Add a 4 corners polygon primitive as box body*
4,1,4,$2,$3,$4,$5,$6,$7,$8,$9,$2,$3,0*
0 Add four circle primitives for the rounded corners*
1,1,$1+$1,$2,$3*
1,1,$1+$1,$4,$5*
1,1,$1+$1,$6,$7*
1,1,$1+$1,$8,$9*
0 Add four rect primitives between the rounded corners*
20,1,$1+$1,$2,$3,$4,$5,0*
20,1,$1+$1,$4,$5,$6,$7,0*
20,1,$1+$1,$6,$7,$8,$9,0*
20,1,$1+$1,$8,$9,$2,$3,0*%
G04 Aperture macros list end*
%TA.AperFunction,SMDPad,CuDef*%
%ADD10R,0.900000X2.000000*%
%TD*%
%TA.AperFunction,SMDPad,CuDef*%
%ADD11R,2.000000X0.900000*%
%TD*%
%TA.AperFunction,SMDPad,CuDef*%
%ADD12R,1.330000X1.330000*%
%TD*%
%TA.AperFunction,ComponentPad*%
%ADD13C,0.300000*%
%TD*%
%TA.AperFunction,SMDPad,CuDef*%
%ADD14RoundRect,0.250000X0.550000X-1.500000X0.550000X1.500000X-0.550000X1.500000X-0.550000X-1.500000X0*%
%TD*%
%TA.AperFunction,SMDPad,CuDef*%
%ADD15RoundRect,0.218750X-0.256250X0.218750X-0.256250X-0.218750X0.256250X-0.218750X0.256250X0.218750X0*%
%TD*%
%TA.AperFunction,SMDPad,CuDef*%
%ADD16RoundRect,0.218750X-0.218750X-0.256250X0.218750X-0.256250X0.218750X0.256250X-0.218750X0.256250X0*%
%TD*%
%TA.AperFunction,ComponentPad*%
%ADD17C,1.778000*%
%TD*%
%TA.AperFunction,ComponentPad*%
%ADD18C,2.286000*%
%TD*%
%TA.AperFunction,ComponentPad*%
%ADD19R,1.508000X1.508000*%
%TD*%
%TA.AperFunction,ComponentPad*%
%ADD20C,1.508000*%
%TD*%
%TA.AperFunction,ComponentPad*%
%ADD21C,3.000000*%
%TD*%
%TA.AperFunction,SMDPad,CuDef*%
%ADD22RoundRect,0.250000X0.250000X0.550000X-0.250000X0.550000X-0.250000X-0.550000X0.250000X-0.550000X0*%
%TD*%
%TA.AperFunction,ComponentPad*%
%ADD23R,1.600000X1.600000*%
%TD*%
%TA.AperFunction,ComponentPad*%
%ADD24C,1.600000*%
%TD*%
%TA.AperFunction,SMDPad,CuDef*%
%ADD25RoundRect,0.200000X-0.200000X-0.275000X0.200000X-0.275000X0.200000X0.275000X-0.200000X0.275000X0*%
%TD*%
%TA.AperFunction,SMDPad,CuDef*%
%ADD26RoundRect,0.200000X-0.275000X0.200000X-0.275000X-0.200000X0.275000X-0.200000X0.275000X0.200000X0*%
%TD*%
%TA.AperFunction,ComponentPad*%
%ADD27R,2.000000X1.905000*%
%TD*%
%TA.AperFunction,ComponentPad*%
%ADD28O,2.000000X1.905000*%
%TD*%
%TA.AperFunction,SMDPad,CuDef*%
%ADD29RoundRect,0.250000X-0.550000X1.500000X-0.550000X-1.500000X0.550000X-1.500000X0.550000X1.500000X0*%
%TD*%
%TA.AperFunction,SMDPad,CuDef*%
%ADD30RoundRect,0.250000X-0.550000X0.250000X-0.550000X-0.250000X0.550000X-0.250000X0.550000X0.250000X0*%
%TD*%
%TA.AperFunction,SMDPad,CuDef*%
%ADD31RoundRect,0.250000X-0.850000X-0.350000X0.850000X-0.350000X0.850000X0.350000X-0.850000X0.350000X0*%
%TD*%
%TA.AperFunction,SMDPad,CuDef*%
%ADD32RoundRect,0.249997X-2.950003X-2.650003X2.950003X-2.650003X2.950003X2.650003X-2.950003X2.650003X0*%
%TD*%
%TA.AperFunction,SMDPad,CuDef*%
%ADD33RoundRect,0.200000X0.275000X-0.200000X0.275000X0.200000X-0.275000X0.200000X-0.275000X-0.200000X0*%
%TD*%
%TA.AperFunction,ViaPad*%
%ADD34C,0.600000*%
%TD*%
%TA.AperFunction,Conductor*%
%ADD35C,0.500000*%
%TD*%
%TA.AperFunction,Conductor*%
%ADD36C,0.300000*%
%TD*%
%TA.AperFunction,Conductor*%
%ADD37C,0.200000*%
%TD*%
G04 APERTURE END LIST*
D10*
%TO.P,U3,1,GND*%
%TO.N,GND*%
X123075000Y-104657500D03*
%TO.P,U3,2,3V3*%
%TO.N,+3.3V*%
X124345000Y-104657500D03*
%TO.P,U3,3,EN*%
%TO.N,unconnected-(U3-EN-Pad3)*%
X125615000Y-104657500D03*
%TO.P,U3,4,SENSOR_VP*%
%TO.N,/VP*%
X126885000Y-104657500D03*
%TO.P,U3,5,SENSOR_VN*%
%TO.N,/VN*%
X128155000Y-104657500D03*
%TO.P,U3,6,IO34*%
%TO.N,/D34*%
X129425000Y-104657500D03*
%TO.P,U3,7,IO35*%
%TO.N,/D35*%
X130695000Y-104657500D03*
%TO.P,U3,8,IO32*%
%TO.N,/D32*%
X131965000Y-104657500D03*
%TO.P,U3,9,IO33*%
%TO.N,/D33*%
X133235000Y-104657500D03*
%TO.P,U3,10,IO25*%
%TO.N,/D25*%
X134505000Y-104657500D03*
%TO.P,U3,11,IO26*%
%TO.N,unconnected-(U3-IO26-Pad11)*%
X135775000Y-104657500D03*
%TO.P,U3,12,IO27*%
%TO.N,unconnected-(U3-IO27-Pad12)*%
X137045000Y-104657500D03*
%TO.P,U3,13,IO14*%
%TO.N,unconnected-(U3-IO14-Pad13)*%
X138315000Y-104657500D03*
%TO.P,U3,14,IO12*%
%TO.N,unconnected-(U3-IO12-Pad14)*%
X139585000Y-104657500D03*
D11*
%TO.P,U3,15,GND*%
%TO.N,GND*%
X140585000Y-101872500D03*
%TO.P,U3,16,IO13*%
%TO.N,unconnected-(U3-IO13-Pad16)*%
X140585000Y-100602500D03*
%TO.P,U3,17,SHD/SD2*%
%TO.N,unconnected-(U3-SHD{slash}SD2-Pad17)*%
X140585000Y-99332500D03*
%TO.P,U3,18,SWP/SD3*%
%TO.N,unconnected-(U3-SWP{slash}SD3-Pad18)*%
X140585000Y-98062500D03*
%TO.P,U3,19,SCS/CMD*%
%TO.N,unconnected-(U3-SCS{slash}CMD-Pad19)*%
X140585000Y-96792500D03*
%TO.P,U3,20,SCK/CLK*%
%TO.N,unconnected-(U3-SCK{slash}CLK-Pad20)*%
X140585000Y-95522500D03*
%TO.P,U3,21,SDO/SD0*%
%TO.N,unconnected-(U3-SDO{slash}SD0-Pad21)*%
X140585000Y-94252500D03*
%TO.P,U3,22,SDI/SD1*%
%TO.N,unconnected-(U3-SDI{slash}SD1-Pad22)*%
X140585000Y-92982500D03*
%TO.P,U3,23,IO15*%
%TO.N,unconnected-(U3-IO15-Pad23)*%
X140585000Y-91712500D03*
%TO.P,U3,24,IO2*%
%TO.N,unconnected-(U3-IO2-Pad24)*%
X140585000Y-90442500D03*
D10*
%TO.P,U3,25,IO0*%
%TO.N,unconnected-(U3-IO0-Pad25)*%
X139585000Y-87657500D03*
%TO.P,U3,26,IO4*%
%TO.N,unconnected-(U3-IO4-Pad26)*%
X138315000Y-87657500D03*
%TO.P,U3,27,IO16*%
%TO.N,unconnected-(U3-IO16-Pad27)*%
X137045000Y-87657500D03*
%TO.P,U3,28,IO17*%
%TO.N,unconnected-(U3-IO17-Pad28)*%
X135775000Y-87657500D03*
%TO.P,U3,29,IO5*%
%TO.N,unconnected-(U3-IO5-Pad29)*%
X134505000Y-87657500D03*
%TO.P,U3,30,IO18*%
%TO.N,unconnected-(U3-IO18-Pad30)*%
X133235000Y-87657500D03*
%TO.P,U3,31,IO19*%
%TO.N,/D19*%
X131965000Y-87657500D03*
%TO.P,U3,32,NC*%
%TO.N,unconnected-(U3-NC-Pad32)*%
X130695000Y-87657500D03*
%TO.P,U3,33,IO21*%
%TO.N,/D21*%
X129425000Y-87657500D03*
%TO.P,U3,34,RXD0*%
%TO.N,unconnected-(U3-RXD0-Pad34)*%
X128155000Y-87657500D03*
%TO.P,U3,35,TXD0*%
%TO.N,unconnected-(U3-TXD0-Pad35)*%
X126885000Y-87657500D03*
%TO.P,U3,36,IO22*%
%TO.N,/D22*%
X125615000Y-87657500D03*
%TO.P,U3,37,IO23*%
%TO.N,unconnected-(U3-IO23-Pad37)*%
X124345000Y-87657500D03*
%TO.P,U3,38,GND*%
%TO.N,GND*%
X123075000Y-87657500D03*
D12*
%TO.P,U3,39_1,GND*%
X128740000Y-98992500D03*
%TO.P,U3,39_2,GND*%
X128740000Y-97157500D03*
%TO.P,U3,39_3,GND*%
X128740000Y-95322500D03*
%TO.P,U3,39_4,GND*%
X130575000Y-98992500D03*
%TO.P,U3,39_5,GND*%
X130575000Y-97157500D03*
%TO.P,U3,39_6,GND*%
X130575000Y-95322500D03*
%TO.P,U3,39_7,GND*%
X132410000Y-98992500D03*
%TO.P,U3,39_8,GND*%
X132410000Y-97157500D03*
%TO.P,U3,39_9,GND*%
X132410000Y-95322500D03*
D13*
%TO.P,U3,39_10,GND*%
X128740000Y-98075000D03*
%TO.P,U3,39_11,GND*%
X128740000Y-96240000D03*
%TO.P,U3,39_12,GND*%
X129657500Y-98992500D03*
%TO.P,U3,39_13,GND*%
X129657500Y-97157500D03*
%TO.P,U3,39_14,GND*%
X129657500Y-95322500D03*
%TO.P,U3,39_15,GND*%
X130575000Y-98075000D03*
%TO.P,U3,39_16,GND*%
X130575000Y-96240000D03*
%TO.P,U3,39_17,GND*%
X131492500Y-98992500D03*
%TO.P,U3,39_18,GND*%
X131492500Y-97157500D03*
%TO.P,U3,39_19,GND*%
X131492500Y-95322500D03*
%TO.P,U3,39_20,GND*%
X132410000Y-98075000D03*
%TO.P,U3,39_21,GND*%
X132410000Y-96240000D03*
%TD*%
D14*
%TO.P,C2,1*%
%TO.N,Net-(U4-VO)*%
X154000000Y-66000000D03*
%TO.P,C2,2*%
%TO.N,GND*%
X154000000Y-60600000D03*
%TD*%
D15*
%TO.P,D1,1,K*%
%TO.N,GND*%
X170500000Y-84075000D03*
%TO.P,D1,2,A*%
%TO.N,Net-(D1-A)*%
X170500000Y-85650000D03*
%TD*%
D16*
%TO.P,D3,1,K*%
%TO.N,GND*%
X178712500Y-89000000D03*
%TO.P,D3,2,A*%
%TO.N,Net-(D3-A)*%
X180287500Y-89000000D03*
%TD*%
D17*
%TO.P,U1,B1A,SEL+*%
%TO.N,/D19*%
X86945000Y-115967500D03*
%TO.P,U1,B1B*%
%TO.N,N/C*%
X93295000Y-115967500D03*
%TO.P,U1,B2A,SEL-*%
%TO.N,GND*%
X86945000Y-121047500D03*
%TO.P,U1,B2B*%
%TO.N,N/C*%
X93295000Y-121047500D03*
%TO.P,U1,H1,H+*%
%TO.N,+3.3V*%
X87580000Y-138827500D03*
%TO.P,U1,H2,H*%
%TO.N,/VP*%
X90120000Y-138827500D03*
%TO.P,U1,H3,H-*%
%TO.N,GND*%
X92660000Y-138827500D03*
D18*
%TO.P,U1,S1,SHIELD*%
%TO.N,unconnected-(U1-SHIELD-PadS1)*%
X82500000Y-122000000D03*
%TO.P,U1,S2,SHIELD*%
%TO.N,unconnected-(U1-SHIELD-PadS1)_1*%
X82500000Y-135335000D03*
%TO.P,U1,S3,SHIELD*%
%TO.N,unconnected-(U1-SHIELD-PadS1)_3*%
X97740000Y-135335000D03*
%TO.P,U1,S4,SHIELD*%
%TO.N,unconnected-(U1-SHIELD-PadS1)_2*%
X97740000Y-122000000D03*
D17*
%TO.P,U1,V1,V+*%
%TO.N,+3.3V*%
X79960000Y-126127500D03*
%TO.P,U1,V2,V*%
%TO.N,/VN*%
X79960000Y-128667500D03*
%TO.P,U1,V3,V-*%
%TO.N,GND*%
X79960000Y-131207500D03*
%TD*%
D19*
%TO.P,U5,1,GND*%
%TO.N,GND*%
X73190000Y-77000000D03*
D20*
%TO.P,U5,2,VCC*%
%TO.N,+3.3V*%
X75730000Y-77000000D03*
%TO.P,U5,3,SCL*%
%TO.N,/D22*%
X78270000Y-77000000D03*
%TO.P,U5,4,SDA*%
%TO.N,/D21*%
X80810000Y-77000000D03*
D21*
%TO.P,U5,S1*%
%TO.N,N/C*%
X66000000Y-77500000D03*
%TO.P,U5,S2*%
X88000000Y-77500000D03*
%TO.P,U5,S3*%
X88000000Y-99500000D03*
%TO.P,U5,S4*%
X66000000Y-99500000D03*
%TD*%
D15*
%TO.P,D2,1,K*%
%TO.N,Net-(D2-K)*%
X78787500Y-59425000D03*
%TO.P,D2,2,A*%
%TO.N,Net-(BT1-+)*%
X78787500Y-61000000D03*
%TD*%
D22*
%TO.P,SW2,1,A*%
%TO.N,+3.3V*%
X192500000Y-88700000D03*
%TO.P,SW2,2,B*%
%TO.N,Net-(SW2A-B)*%
X190750000Y-91000000D03*
%TO.P,SW2,3,C*%
%TO.N,GND*%
X189000000Y-88700000D03*
%TD*%
D23*
%TO.P,BT1,1,+*%
%TO.N,Net-(BT1-+)*%
X63000000Y-61000000D03*
D24*
%TO.P,BT1,2,-*%
%TO.N,GND*%
X59750000Y-63650000D03*
%TD*%
D25*
%TO.P,R2,1*%
%TO.N,Net-(SW1A-A)*%
X99500000Y-59500000D03*
%TO.P,R2,2*%
%TO.N,/D33*%
X101150000Y-59500000D03*
%TD*%
D26*
%TO.P,R1,1*%
%TO.N,Net-(D1-A)*%
X170500000Y-96000000D03*
%TO.P,R1,2*%
%TO.N,/D25*%
X170500000Y-97650000D03*
%TD*%
D25*
%TO.P,R3,1*%
%TO.N,/D33*%
X101350000Y-65000000D03*
%TO.P,R3,2*%
%TO.N,GND*%
X103000000Y-65000000D03*
%TD*%
D27*
%TO.P,U4,1,VI*%
%TO.N,Net-(SW1A-A)*%
X134550000Y-59960000D03*
D28*
%TO.P,U4,2,GND*%
%TO.N,GND*%
X134550000Y-62500000D03*
%TO.P,U4,3,VO*%
%TO.N,Net-(U4-VO)*%
X134550000Y-65040000D03*
%TD*%
D29*
%TO.P,C1,1*%
%TO.N,Net-(SW1A-A)*%
X114500000Y-59600000D03*
%TO.P,C1,2*%
%TO.N,GND*%
X114500000Y-65000000D03*
%TD*%
D30*
%TO.P,SW1,1,A*%
%TO.N,Net-(SW1A-A)*%
X91500000Y-59500000D03*
%TO.P,SW1,2,B*%
%TO.N,Net-(D2-K)*%
X93800000Y-61250000D03*
%TO.P,SW1,3,C*%
%TO.N,unconnected-(SW1A-C-Pad3)*%
X91500000Y-63000000D03*
%TD*%
D31*
%TO.P,U6,1,GND*%
%TO.N,GND*%
X166435000Y-61435000D03*
%TO.P,U6,2,VO*%
%TO.N,+3.3V*%
X166435000Y-63715000D03*
D32*
X172735000Y-63715000D03*
D31*
%TO.P,U6,3,VI*%
%TO.N,Net-(U4-VO)*%
X166435000Y-65995000D03*
%TD*%
D33*
%TO.P,R4,1*%
%TO.N,Net-(R4-Pad1)*%
X180425000Y-96150000D03*
%TO.P,R4,2*%
%TO.N,Net-(D3-A)*%
X180425000Y-94500000D03*
%TD*%
%TO.P,R5,1*%
%TO.N,Net-(R4-Pad1)*%
X190925000Y-96150000D03*
%TO.P,R5,2*%
%TO.N,Net-(SW2A-B)*%
X190925000Y-94500000D03*
%TD*%
D17*
%TO.P,U2,B1A,SEL+*%
%TO.N,/D32*%
X163945000Y-115632500D03*
%TO.P,U2,B1B*%
%TO.N,N/C*%
X170295000Y-115632500D03*
%TO.P,U2,B2A,SEL-*%
%TO.N,GND*%
X163945000Y-120712500D03*
%TO.P,U2,B2B*%
%TO.N,N/C*%
X170295000Y-120712500D03*
%TO.P,U2,H1,H+*%
%TO.N,+3.3V*%
X164580000Y-138492500D03*
%TO.P,U2,H2,H*%
%TO.N,/D35*%
X167120000Y-138492500D03*
%TO.P,U2,H3,H-*%
%TO.N,GND*%
X169660000Y-138492500D03*
D18*
%TO.P,U2,S1,SHIELD*%
%TO.N,unconnected-(U2-SHIELD-PadS1)_1*%
X159500000Y-121665000D03*
%TO.P,U2,S2,SHIELD*%
%TO.N,unconnected-(U2-SHIELD-PadS1)*%
X159500000Y-135000000D03*
%TO.P,U2,S3,SHIELD*%
%TO.N,unconnected-(U2-SHIELD-PadS1)_3*%
X174740000Y-135000000D03*
%TO.P,U2,S4,SHIELD*%
%TO.N,unconnected-(U2-SHIELD-PadS1)_2*%
X174740000Y-121665000D03*
D17*
%TO.P,U2,V1,V+*%
%TO.N,+3.3V*%
X156960000Y-125792500D03*
%TO.P,U2,V2,V*%
%TO.N,/D34*%
X156960000Y-128332500D03*
%TO.P,U2,V3,V-*%
%TO.N,GND*%
X156960000Y-130872500D03*
%TD*%
D14*
%TO.P,C3,1*%
%TO.N,+3.3V*%
X189000000Y-66700000D03*
%TO.P,C3,2*%
%TO.N,GND*%
X189000000Y-61300000D03*
%TD*%
D34*
%TO.N,GND*%
X123075000Y-87657500D03*
X142000000Y-77000000D03*
X167000000Y-93000000D03*
X110000000Y-84000000D03*
%TO.N,+3.3V*%
X87580000Y-129080000D03*
X124500000Y-115500000D03*
%TO.N,/D33*%
X133000000Y-101500000D03*
X95000000Y-67000000D03*
%TO.N,/D19*%
X132000000Y-74000000D03*
%TD*%
D35*
%TO.N,+3.3V*%
X169000000Y-146500000D02*
X164580000Y-142080000D01*
%TO.N,GND*%
X183200000Y-55500000D02*
X189000000Y-61300000D01*
X167000000Y-87575000D02*
X167000000Y-93000000D01*
X103000000Y-65000000D02*
X103500000Y-65000000D01*
X176500000Y-84075000D02*
X178712500Y-86287500D01*
X187000000Y-83000000D02*
X182000000Y-83000000D01*
X82792500Y-131207500D02*
X87000000Y-127000000D01*
X73190000Y-77000000D02*
X73190000Y-107292500D01*
X85040000Y-131207500D02*
X82792500Y-131207500D01*
X119417500Y-84000000D02*
X123075000Y-87657500D01*
X155500000Y-93000000D02*
X146500000Y-102000000D01*
X100500000Y-69500000D02*
X103500000Y-66500000D01*
X79960000Y-131207500D02*
X82792500Y-131207500D01*
X139503000Y-101872500D02*
X136623000Y-98992500D01*
X127240000Y-98992500D02*
X128740000Y-98992500D01*
X166435000Y-61435000D02*
X166565000Y-61435000D01*
X154835000Y-61435000D02*
X166435000Y-61435000D01*
X123075000Y-104657500D02*
X123075000Y-103157500D01*
X87000000Y-127000000D02*
X86945000Y-126945000D01*
X166565000Y-61435000D02*
X167000000Y-61000000D01*
X178712500Y-86287500D02*
X178712500Y-89000000D01*
X110000000Y-84000000D02*
X119417500Y-84000000D01*
X114500000Y-65000000D02*
X130000000Y-65000000D01*
X140585000Y-101872500D02*
X139503000Y-101872500D01*
X123075000Y-103157500D02*
X127240000Y-98992500D01*
X166435000Y-61435000D02*
X172370000Y-55500000D01*
X73100000Y-77000000D02*
X73190000Y-77000000D01*
X170500000Y-84075000D02*
X176500000Y-84075000D01*
X73190000Y-107292500D02*
X86945000Y-121047500D01*
X189000000Y-88700000D02*
X189000000Y-85000000D01*
X130000000Y-65000000D02*
X142000000Y-77000000D01*
X136623000Y-98992500D02*
X132410000Y-98992500D01*
X146372500Y-101872500D02*
X140585000Y-101872500D01*
X182000000Y-83000000D02*
X178712500Y-86287500D01*
X123075000Y-92718500D02*
X125679000Y-95322500D01*
X73190000Y-75810000D02*
X79500000Y-69500000D01*
X73190000Y-77000000D02*
X73190000Y-75810000D01*
X152100000Y-62500000D02*
X154000000Y-60600000D01*
X146500000Y-102000000D02*
X146372500Y-101872500D01*
X154000000Y-60600000D02*
X154835000Y-61435000D01*
X103500000Y-66500000D02*
X103500000Y-65000000D01*
X134550000Y-62500000D02*
X152100000Y-62500000D01*
X86945000Y-126945000D02*
X86945000Y-121047500D01*
X170500000Y-84075000D02*
X167000000Y-87575000D01*
X59750000Y-63650000D02*
X73100000Y-77000000D01*
X189000000Y-85000000D02*
X187000000Y-83000000D01*
X79500000Y-69500000D02*
X100500000Y-69500000D01*
X114500000Y-65000000D02*
X117000000Y-62500000D01*
X125679000Y-95322500D02*
X128740000Y-95322500D01*
X172370000Y-55500000D02*
X183200000Y-55500000D01*
X92660000Y-138827500D02*
X85040000Y-131207500D01*
X123075000Y-87657500D02*
X123075000Y-92718500D01*
X167000000Y-93000000D02*
X155500000Y-93000000D01*
X103500000Y-65000000D02*
X114500000Y-65000000D01*
X117000000Y-62500000D02*
X134550000Y-62500000D01*
D36*
%TO.N,Net-(BT1-+)*%
X63000000Y-61000000D02*
X78787500Y-61000000D01*
%TO.N,Net-(SW1A-A)*%
X114500000Y-59600000D02*
X110900000Y-56000000D01*
X114860000Y-59960000D02*
X114500000Y-59600000D01*
X134550000Y-59960000D02*
X114860000Y-59960000D01*
X102000000Y-56000000D02*
X99500000Y-58500000D01*
X99500000Y-58500000D02*
X99500000Y-59500000D01*
X99500000Y-59500000D02*
X91500000Y-59500000D01*
X110900000Y-56000000D02*
X102000000Y-56000000D01*
%TO.N,Net-(U4-VO)*%
X154000000Y-66000000D02*
X150500000Y-69500000D01*
X150500000Y-69500000D02*
X143500000Y-69500000D01*
X143500000Y-69500000D02*
X139040000Y-65040000D01*
X139040000Y-65040000D02*
X134550000Y-65040000D01*
X166435000Y-65995000D02*
X154005000Y-65995000D01*
X154005000Y-65995000D02*
X154000000Y-66000000D01*
D35*
%TO.N,+3.3V*%
X124345000Y-106157500D02*
X101422500Y-129080000D01*
X101422500Y-129080000D02*
X87580000Y-129080000D01*
X166435000Y-63715000D02*
X186015000Y-63715000D01*
X124345000Y-104657500D02*
X124345000Y-106157500D01*
X189000000Y-66700000D02*
X189000000Y-77000000D01*
X124500000Y-115500000D02*
X124345000Y-115345000D01*
X164580000Y-133412500D02*
X156960000Y-125792500D01*
X189000000Y-77000000D02*
X192500000Y-80500000D01*
X186015000Y-63715000D02*
X189000000Y-66700000D01*
X124345000Y-115345000D02*
X124345000Y-104657500D01*
X192500000Y-88700000D02*
X192500000Y-80500000D01*
X164580000Y-138492500D02*
X164580000Y-133412500D01*
D36*
%TO.N,Net-(D1-A)*%
X170500000Y-96000000D02*
X170500000Y-85650000D01*
%TO.N,Net-(D2-K)*%
X85925000Y-59425000D02*
X87750000Y-61250000D01*
X87750000Y-61250000D02*
X93800000Y-61250000D01*
X78787500Y-59425000D02*
X85925000Y-59425000D01*
%TO.N,Net-(D3-A)*%
X180287500Y-89000000D02*
X180287500Y-94362500D01*
X180287500Y-94362500D02*
X180425000Y-94500000D01*
%TO.N,/D25*%
X136547500Y-108000000D02*
X134505000Y-105957500D01*
X145500000Y-108000000D02*
X136547500Y-108000000D01*
X134505000Y-105957500D02*
X134505000Y-104657500D01*
X170500000Y-97650000D02*
X155850000Y-97650000D01*
X155850000Y-97650000D02*
X145500000Y-108000000D01*
%TO.N,/D33*%
X133235000Y-101735000D02*
X133000000Y-101500000D01*
X101150000Y-64800000D02*
X101350000Y-65000000D01*
X101350000Y-65000000D02*
X97000000Y-65000000D01*
X101150000Y-59500000D02*
X101150000Y-64800000D01*
X133235000Y-102500000D02*
X133235000Y-101735000D01*
X97000000Y-65000000D02*
X95000000Y-67000000D01*
X133235000Y-104657500D02*
X133235000Y-102500000D01*
%TO.N,Net-(R4-Pad1)*%
X180425000Y-96150000D02*
X190925000Y-96150000D01*
%TO.N,Net-(SW2A-B)*%
X190925000Y-91175000D02*
X190750000Y-91000000D01*
X190925000Y-94500000D02*
X190925000Y-91175000D01*
%TO.N,/D21*%
X129500000Y-77500000D02*
X123000000Y-71000000D01*
X123000000Y-71000000D02*
X86810000Y-71000000D01*
X129425000Y-77575000D02*
X129500000Y-77500000D01*
X129425000Y-87657500D02*
X129425000Y-77575000D01*
X86810000Y-71000000D02*
X80810000Y-77000000D01*
%TO.N,/D22*%
X78270000Y-77000000D02*
X83270000Y-82000000D01*
X123500000Y-82000000D02*
X125615000Y-84115000D01*
X125615000Y-84115000D02*
X125615000Y-87657500D01*
X83270000Y-82000000D02*
X123500000Y-82000000D01*
D37*
%TO.N,/VP*%
X90120000Y-140620000D02*
X96000000Y-146500000D01*
X90120000Y-138827500D02*
X90120000Y-139120000D01*
X96000000Y-146500000D02*
X108000000Y-146500000D01*
X90500000Y-139500000D02*
X90500000Y-139000000D01*
X108000000Y-146500000D02*
X127000000Y-127500000D01*
X126885000Y-127385000D02*
X126885000Y-104657500D01*
X90120000Y-138827500D02*
X90120000Y-140620000D01*
X127000000Y-127500000D02*
X126885000Y-127385000D01*
X90120000Y-139120000D02*
X90500000Y-139500000D01*
%TO.N,/VN*%
X112000000Y-148500000D02*
X128155000Y-132345000D01*
X68000000Y-134500000D02*
X68000000Y-141000000D01*
X75500000Y-148500000D02*
X112000000Y-148500000D01*
X68000000Y-141000000D02*
X75500000Y-148500000D01*
X79960000Y-128667500D02*
X73832500Y-128667500D01*
X128155000Y-132345000D02*
X128155000Y-104657500D01*
X73832500Y-128667500D02*
X68000000Y-134500000D01*
D36*
%TO.N,/D19*%
X131965000Y-74035000D02*
X132000000Y-74000000D01*
X131965000Y-87657500D02*
X131965000Y-74035000D01*
%TO.N,/D34*%
X148832500Y-128332500D02*
X129425000Y-108925000D01*
X156960000Y-128332500D02*
X148832500Y-128332500D01*
X129425000Y-108925000D02*
X129425000Y-104657500D01*
%TO.N,/D32*%
X135000000Y-110000000D02*
X131965000Y-106965000D01*
X131965000Y-106965000D02*
X131965000Y-104657500D01*
X163945000Y-115632500D02*
X158312500Y-110000000D01*
X158312500Y-110000000D02*
X135000000Y-110000000D01*
%TO.N,/D35*%
X138500000Y-116000000D02*
X130695000Y-108195000D01*
X150500000Y-116000000D02*
X138500000Y-116000000D01*
X167120000Y-138492500D02*
X167120000Y-132620000D01*
X167120000Y-132620000D02*
X150500000Y-116000000D01*
X130695000Y-108195000D02*
X130695000Y-104657500D01*
D35*
%TO.N,+3.3V*%
X197500000Y-95500000D02*
X197500000Y-135000000D01*
X192500000Y-88700000D02*
X192500000Y-90500000D01*
X197500000Y-135000000D02*
X186000000Y-146500000D01*
X186000000Y-146500000D02*
X169000000Y-146500000D01*
X192500000Y-90500000D02*
X197500000Y-95500000D01*
X164580000Y-138492500D02*
X164580000Y-142080000D01*
%TD*%
%TA.AperFunction,Conductor*%
%TO.N,GND*%
G36*
X199692539Y-50270185D02*
G01*
X199738294Y-50322989D01*
X199749500Y-50374500D01*
X199749500Y-149625500D01*
X199729815Y-149692539D01*
X199677011Y-149738294D01*
X199625500Y-149749500D01*
X50374500Y-149749500D01*
X50307461Y-149729815D01*
X50261706Y-149677011D01*
X50250500Y-149625500D01*
X50250500Y-121870648D01*
X80856500Y-121870648D01*
X80856500Y-122129351D01*
X80891749Y-122351904D01*
X80896968Y-122384854D01*
X80976909Y-122630885D01*
X81094353Y-122861382D01*
X81246408Y-123070668D01*
X81429332Y-123253592D01*
X81638618Y-123405647D01*
X81869115Y-123523091D01*
X82115146Y-123603032D01*
X82210961Y-123618207D01*
X82370649Y-123643500D01*
X82370654Y-123643500D01*
X82629351Y-123643500D01*
X82771294Y-123621017D01*
X82884854Y-123603032D01*
X83130885Y-123523091D01*
X83361382Y-123405647D01*
X83570668Y-123253592D01*
X83753592Y-123070668D01*
X83905647Y-122861382D01*
X84023091Y-122630885D01*
X84103032Y-122384854D01*
X84127241Y-122232000D01*
X84143499Y-122129355D01*
X84143500Y-122129347D01*
X84143500Y-121870648D01*
X84103032Y-121615149D01*
X84103032Y-121615146D01*
X84023091Y-121369115D01*
X83905647Y-121138618D01*
X83760023Y-120938183D01*
X85556000Y-120938183D01*
X85556000Y-121156816D01*
X85590202Y-121372759D01*
X85657761Y-121580688D01*
X85657762Y-121580691D01*
X85757020Y-121775493D01*
X85757021Y-121775495D01*
X85801806Y-121837138D01*
X85801807Y-121837138D01*
X86502861Y-121136084D01*
X86525667Y-121221194D01*
X86584910Y-121323806D01*
X86668694Y-121407590D01*
X86771306Y-121466833D01*
X86856414Y-121489637D01*
X86155360Y-122190691D01*
X86217008Y-122235480D01*
X86411808Y-122334737D01*
X86411811Y-122334738D01*
X86619740Y-122402297D01*
X86835684Y-122436500D01*
X87054316Y-122436500D01*
X87270259Y-122402297D01*
X87478188Y-122334738D01*
X87478191Y-122334737D01*
X87672995Y-122235478D01*
X87734638Y-122190691D01*
X87734639Y-122190691D01*
X87033585Y-121489638D01*
X87118694Y-121466833D01*
X87221306Y-121407590D01*
X87305090Y-121323806D01*
X87364333Y-121221194D01*
X87387137Y-121136085D01*
X88088191Y-121837139D01*
X88088191Y-121837138D01*
X88132978Y-121775495D01*
X88232237Y-121580691D01*
X88232238Y-121580688D01*
X88299797Y-121372759D01*
X88334000Y-121156816D01*
X88334000Y-120938183D01*
X88333993Y-120938138D01*
X91905500Y-120938138D01*
X91905500Y-121156861D01*
X91939714Y-121372876D01*
X92007297Y-121580880D01*
X92007298Y-121580883D01*
X92074782Y-121713325D01*
X92106592Y-121775756D01*
X92106595Y-121775760D01*
X92235142Y-121952693D01*
X92389806Y-122107357D01*
X92555374Y-122227647D01*
X92566743Y-122235907D01*
X92684456Y-122295885D01*
X92761616Y-122335201D01*
X92761619Y-122335202D01*
X92813024Y-122351904D01*
X92969625Y-122402786D01*
X93069672Y-122418632D01*
X93185639Y-122437000D01*
X93185644Y-122437000D01*
X93404361Y-122437000D01*
X93509082Y-122420412D01*
X93620375Y-122402786D01*
X93828383Y-122335201D01*
X94023257Y-122235907D01*
X94122601Y-122163729D01*
X94200193Y-122107357D01*
X94200195Y-122107354D01*
X94200199Y-122107352D01*
X94354852Y-121952699D01*
X94414465Y-121870648D01*
X96096500Y-121870648D01*
X96096500Y-122129351D01*
X96131749Y-122351904D01*
X96136968Y-122384854D01*
X96216909Y-122630885D01*
X96334353Y-122861382D01*
X96486408Y-123070668D01*
X96669332Y-123253592D01*
X96878618Y-123405647D01*
X97109115Y-123523091D01*
X97355146Y-123603032D01*
X97450961Y-123618207D01*
X97610649Y-123643500D01*
X97610654Y-123643500D01*
X97869351Y-123643500D01*
X98011294Y-123621017D01*
X98124854Y-123603032D01*
X98370885Y-123523091D01*
X98601382Y-123405647D01*
X98810668Y-123253592D01*
X98993592Y-123070668D01*
X99145647Y-122861382D01*
X99263091Y-122630885D01*
X99343032Y-122384854D01*
X99366691Y-122235478D01*
X99383500Y-122129351D01*
X99383500Y-121870648D01*
X99343032Y-121615149D01*
X99343032Y-121615146D01*
X99263091Y-121369115D01*
X99145647Y-121138618D01*
X98993592Y-120929332D01*
X98810668Y-120746408D01*
X98601382Y-120594353D01*
X98370885Y-120476909D01*
X98124854Y-120396968D01*
X98124852Y-120396967D01*
X98124850Y-120396967D01*
X97869351Y-120356500D01*
X97869346Y-120356500D01*
X97610654Y-120356500D01*
X97610649Y-120356500D01*
X97355149Y-120396967D01*
X97109112Y-120476910D01*
X96878617Y-120594353D01*
X96669329Y-120746410D01*
X96486410Y-120929329D01*
X96334353Y-121138617D01*
X96216910Y-121369112D01*
X96136967Y-121615149D01*
X96096500Y-121870648D01*
X94414465Y-121870648D01*
X94483407Y-121775757D01*
X94582701Y-121580883D01*
X94650286Y-121372875D01*
X94670430Y-121245691D01*
X94684500Y-121156861D01*
X94684500Y-120938138D01*
X94658145Y-120771744D01*
X94650286Y-120722125D01*
X94582701Y-120514117D01*
X94582701Y-120514116D01*
X94530369Y-120411410D01*
X94483407Y-120319243D01*
X94438810Y-120257860D01*
X94354857Y-120142306D01*
X94200193Y-119987642D01*
X94023260Y-119859095D01*
X94023259Y-119859094D01*
X94023257Y-119859093D01*
X93960825Y-119827282D01*
X93828383Y-119759798D01*
X93828380Y-119759797D01*
X93620376Y-119692214D01*
X93404361Y-119658000D01*
X93404356Y-119658000D01*
X93185644Y-119658000D01*
X93185639Y-119658000D01*
X92969623Y-119692214D01*
X92761619Y-119759797D01*
X92761616Y-119759798D01*
X92566739Y-119859095D01*
X92389806Y-119987642D01*
X92235142Y-120142306D01*
X92106595Y-120319239D01*
X92007298Y-120514116D01*
X92007297Y-120514119D01*
X91939714Y-120722123D01*
X91905500Y-120938138D01*
X88333993Y-120938138D01*
X88299797Y-120722240D01*
X88232238Y-120514311D01*
X88232237Y-120514308D01*
X88132980Y-120319508D01*
X88088191Y-120257860D01*
X87387137Y-120958914D01*
X87364333Y-120873806D01*
X87305090Y-120771194D01*
X87221306Y-120687410D01*
X87118694Y-120628167D01*
X87033583Y-120605361D01*
X87734638Y-119904307D01*
X87734638Y-119904306D01*
X87672995Y-119859521D01*
X87672993Y-119859520D01*
X87478191Y-119760262D01*
X87478188Y-119760261D01*
X87270259Y-119692702D01*
X87054316Y-119658500D01*
X86835684Y-119658500D01*
X86619740Y-119692702D01*
X86411811Y-119760261D01*
X86411808Y-119760262D01*
X86217001Y-119859523D01*
X86155360Y-119904306D01*
X86155360Y-119904307D01*
X86856414Y-120605361D01*
X86771306Y-120628167D01*
X86668694Y-120687410D01*
X86584910Y-120771194D01*
X86525667Y-120873806D01*
X86502861Y-120958914D01*
X85801807Y-120257860D01*
X85801806Y-120257860D01*
X85757023Y-120319501D01*
X85657762Y-120514308D01*
X85657761Y-120514311D01*
X85590202Y-120722240D01*
X85556000Y-120938183D01*
X83760023Y-120938183D01*
X83753592Y-120929332D01*
X83570668Y-120746408D01*
X83361382Y-120594353D01*
X83130885Y-120476909D01*
X82884854Y-120396968D01*
X82884852Y-120396967D01*
X82884850Y-120396967D01*
X82629351Y-120356500D01*
X82629346Y-120356500D01*
X82370654Y-120356500D01*
X82370649Y-120356500D01*
X82115149Y-120396967D01*
X81869112Y-120476910D01*
X81638617Y-120594353D01*
X81429329Y-120746410D01*
X81246410Y-120929329D01*
X81094353Y-121138617D01*
X80976910Y-121369112D01*
X80896967Y-121615149D01*
X80856500Y-121870648D01*
X50250500Y-121870648D01*
X50250500Y-115858138D01*
X85555500Y-115858138D01*
X85555500Y-116076861D01*
X85589714Y-116292876D01*
X85657297Y-116500880D01*
X85657298Y-116500883D01*
X85724782Y-116633325D01*
X85743563Y-116670185D01*
X85756595Y-116695760D01*
X85885142Y-116872693D01*
X86039806Y-117027357D01*
X86205374Y-117147647D01*
X86216743Y-117155907D01*
X86344132Y-117220815D01*
X86411616Y-117255201D01*
X86411619Y-117255202D01*
X86515621Y-117288993D01*
X86619625Y-117322786D01*
X86719672Y-117338632D01*
X86835639Y-117357000D01*
X86835644Y-117357000D01*
X87054361Y-117357000D01*
X87159082Y-117340412D01*
X87270375Y-117322786D01*
X87478383Y-117255201D01*
X87673257Y-117155907D01*
X87772601Y-117083729D01*
X87850193Y-117027357D01*
X87850195Y-117027354D01*
X87850199Y-117027352D01*
X88004852Y-116872699D01*
X88004854Y-116872695D01*
X88004857Y-116872693D01*
X88117407Y-116717779D01*
X88133407Y-116695757D01*
X88232701Y-116500883D01*
X88300286Y-116292875D01*
X88320400Y-116165880D01*
X88334500Y-116076861D01*
X88334500Y-115858138D01*
X91905500Y-115858138D01*
X91905500Y-116076861D01*
X91939714Y-116292876D01*
X92007297Y-116500880D01*
X92007298Y-116500883D01*
X92074782Y-116633325D01*
X92093563Y-116670185D01*
X92106595Y-116695760D01*
X92235142Y-116872693D01*
X92389806Y-117027357D01*
X92555374Y-117147647D01*
X92566743Y-117155907D01*
X92694132Y-117220815D01*
X92761616Y-117255201D01*
X92761619Y-117255202D01*
X92865621Y-117288993D01*
X92969625Y-117322786D01*
X93069672Y-117338632D01*
X93185639Y-117357000D01*
X93185644Y-117357000D01*
X93404361Y-117357000D01*
X93509082Y-117340412D01*
X93620375Y-117322786D01*
X93828383Y-117255201D01*
X94023257Y-117155907D01*
X94122601Y-117083729D01*
X94200193Y-117027357D01*
X94200195Y-117027354D01*
X94200199Y-117027352D01*
X94354852Y-116872699D01*
X94354854Y-116872695D01*
X94354857Y-116872693D01*
X94467407Y-116717779D01*
X94483407Y-116695757D01*
X94582701Y-116500883D01*
X94650286Y-116292875D01*
X94670400Y-116165880D01*
X94684500Y-116076861D01*
X94684500Y-115858138D01*
X94659530Y-115700492D01*
X94650286Y-115642125D01*
X94582701Y-115434117D01*
X94582701Y-115434116D01*
X94529556Y-115329815D01*
X94483407Y-115239243D01*
X94472425Y-115224127D01*
X94354857Y-115062306D01*
X94200193Y-114907642D01*
X94023260Y-114779095D01*
X94023259Y-114779094D01*
X94023257Y-114779093D01*
X93960825Y-114747282D01*
X93828383Y-114679798D01*
X93828380Y-114679797D01*
X93620376Y-114612214D01*
X93404361Y-114578000D01*
X93404356Y-114578000D01*
X93185644Y-114578000D01*
X93185639Y-114578000D01*
X92969623Y-114612214D01*
X92761619Y-114679797D01*
X92761616Y-114679798D01*
X92566739Y-114779095D01*
X92389806Y-114907642D01*
X92235142Y-115062306D01*
X92106595Y-115239239D01*
X92007298Y-115434116D01*
X92007297Y-115434119D01*
X91939714Y-115642123D01*
X91905500Y-115858138D01*
X88334500Y-115858138D01*
X88309530Y-115700492D01*
X88300286Y-115642125D01*
X88232701Y-115434117D01*
X88232701Y-115434116D01*
X88179556Y-115329815D01*
X88133407Y-115239243D01*
X88122425Y-115224127D01*
X88004857Y-115062306D01*
X87850193Y-114907642D01*
X87673260Y-114779095D01*
X87673259Y-114779094D01*
X87673257Y-114779093D01*
X87610825Y-114747282D01*
X87478383Y-114679798D01*
X87478380Y-114679797D01*
X87270376Y-114612214D01*
X87054361Y-114578000D01*
X87054356Y-114578000D01*
X86835644Y-114578000D01*
X86835639Y-114578000D01*
X86619623Y-114612214D01*
X86411619Y-114679797D01*
X86411616Y-114679798D01*
X86216739Y-114779095D01*
X86039806Y-114907642D01*
X85885142Y-115062306D01*
X85756595Y-115239239D01*
X85657298Y-115434116D01*
X85657297Y-115434119D01*
X85589714Y-115642123D01*
X85555500Y-115858138D01*
X50250500Y-115858138D01*
X50250500Y-99368872D01*
X63999500Y-99368872D01*
X63999500Y-99631127D01*
X64017109Y-99764872D01*
X64033730Y-99891116D01*
X64093219Y-100113132D01*
X64101602Y-100144418D01*
X64101605Y-100144428D01*
X64201953Y-100386690D01*
X64201958Y-100386700D01*
X64333075Y-100613803D01*
X64492718Y-100821851D01*
X64492726Y-100821860D01*
X64678140Y-101007274D01*
X64678148Y-101007281D01*
X64886196Y-101166924D01*
X65113299Y-101298041D01*
X65113309Y-101298046D01*
X65355571Y-101398394D01*
X65355581Y-101398398D01*
X65608884Y-101466270D01*
X65868880Y-101500500D01*
X65868887Y-101500500D01*
X66131113Y-101500500D01*
X66131120Y-101500500D01*
X66391116Y-101466270D01*
X66644419Y-101398398D01*
X66886697Y-101298043D01*
X67113803Y-101166924D01*
X67321851Y-101007282D01*
X67321855Y-101007277D01*
X67321860Y-101007274D01*
X67507274Y-100821860D01*
X67507277Y-100821855D01*
X67507282Y-100821851D01*
X67666924Y-100613803D01*
X67798043Y-100386697D01*
X67898398Y-100144419D01*
X67966270Y-99891116D01*
X68000500Y-99631120D01*
X68000500Y-99368880D01*
X68000499Y-99368872D01*
X85999500Y-99368872D01*
X85999500Y-99631127D01*
X86017109Y-99764872D01*
X86033730Y-99891116D01*
X86093219Y-100113132D01*
X86101602Y-100144418D01*
X86101605Y-100144428D01*
X86201953Y-100386690D01*
X86201958Y-100386700D01*
X86333075Y-100613803D01*
X86492718Y-100821851D01*
X86492726Y-100821860D01*
X86678140Y-101007274D01*
X86678148Y-101007281D01*
X86886196Y-101166924D01*
X87113299Y-101298041D01*
X87113309Y-101298046D01*
X87355571Y-101398394D01*
X87355581Y-101398398D01*
X87608884Y-101466270D01*
X87868880Y-101500500D01*
X87868887Y-101500500D01*
X88131113Y-101500500D01*
X88131120Y-101500500D01*
X88391116Y-101466270D01*
X88644419Y-101398398D01*
X88886697Y-101298043D01*
X89113803Y-101166924D01*
X89321851Y-101007282D01*
X89321855Y-101007277D01*
X89321860Y-101007274D01*
X89507274Y-100821860D01*
X89507277Y-100821855D01*
X89507282Y-100821851D01*
X89666924Y-100613803D01*
X89798043Y-100386697D01*
X89898398Y-100144419D01*
X89966270Y-99891116D01*
X90000500Y-99631120D01*
X90000500Y-99368880D01*
X89966270Y-99108884D01*
X89898398Y-98855581D01*
X89889722Y-98834635D01*
X89798046Y-98613309D01*
X89798041Y-98613299D01*
X89666924Y-98386196D01*
X89507281Y-98178148D01*
X89507274Y-98178140D01*
X89321860Y-97992726D01*
X89321851Y-97992718D01*
X89113803Y-97833075D01*
X88886700Y-97701958D01*
X88886690Y-97701953D01*
X88644428Y-97601605D01*
X88644421Y-97601603D01*
X88644419Y-97601602D01*
X88391116Y-97533730D01*
X88333339Y-97526123D01*
X88131127Y-97499500D01*
X88131120Y-97499500D01*
X87868880Y-97499500D01*
X87868872Y-97499500D01*
X87637772Y-97529926D01*
X87608884Y-97533730D01*
X87355581Y-97601602D01*
X87355571Y-97601605D01*
X87113309Y-97701953D01*
X87113299Y-97701958D01*
X86886196Y-97833075D01*
X86678148Y-97992718D01*
X86492718Y-98178148D01*
X86333075Y-98386196D01*
X86201958Y-98613299D01*
X86201953Y-98613309D01*
X86101605Y-98855571D01*
X86101602Y-98855581D01*
X86042200Y-99077276D01*
X86033730Y-99108885D01*
X85999500Y-99368872D01*
X68000499Y-99368872D01*
X67966270Y-99108884D01*
X67898398Y-98855581D01*
X67889722Y-98834635D01*
X67798046Y-98613309D01*
X67798041Y-98613299D01*
X67666924Y-98386196D01*
X67507281Y-98178148D01*
X67507274Y-98178140D01*
X67321860Y-97992726D01*
X67321851Y-97992718D01*
X67113803Y-97833075D01*
X66886700Y-97701958D01*
X66886690Y-97701953D01*
X66644428Y-97601605D01*
X66644421Y-97601603D01*
X66644419Y-97601602D01*
X66391116Y-97533730D01*
X66333339Y-97526123D01*
X66131127Y-97499500D01*
X66131120Y-97499500D01*
X65868880Y-97499500D01*
X65868872Y-97499500D01*
X65637772Y-97529926D01*
X65608884Y-97533730D01*
X65355581Y-97601602D01*
X65355571Y-97601605D01*
X65113309Y-97701953D01*
X65113299Y-97701958D01*
X64886196Y-97833075D01*
X64678148Y-97992718D01*
X64492718Y-98178148D01*
X64333075Y-98386196D01*
X64201958Y-98613299D01*
X64201953Y-98613309D01*
X64101605Y-98855571D01*
X64101602Y-98855581D01*
X64042200Y-99077276D01*
X64033730Y-99108885D01*
X63999500Y-99368872D01*
X50250500Y-99368872D01*
X50250500Y-87157500D01*
X115585000Y-87157500D01*
X115585000Y-105157500D01*
X121885000Y-105157500D01*
X121913319Y-105129181D01*
X121974642Y-105095696D01*
X122044334Y-105100680D01*
X122100267Y-105142552D01*
X122124684Y-105208016D01*
X122125000Y-105216862D01*
X122125000Y-105705344D01*
X122131401Y-105764872D01*
X122131403Y-105764879D01*
X122181645Y-105899586D01*
X122181649Y-105899593D01*
X122267809Y-106014687D01*
X122267812Y-106014690D01*
X122382906Y-106100850D01*
X122382913Y-106100854D01*
X122517620Y-106151096D01*
X122517627Y-106151098D01*
X122577155Y-106157499D01*
X122577172Y-106157500D01*
X122825000Y-106157500D01*
X122825000Y-103157500D01*
X122577155Y-103157500D01*
X122517627Y-103163901D01*
X122517620Y-103163903D01*
X122382913Y-103214145D01*
X122382906Y-103214149D01*
X122267812Y-103300309D01*
X122267809Y-103300312D01*
X122181649Y-103415406D01*
X122181645Y-103415413D01*
X122131403Y-103550118D01*
X122129678Y-103557423D01*
X122095106Y-103618140D01*
X122033196Y-103650527D01*
X121963604Y-103644303D01*
X121908425Y-103601442D01*
X121885178Y-103535553D01*
X121885000Y-103528911D01*
X121885000Y-99705344D01*
X127575000Y-99705344D01*
X127581401Y-99764872D01*
X127581403Y-99764879D01*
X127631645Y-99899586D01*
X127631649Y-99899593D01*
X127717809Y-100014687D01*
X127717812Y-100014690D01*
X127832906Y-100100850D01*
X127832913Y-100100854D01*
X127967620Y-100151096D01*
X127967627Y-100151098D01*
X128027155Y-100157499D01*
X128027172Y-100157500D01*
X128490000Y-100157500D01*
X128990000Y-100157500D01*
X129452828Y-100157500D01*
X129452844Y-100157499D01*
X129512372Y-100151098D01*
X129512376Y-100151097D01*
X129614166Y-100113132D01*
X129683858Y-100108148D01*
X129700834Y-100113132D01*
X129802623Y-100151097D01*
X129802627Y-100151098D01*
X129862155Y-100157499D01*
X129862172Y-100157500D01*
X130325000Y-100157500D01*
X130825000Y-100157500D01*
X131287828Y-100157500D01*
X131287844Y-100157499D01*
X131347372Y-100151098D01*
X131347376Y-100151097D01*
X131449166Y-100113132D01*
X131518858Y-100108148D01*
X131535834Y-100113132D01*
X131637623Y-100151097D01*
X131637627Y-100151098D01*
X131697155Y-100157499D01*
X131697172Y-100157500D01*
X132160000Y-100157500D01*
X132660000Y-100157500D01*
X133122828Y-100157500D01*
X133122844Y-100157499D01*
X133182372Y-100151098D01*
X133182379Y-100151096D01*
X133317086Y-100100854D01*
X133317093Y-100100850D01*
X133432187Y-100014690D01*
X133432190Y-100014687D01*
X133518350Y-99899593D01*
X133518354Y-99899586D01*
X133568596Y-99764879D01*
X133568598Y-99764872D01*
X133574999Y-99705344D01*
X133575000Y-99705327D01*
X133575000Y-99242500D01*
X132660000Y-99242500D01*
X132660000Y-100157500D01*
X132160000Y-100157500D01*
X132160000Y-99242500D01*
X130825000Y-99242500D01*
X130825000Y-100157500D01*
X130325000Y-100157500D01*
X130325000Y-99242500D01*
X128990000Y-99242500D01*
X128990000Y-100157500D01*
X128490000Y-100157500D01*
X128490000Y-99242500D01*
X127575000Y-99242500D01*
X127575000Y-99705344D01*
X121885000Y-99705344D01*
X121885000Y-98972609D01*
X129557500Y-98972609D01*
X129557500Y-99012391D01*
X129572724Y-99049145D01*
X129600855Y-99077276D01*
X129637609Y-99092500D01*
X129677391Y-99092500D01*
X129714145Y-99077276D01*
X129742276Y-99049145D01*
X129757500Y-99012391D01*
X129757500Y-98972609D01*
X131392500Y-98972609D01*
X131392500Y-99012391D01*
X131407724Y-99049145D01*
X131435855Y-99077276D01*
X131472609Y-99092500D01*
X131512391Y-99092500D01*
X131549145Y-99077276D01*
X131577276Y-99049145D01*
X131592500Y-99012391D01*
X131592500Y-98972609D01*
X131577276Y-98935855D01*
X131549145Y-98907724D01*
X131512391Y-98892500D01*
X131472609Y-98892500D01*
X131435855Y-98907724D01*
X131407724Y-98935855D01*
X131392500Y-98972609D01*
X129757500Y-98972609D01*
X129742276Y-98935855D01*
X129714145Y-98907724D01*
X129677391Y-98892500D01*
X129637609Y-98892500D01*
X129600855Y-98907724D01*
X129572724Y-98935855D01*
X129557500Y-98972609D01*
X121885000Y-98972609D01*
X121885000Y-97870344D01*
X127575000Y-97870344D01*
X127581401Y-97929872D01*
X127581403Y-97929880D01*
X127619367Y-98031667D01*
X127624351Y-98101359D01*
X127619367Y-98118333D01*
X127581403Y-98220119D01*
X127581401Y-98220127D01*
X127575000Y-98279655D01*
X127575000Y-98742500D01*
X128490000Y-98742500D01*
X128990000Y-98742500D01*
X129195367Y-98742500D01*
X129185477Y-98732610D01*
X129185477Y-98732609D01*
X128990000Y-98537131D01*
X128990000Y-98742500D01*
X128490000Y-98742500D01*
X128490000Y-98055109D01*
X128640000Y-98055109D01*
X128640000Y-98094891D01*
X128655224Y-98131645D01*
X128683355Y-98159776D01*
X128720109Y-98175000D01*
X128759891Y-98175000D01*
X128796645Y-98159776D01*
X128824776Y-98131645D01*
X128840000Y-98094891D01*
X128840000Y-98055109D01*
X128832553Y-98037131D01*
X128990000Y-98037131D01*
X128990000Y-98112868D01*
X129619632Y-98742500D01*
X129695368Y-98742500D01*
X130119633Y-98742500D01*
X130325000Y-98742500D01*
X130825000Y-98742500D01*
X131030367Y-98742500D01*
X131020477Y-98732610D01*
X131020477Y-98732609D01*
X130825000Y-98537131D01*
X130825000Y-98742500D01*
X130325000Y-98742500D01*
X130325000Y-98537132D01*
X130324999Y-98537131D01*
X130129523Y-98732609D01*
X130129523Y-98732610D01*
X130119633Y-98742500D01*
X129695368Y-98742500D01*
X129695368Y-98742499D01*
X129812144Y-98625724D01*
X130324999Y-98112868D01*
X130325000Y-98112867D01*
X130325000Y-98055109D01*
X130475000Y-98055109D01*
X130475000Y-98094891D01*
X130490224Y-98131645D01*
X130518355Y-98159776D01*
X130555109Y-98175000D01*
X130594891Y-98175000D01*
X130631645Y-98159776D01*
X130659776Y-98131645D01*
X130675000Y-98094891D01*
X130675000Y-98055109D01*
X130667553Y-98037131D01*
X130825000Y-98037131D01*
X130825000Y-98112868D01*
X131454632Y-98742500D01*
X131530368Y-98742500D01*
X131954633Y-98742500D01*
X132160000Y-98742500D01*
X132660000Y-98742500D01*
X133575000Y-98742500D01*
X133575000Y-98279672D01*
X133574999Y-98279655D01*
X133568598Y-98220127D01*
X133568597Y-98220123D01*
X133530632Y-98118334D01*
X133525648Y-98048642D01*
X133530632Y-98031666D01*
X133568597Y-97929876D01*
X133568598Y-97929872D01*
X133574999Y-97870344D01*
X133575000Y-97870327D01*
X133575000Y-97407500D01*
X132660000Y-97407500D01*
X132660000Y-98742500D01*
X132160000Y-98742500D01*
X132160000Y-98537132D01*
X132159999Y-98537131D01*
X131964525Y-98732606D01*
X131964523Y-98732610D01*
X131954633Y-98742500D01*
X131530368Y-98742500D01*
X131530368Y-98742499D01*
X131647144Y-98625724D01*
X132159999Y-98112868D01*
X132160000Y-98112867D01*
X132160000Y-98055109D01*
X132310000Y-98055109D01*
X132310000Y-98094891D01*
X132325224Y-98131645D01*
X132353355Y-98159776D01*
X132390109Y-98175000D01*
X132429891Y-98175000D01*
X132466645Y-98159776D01*
X132494776Y-98131645D01*
X132510000Y-98094891D01*
X132510000Y-98055109D01*
X132494776Y-98018355D01*
X132466645Y-97990224D01*
X132429891Y-97975000D01*
X132390109Y-97975000D01*
X132353355Y-97990224D01*
X132325224Y-98018355D01*
X132310000Y-98055109D01*
X132160000Y-98055109D01*
X132160000Y-98037132D01*
X131530368Y-97407500D01*
X131954633Y-97407500D01*
X131964523Y-97417390D01*
X131964523Y-97417391D01*
X132159999Y-97612868D01*
X132160000Y-97612867D01*
X132160000Y-97407500D01*
X131954633Y-97407500D01*
X131530368Y-97407500D01*
X131454631Y-97407500D01*
X130825000Y-98037131D01*
X130667553Y-98037131D01*
X130659776Y-98018355D01*
X130631645Y-97990224D01*
X130594891Y-97975000D01*
X130555109Y-97975000D01*
X130518355Y-97990224D01*
X130490224Y-98018355D01*
X130475000Y-98055109D01*
X130325000Y-98055109D01*
X130325000Y-98037132D01*
X129695368Y-97407500D01*
X130119633Y-97407500D01*
X130129523Y-97417390D01*
X130129523Y-97417391D01*
X130324999Y-97612868D01*
X130825000Y-97612868D01*
X131020477Y-97417391D01*
X131020477Y-97417390D01*
X131030367Y-97407500D01*
X130825000Y-97407500D01*
X130825000Y-97612868D01*
X130324999Y-97612868D01*
X130325000Y-97612867D01*
X130325000Y-97407500D01*
X130119633Y-97407500D01*
X129695368Y-97407500D01*
X129619631Y-97407500D01*
X128990000Y-98037131D01*
X128832553Y-98037131D01*
X128824776Y-98018355D01*
X128796645Y-97990224D01*
X128759891Y-97975000D01*
X128720109Y-97975000D01*
X128683355Y-97990224D01*
X128655224Y-98018355D01*
X128640000Y-98055109D01*
X128490000Y-98055109D01*
X128490000Y-97612868D01*
X128990000Y-97612868D01*
X129185477Y-97417391D01*
X129185477Y-97417390D01*
X129195367Y-97407500D01*
X128990000Y-97407500D01*
X128990000Y-97612868D01*
X128490000Y-97612868D01*
X128490000Y-97407500D01*
X127575000Y-97407500D01*
X127575000Y-97870344D01*
X121885000Y-97870344D01*
X121885000Y-97137609D01*
X129557500Y-97137609D01*
X129557500Y-97177391D01*
X129572724Y-97214145D01*
X129600855Y-97242276D01*
X129637609Y-97257500D01*
X129677391Y-97257500D01*
X129714145Y-97242276D01*
X129742276Y-97214145D01*
X129757500Y-97177391D01*
X129757500Y-97137609D01*
X131392500Y-97137609D01*
X131392500Y-97177391D01*
X131407724Y-97214145D01*
X131435855Y-97242276D01*
X131472609Y-97257500D01*
X131512391Y-97257500D01*
X131549145Y-97242276D01*
X131577276Y-97214145D01*
X131592500Y-97177391D01*
X131592500Y-97137609D01*
X131577276Y-97100855D01*
X131549145Y-97072724D01*
X131512391Y-97057500D01*
X131472609Y-97057500D01*
X131435855Y-97072724D01*
X131407724Y-97100855D01*
X131392500Y-97137609D01*
X129757500Y-97137609D01*
X129742276Y-97100855D01*
X129714145Y-97072724D01*
X129677391Y-97057500D01*
X129637609Y-97057500D01*
X129600855Y-97072724D01*
X129572724Y-97100855D01*
X129557500Y-97137609D01*
X121885000Y-97137609D01*
X121885000Y-96035344D01*
X127575000Y-96035344D01*
X127581401Y-96094872D01*
X127581403Y-96094880D01*
X127619367Y-96196667D01*
X127624351Y-96266359D01*
X127619367Y-96283333D01*
X127581403Y-96385119D01*
X127581401Y-96385127D01*
X127575000Y-96444655D01*
X127575000Y-96907500D01*
X128490000Y-96907500D01*
X128990000Y-96907500D01*
X129195367Y-96907500D01*
X129185477Y-96897610D01*
X129185477Y-96897609D01*
X128990000Y-96702131D01*
X128990000Y-96907500D01*
X128490000Y-96907500D01*
X128490000Y-96220109D01*
X128640000Y-96220109D01*
X128640000Y-96259891D01*
X128655224Y-96296645D01*
X128683355Y-96324776D01*
X128720109Y-96340000D01*
X128759891Y-96340000D01*
X128796645Y-96324776D01*
X128824776Y-96296645D01*
X128840000Y-96259891D01*
X128840000Y-96220109D01*
X128832553Y-96202131D01*
X128990000Y-96202131D01*
X128990000Y-96277868D01*
X129619632Y-96907500D01*
X129695368Y-96907500D01*
X130119633Y-96907500D01*
X130325000Y-96907500D01*
X130825000Y-96907500D01*
X131030367Y-96907500D01*
X131020477Y-96897610D01*
X131020477Y-96897609D01*
X130825000Y-96702131D01*
X130825000Y-96907500D01*
X130325000Y-96907500D01*
X130325000Y-96702132D01*
X130324999Y-96702131D01*
X130129523Y-96897609D01*
X130129523Y-96897610D01*
X130119633Y-96907500D01*
X129695368Y-96907500D01*
X129695368Y-96907499D01*
X129812144Y-96790724D01*
X130324999Y-96277868D01*
X130325000Y-96277867D01*
X130325000Y-96220109D01*
X130475000Y-96220109D01*
X130475000Y-96259891D01*
X130490224Y-96296645D01*
X130518355Y-96324776D01*
X130555109Y-96340000D01*
X130594891Y-96340000D01*
X130631645Y-96324776D01*
X130659776Y-96296645D01*
X130675000Y-96259891D01*
X130675000Y-96220109D01*
X130667553Y-96202131D01*
X130825000Y-96202131D01*
X130825000Y-96277868D01*
X131454632Y-96907500D01*
X131530368Y-96907500D01*
X131954633Y-96907500D01*
X132160000Y-96907500D01*
X132660000Y-96907500D01*
X133575000Y-96907500D01*
X133575000Y-96444672D01*
X133574999Y-96444655D01*
X133568598Y-96385127D01*
X133568597Y-96385123D01*
X133530632Y-96283334D01*
X133525648Y-96213642D01*
X133530632Y-96196666D01*
X133568597Y-96094876D01*
X133568598Y-96094872D01*
X133574999Y-96035344D01*
X133575000Y-96035327D01*
X133575000Y-95572500D01*
X132660000Y-95572500D01*
X132660000Y-96907500D01*
X132160000Y-96907500D01*
X132160000Y-96702132D01*
X132159999Y-96702131D01*
X131964525Y-96897606D01*
X131964523Y-96897610D01*
X131954633Y-96907500D01*
X131530368Y-96907500D01*
X131530368Y-96907499D01*
X131647144Y-96790724D01*
X132159999Y-96277868D01*
X132160000Y-96277867D01*
X132160000Y-96220109D01*
X132310000Y-96220109D01*
X132310000Y-96259891D01*
X132325224Y-96296645D01*
X132353355Y-96324776D01*
X132390109Y-96340000D01*
X132429891Y-96340000D01*
X132466645Y-96324776D01*
X132494776Y-96296645D01*
X132510000Y-96259891D01*
X132510000Y-96220109D01*
X132494776Y-96183355D01*
X132466645Y-96155224D01*
X132429891Y-96140000D01*
X132390109Y-96140000D01*
X132353355Y-96155224D01*
X132325224Y-96183355D01*
X132310000Y-96220109D01*
X132160000Y-96220109D01*
X132160000Y-96202132D01*
X131530368Y-95572500D01*
X131954633Y-95572500D01*
X131964523Y-95582390D01*
X131964523Y-95582391D01*
X132159999Y-95777868D01*
X132160000Y-95777867D01*
X132160000Y-95572500D01*
X131954633Y-95572500D01*
X131530368Y-95572500D01*
X131454631Y-95572500D01*
X130825000Y-96202131D01*
X130667553Y-96202131D01*
X130659776Y-96183355D01*
X130631645Y-96155224D01*
X130594891Y-96140000D01*
X130555109Y-96140000D01*
X130518355Y-96155224D01*
X130490224Y-96183355D01*
X130475000Y-96220109D01*
X130325000Y-96220109D01*
X130325000Y-96202132D01*
X129695368Y-95572500D01*
X130119633Y-95572500D01*
X130129523Y-95582390D01*
X130129523Y-95582391D01*
X130324999Y-95777868D01*
X130825000Y-95777868D01*
X131020477Y-95582391D01*
X131020477Y-95582390D01*
X131030367Y-95572500D01*
X130825000Y-95572500D01*
X130825000Y-95777868D01*
X130324999Y-95777868D01*
X130325000Y-95777867D01*
X130325000Y-95572500D01*
X130119633Y-95572500D01*
X129695368Y-95572500D01*
X129619631Y-95572500D01*
X128990000Y-96202131D01*
X128832553Y-96202131D01*
X128824776Y-96183355D01*
X128796645Y-96155224D01*
X128759891Y-96140000D01*
X128720109Y-96140000D01*
X128683355Y-96155224D01*
X128655224Y-96183355D01*
X128640000Y-96220109D01*
X128490000Y-96220109D01*
X128490000Y-95777868D01*
X128990000Y-95777868D01*
X129185477Y-95582391D01*
X129185477Y-95582390D01*
X129195367Y-95572500D01*
X128990000Y-95572500D01*
X128990000Y-95777868D01*
X128490000Y-95777868D01*
X128490000Y-95572500D01*
X127575000Y-95572500D01*
X127575000Y-96035344D01*
X121885000Y-96035344D01*
X121885000Y-95302609D01*
X129557500Y-95302609D01*
X129557500Y-95342391D01*
X129572724Y-95379145D01*
X129600855Y-95407276D01*
X129637609Y-95422500D01*
X129677391Y-95422500D01*
X129714145Y-95407276D01*
X129742276Y-95379145D01*
X129757500Y-95342391D01*
X129757500Y-95302609D01*
X131392500Y-95302609D01*
X131392500Y-95342391D01*
X131407724Y-95379145D01*
X131435855Y-95407276D01*
X131472609Y-95422500D01*
X131512391Y-95422500D01*
X131549145Y-95407276D01*
X131577276Y-95379145D01*
X131592500Y-95342391D01*
X131592500Y-95302609D01*
X131577276Y-95265855D01*
X131549145Y-95237724D01*
X131512391Y-95222500D01*
X131472609Y-95222500D01*
X131435855Y-95237724D01*
X131407724Y-95265855D01*
X131392500Y-95302609D01*
X129757500Y-95302609D01*
X129742276Y-95265855D01*
X129714145Y-95237724D01*
X129677391Y-95222500D01*
X129637609Y-95222500D01*
X129600855Y-95237724D01*
X129572724Y-95265855D01*
X129557500Y-95302609D01*
X121885000Y-95302609D01*
X121885000Y-94609655D01*
X127575000Y-94609655D01*
X127575000Y-95072500D01*
X128490000Y-95072500D01*
X128990000Y-95072500D01*
X130325000Y-95072500D01*
X130825000Y-95072500D01*
X132160000Y-95072500D01*
X132660000Y-95072500D01*
X133575000Y-95072500D01*
X133575000Y-94609672D01*
X133574999Y-94609655D01*
X133568598Y-94550127D01*
X133568596Y-94550120D01*
X133518354Y-94415413D01*
X133518350Y-94415406D01*
X133432190Y-94300312D01*
X133432187Y-94300309D01*
X133317093Y-94214149D01*
X133317086Y-94214145D01*
X133182379Y-94163903D01*
X133182372Y-94163901D01*
X133122844Y-94157500D01*
X132660000Y-94157500D01*
X132660000Y-95072500D01*
X132160000Y-95072500D01*
X132160000Y-94157500D01*
X131697155Y-94157500D01*
X131637627Y-94163901D01*
X131637619Y-94163903D01*
X131535833Y-94201867D01*
X131466141Y-94206851D01*
X131449167Y-94201867D01*
X131347380Y-94163903D01*
X131347372Y-94163901D01*
X131287844Y-94157500D01*
X130825000Y-94157500D01*
X130825000Y-95072500D01*
X130325000Y-95072500D01*
X130325000Y-94157500D01*
X129862155Y-94157500D01*
X129802627Y-94163901D01*
X129802619Y-94163903D01*
X129700833Y-94201867D01*
X129631141Y-94206851D01*
X129614167Y-94201867D01*
X129512380Y-94163903D01*
X129512372Y-94163901D01*
X129452844Y-94157500D01*
X128990000Y-94157500D01*
X128990000Y-95072500D01*
X128490000Y-95072500D01*
X128490000Y-94157500D01*
X128027155Y-94157500D01*
X127967627Y-94163901D01*
X127967620Y-94163903D01*
X127832913Y-94214145D01*
X127832906Y-94214149D01*
X127717812Y-94300309D01*
X127717809Y-94300312D01*
X127631649Y-94415406D01*
X127631645Y-94415413D01*
X127581403Y-94550120D01*
X127581401Y-94550127D01*
X127575000Y-94609655D01*
X121885000Y-94609655D01*
X121885000Y-89944635D01*
X139084500Y-89944635D01*
X139084500Y-90940370D01*
X139084501Y-90940376D01*
X139090908Y-90999981D01*
X139103659Y-91034169D01*
X139108642Y-91103861D01*
X139103659Y-91120831D01*
X139090908Y-91155018D01*
X139084501Y-91214616D01*
X139084501Y-91214623D01*
X139084500Y-91214635D01*
X139084500Y-92210370D01*
X139084501Y-92210376D01*
X139090908Y-92269981D01*
X139103659Y-92304169D01*
X139108642Y-92373861D01*
X139103659Y-92390831D01*
X139090908Y-92425018D01*
X139084501Y-92484616D01*
X139084501Y-92484623D01*
X139084500Y-92484635D01*
X139084500Y-93480370D01*
X139084501Y-93480376D01*
X139090908Y-93539981D01*
X139103659Y-93574169D01*
X139108642Y-93643861D01*
X139103659Y-93660831D01*
X139090908Y-93695018D01*
X139084501Y-93754616D01*
X139084501Y-93754623D01*
X139084500Y-93754635D01*
X139084500Y-94750370D01*
X139084501Y-94750376D01*
X139090908Y-94809981D01*
X139103659Y-94844169D01*
X139108642Y-94913861D01*
X139103659Y-94930831D01*
X139090908Y-94965018D01*
X139088265Y-94989606D01*
X139084501Y-95024623D01*
X139084500Y-95024635D01*
X139084500Y-96020370D01*
X139084501Y-96020376D01*
X139090908Y-96079981D01*
X139103659Y-96114169D01*
X139108642Y-96183861D01*
X139103659Y-96200831D01*
X139090908Y-96235018D01*
X139085714Y-96283333D01*
X139084501Y-96294623D01*
X139084500Y-96294635D01*
X139084500Y-97290370D01*
X139084501Y-97290376D01*
X139090908Y-97349981D01*
X139103659Y-97384169D01*
X139108642Y-97453861D01*
X139103659Y-97470831D01*
X139090908Y-97505018D01*
X139084501Y-97564616D01*
X139084501Y-97564623D01*
X139084500Y-97564635D01*
X139084500Y-98560370D01*
X139084501Y-98560376D01*
X139090908Y-98619981D01*
X139103659Y-98654169D01*
X139108642Y-98723861D01*
X139103659Y-98740831D01*
X139090908Y-98775018D01*
X139084501Y-98834616D01*
X139084501Y-98834623D01*
X139084500Y-98834635D01*
X139084500Y-99830370D01*
X139084501Y-99830376D01*
X139090908Y-99889981D01*
X139103659Y-99924169D01*
X139108642Y-99993861D01*
X139103659Y-100010831D01*
X139090908Y-100045018D01*
X139084501Y-100104616D01*
X139084501Y-100104623D01*
X139084500Y-100104635D01*
X139084500Y-101100370D01*
X139084501Y-101100376D01*
X139090908Y-101159983D01*
X139103925Y-101194881D01*
X139108909Y-101264572D01*
X139103925Y-101281547D01*
X139091403Y-101315119D01*
X139091401Y-101315127D01*
X139085000Y-101374655D01*
X139085000Y-101622500D01*
X142085000Y-101622500D01*
X142085000Y-101374672D01*
X142084999Y-101374655D01*
X142078597Y-101315122D01*
X142078597Y-101315120D01*
X142066075Y-101281548D01*
X142061089Y-101211856D01*
X142066071Y-101194890D01*
X142079091Y-101159983D01*
X142085500Y-101100373D01*
X142085499Y-100104628D01*
X142079091Y-100045017D01*
X142066340Y-100010832D01*
X142061357Y-99941142D01*
X142066340Y-99924169D01*
X142079091Y-99889983D01*
X142085500Y-99830373D01*
X142085499Y-98834628D01*
X142079091Y-98775017D01*
X142066340Y-98740832D01*
X142061357Y-98671142D01*
X142066340Y-98654169D01*
X142079091Y-98619983D01*
X142085500Y-98560373D01*
X142085499Y-97564628D01*
X142079091Y-97505017D01*
X142066340Y-97470832D01*
X142061357Y-97401142D01*
X142066340Y-97384169D01*
X142079091Y-97349983D01*
X142085500Y-97290373D01*
X142085499Y-96294628D01*
X142079091Y-96235017D01*
X142066340Y-96200832D01*
X142061357Y-96131142D01*
X142066340Y-96114169D01*
X142079091Y-96079983D01*
X142085500Y-96020373D01*
X142085499Y-95024628D01*
X142079091Y-94965017D01*
X142066340Y-94930832D01*
X142061357Y-94861142D01*
X142066340Y-94844169D01*
X142079091Y-94809983D01*
X142085500Y-94750373D01*
X142085499Y-93754628D01*
X142079091Y-93695017D01*
X142066340Y-93660832D01*
X142061357Y-93591142D01*
X142066340Y-93574169D01*
X142079091Y-93539983D01*
X142085500Y-93480373D01*
X142085499Y-92484628D01*
X142079091Y-92425017D01*
X142066340Y-92390832D01*
X142061357Y-92321142D01*
X142066340Y-92304169D01*
X142079091Y-92269983D01*
X142085500Y-92210373D01*
X142085499Y-91214628D01*
X142079091Y-91155017D01*
X142066340Y-91120832D01*
X142061357Y-91051142D01*
X142066340Y-91034169D01*
X142079091Y-90999983D01*
X142085500Y-90940373D01*
X142085499Y-89944628D01*
X142079091Y-89885017D01*
X142074386Y-89872403D01*
X142028797Y-89750171D01*
X142028793Y-89750164D01*
X141942547Y-89634955D01*
X141942544Y-89634952D01*
X141827335Y-89548706D01*
X141827328Y-89548702D01*
X141692482Y-89498408D01*
X141692483Y-89498408D01*
X141632883Y-89492001D01*
X141632881Y-89492000D01*
X141632873Y-89492000D01*
X141632864Y-89492000D01*
X139537129Y-89492000D01*
X139537123Y-89492001D01*
X139477516Y-89498408D01*
X139342671Y-89548702D01*
X139342664Y-89548706D01*
X139227455Y-89634952D01*
X139227452Y-89634955D01*
X139141206Y-89750164D01*
X139141202Y-89750171D01*
X139090908Y-89885017D01*
X139085604Y-89934356D01*
X139084501Y-89944623D01*
X139084500Y-89944635D01*
X121885000Y-89944635D01*
X121885000Y-88786088D01*
X121904685Y-88719049D01*
X121957489Y-88673294D01*
X122026647Y-88663350D01*
X122090203Y-88692375D01*
X122127977Y-88751153D01*
X122129678Y-88757578D01*
X122131402Y-88764878D01*
X122181645Y-88899586D01*
X122181649Y-88899593D01*
X122267809Y-89014687D01*
X122267812Y-89014690D01*
X122382906Y-89100850D01*
X122382913Y-89100854D01*
X122517620Y-89151096D01*
X122517627Y-89151098D01*
X122577155Y-89157499D01*
X122577172Y-89157500D01*
X122825000Y-89157500D01*
X122825000Y-86157500D01*
X122577155Y-86157500D01*
X122517627Y-86163901D01*
X122517620Y-86163903D01*
X122382913Y-86214145D01*
X122382906Y-86214149D01*
X122267812Y-86300309D01*
X122267809Y-86300312D01*
X122181649Y-86415406D01*
X122181645Y-86415413D01*
X122131403Y-86550120D01*
X122131401Y-86550127D01*
X122125000Y-86609655D01*
X122125000Y-87098138D01*
X122105315Y-87165177D01*
X122052511Y-87210932D01*
X121983353Y-87220876D01*
X121919797Y-87191851D01*
X121913319Y-87185819D01*
X121885000Y-87157500D01*
X115585000Y-87157500D01*
X50250500Y-87157500D01*
X50250500Y-77368872D01*
X63999500Y-77368872D01*
X63999500Y-77631127D01*
X64021977Y-77801844D01*
X64033730Y-77891116D01*
X64101602Y-78144418D01*
X64101605Y-78144428D01*
X64201953Y-78386690D01*
X64201958Y-78386700D01*
X64333075Y-78613803D01*
X64492718Y-78821851D01*
X64492726Y-78821860D01*
X64678140Y-79007274D01*
X64678148Y-79007281D01*
X64886196Y-79166924D01*
X65113299Y-79298041D01*
X65113309Y-79298046D01*
X65355571Y-79398394D01*
X65355581Y-79398398D01*
X65608884Y-79466270D01*
X65868880Y-79500500D01*
X65868887Y-79500500D01*
X66131113Y-79500500D01*
X66131120Y-79500500D01*
X66391116Y-79466270D01*
X66644419Y-79398398D01*
X66886697Y-79298043D01*
X67113803Y-79166924D01*
X67321851Y-79007282D01*
X67321855Y-79007277D01*
X67321860Y-79007274D01*
X67507274Y-78821860D01*
X67507277Y-78821855D01*
X67507282Y-78821851D01*
X67666924Y-78613803D01*
X67798043Y-78386697D01*
X67898398Y-78144419D01*
X67966270Y-77891116D01*
X68000500Y-77631120D01*
X68000500Y-77368880D01*
X67984849Y-77250000D01*
X67980218Y-77214823D01*
X67975892Y-77181973D01*
X67966270Y-77108884D01*
X67898398Y-76855581D01*
X67854665Y-76750000D01*
X67798046Y-76613309D01*
X67798041Y-76613299D01*
X67666927Y-76386201D01*
X67587122Y-76282198D01*
X67522633Y-76198155D01*
X71936000Y-76198155D01*
X71936000Y-76750000D01*
X72756988Y-76750000D01*
X72724075Y-76807007D01*
X72690000Y-76934174D01*
X72690000Y-77065826D01*
X72724075Y-77192993D01*
X72756988Y-77250000D01*
X71936000Y-77250000D01*
X71936000Y-77801844D01*
X71942401Y-77861372D01*
X71942403Y-77861379D01*
X71992645Y-77996086D01*
X71992649Y-77996093D01*
X72078809Y-78111187D01*
X72078812Y-78111190D01*
X72193906Y-78197350D01*
X72193913Y-78197354D01*
X72328620Y-78247596D01*
X72328627Y-78247598D01*
X72388155Y-78253999D01*
X72388172Y-78254000D01*
X72940000Y-78254000D01*
X72940000Y-77433012D01*
X72997007Y-77465925D01*
X73124174Y-77500000D01*
X73255826Y-77500000D01*
X73382993Y-77465925D01*
X73440000Y-77433012D01*
X73440000Y-78254000D01*
X73991828Y-78254000D01*
X73991844Y-78253999D01*
X74051372Y-78247598D01*
X74051379Y-78247596D01*
X74186086Y-78197354D01*
X74186093Y-78197350D01*
X74301187Y-78111190D01*
X74301190Y-78111187D01*
X74387350Y-77996093D01*
X74387354Y-77996086D01*
X74437596Y-77861379D01*
X74437598Y-77861372D01*
X74443999Y-77801844D01*
X74444000Y-77801827D01*
X74444000Y-77745887D01*
X74463685Y-77678848D01*
X74516489Y-77633093D01*
X74585647Y-77623149D01*
X74649203Y-77652174D01*
X74668314Y-77672997D01*
X74773117Y-77817246D01*
X74773121Y-77817252D01*
X74912753Y-77956884D01*
X75062234Y-78065486D01*
X75072499Y-78072944D01*
X75248439Y-78162591D01*
X75355417Y-78197350D01*
X75436236Y-78223610D01*
X75631264Y-78254500D01*
X75631269Y-78254500D01*
X75828736Y-78254500D01*
X76023763Y-78223610D01*
X76031239Y-78221181D01*
X76211561Y-78162591D01*
X76387501Y-78072944D01*
X76493288Y-77996086D01*
X76547246Y-77956884D01*
X76547248Y-77956881D01*
X76547252Y-77956879D01*
X76686879Y-77817252D01*
X76686881Y-77817248D01*
X76686884Y-77817246D01*
X76802941Y-77657505D01*
X76802942Y-77657504D01*
X76802944Y-77657501D01*
X76889517Y-77487593D01*
X76937490Y-77436800D01*
X77005311Y-77420005D01*
X77071446Y-77442542D01*
X77110482Y-77487593D01*
X77183614Y-77631120D01*
X77197058Y-77657505D01*
X77313115Y-77817246D01*
X77452753Y-77956884D01*
X77602234Y-78065486D01*
X77612499Y-78072944D01*
X77788439Y-78162591D01*
X77895417Y-78197350D01*
X77976236Y-78223610D01*
X78171264Y-78254500D01*
X78171269Y-78254500D01*
X78368735Y-78254500D01*
X78490433Y-78235224D01*
X78509906Y-78232140D01*
X78579200Y-78241094D01*
X78616986Y-78266932D01*
X82855325Y-82505272D01*
X82855326Y-82505273D01*
X82855329Y-82505275D01*
X82855331Y-82505277D01*
X82961873Y-82576465D01*
X83080256Y-82625501D01*
X83080260Y-82625501D01*
X83080261Y-82625502D01*
X83205928Y-82650500D01*
X83205931Y-82650500D01*
X123179192Y-82650500D01*
X123246231Y-82670185D01*
X123266873Y-82686819D01*
X124928181Y-84348127D01*
X124961666Y-84409450D01*
X124964500Y-84435808D01*
X124964500Y-86033000D01*
X124944815Y-86100039D01*
X124892011Y-86145794D01*
X124840500Y-86157000D01*
X123847129Y-86157000D01*
X123847123Y-86157001D01*
X123787520Y-86163408D01*
X123787517Y-86163408D01*
X123787517Y-86163409D01*
X123752620Y-86176425D01*
X123752617Y-86176426D01*
X123682925Y-86181409D01*
X123665952Y-86176425D01*
X123632379Y-86163903D01*
X123632372Y-86163901D01*
X123572844Y-86157500D01*
X123325000Y-86157500D01*
X123325000Y-89157500D01*
X123572828Y-89157500D01*
X123572844Y-89157499D01*
X123632372Y-89151098D01*
X123632375Y-89151097D01*
X123665949Y-89138575D01*
X123735640Y-89133589D01*
X123752619Y-89138575D01*
X123787511Y-89151589D01*
X123787512Y-89151589D01*
X123787517Y-89151591D01*
X123847127Y-89158000D01*
X124842872Y-89157999D01*
X124902483Y-89151591D01*
X124936667Y-89138840D01*
X125006358Y-89133857D01*
X125023327Y-89138838D01*
X125057517Y-89151591D01*
X125117127Y-89158000D01*
X126112872Y-89157999D01*
X126172483Y-89151591D01*
X126206667Y-89138840D01*
X126276358Y-89133857D01*
X126293327Y-89138838D01*
X126327517Y-89151591D01*
X126387127Y-89158000D01*
X127382872Y-89157999D01*
X127442483Y-89151591D01*
X127476667Y-89138840D01*
X127546358Y-89133857D01*
X127563327Y-89138838D01*
X127597517Y-89151591D01*
X127657127Y-89158000D01*
X128652872Y-89157999D01*
X128712483Y-89151591D01*
X128746667Y-89138840D01*
X128816358Y-89133857D01*
X128833327Y-89138838D01*
X128867517Y-89151591D01*
X128927127Y-89158000D01*
X129922872Y-89157999D01*
X129982483Y-89151591D01*
X130016667Y-89138840D01*
X130086358Y-89133857D01*
X130103327Y-89138838D01*
X130137517Y-89151591D01*
X130197127Y-89158000D01*
X131192872Y-89157999D01*
X131252483Y-89151591D01*
X131286667Y-89138840D01*
X131356358Y-89133857D01*
X131373327Y-89138838D01*
X131407517Y-89151591D01*
X131467127Y-89158000D01*
X132462872Y-89157999D01*
X132522483Y-89151591D01*
X132556667Y-89138840D01*
X132626358Y-89133857D01*
X132643327Y-89138838D01*
X132677517Y-89151591D01*
X132737127Y-89158000D01*
X133732872Y-89157999D01*
X133792483Y-89151591D01*
X133826667Y-89138840D01*
X133896358Y-89133857D01*
X133913327Y-89138838D01*
X133947517Y-89151591D01*
X134007127Y-89158000D01*
X135002872Y-89157999D01*
X135062483Y-89151591D01*
X135096667Y-89138840D01*
X135166358Y-89133857D01*
X135183327Y-89138838D01*
X135217517Y-89151591D01*
X135277127Y-89158000D01*
X136272872Y-89157999D01*
X136332483Y-89151591D01*
X136366667Y-89138840D01*
X136436358Y-89133857D01*
X136453327Y-89138838D01*
X136487517Y-89151591D01*
X136547127Y-89158000D01*
X137542872Y-89157999D01*
X137602483Y-89151591D01*
X137636667Y-89138840D01*
X137706358Y-89133857D01*
X137723327Y-89138838D01*
X137757517Y-89151591D01*
X137817127Y-89158000D01*
X138812872Y-89157999D01*
X138872483Y-89151591D01*
X138906667Y-89138840D01*
X138976358Y-89133857D01*
X138993327Y-89138838D01*
X139027517Y-89151591D01*
X139087127Y-89158000D01*
X140082872Y-89157999D01*
X140142483Y-89151591D01*
X140277331Y-89101296D01*
X140392546Y-89015046D01*
X140478796Y-88899831D01*
X140529091Y-88764983D01*
X140535500Y-88705373D01*
X140535499Y-86609628D01*
X140529091Y-86550017D01*
X140505296Y-86486220D01*
X140478797Y-86415171D01*
X140478793Y-86415164D01*
X140392547Y-86299955D01*
X140392544Y-86299952D01*
X140277335Y-86213706D01*
X140277328Y-86213702D01*
X140142482Y-86163408D01*
X140142483Y-86163408D01*
X140082883Y-86157001D01*
X140082881Y-86157000D01*
X140082873Y-86157000D01*
X140082864Y-86157000D01*
X139087129Y-86157000D01*
X139087123Y-86157001D01*
X139027518Y-86163408D01*
X138993331Y-86176159D01*
X138923639Y-86181142D01*
X138906669Y-86176159D01*
X138889140Y-86169621D01*
X138872483Y-86163409D01*
X138872482Y-86163408D01*
X138812883Y-86157001D01*
X138812881Y-86157000D01*
X138812873Y-86157000D01*
X138812864Y-86157000D01*
X137817129Y-86157000D01*
X137817123Y-86157001D01*
X137757518Y-86163408D01*
X137723331Y-86176159D01*
X137653639Y-86181142D01*
X137636669Y-86176159D01*
X137619140Y-86169621D01*
X137602483Y-86163409D01*
X137602482Y-86163408D01*
X137542883Y-86157001D01*
X137542881Y-86157000D01*
X137542873Y-86157000D01*
X137542864Y-86157000D01*
X136547129Y-86157000D01*
X136547123Y-86157001D01*
X136487518Y-86163408D01*
X136453331Y-86176159D01*
X136383639Y-86181142D01*
X136366669Y-86176159D01*
X136349140Y-86169621D01*
X136332483Y-86163409D01*
X136332482Y-86163408D01*
X136272883Y-86157001D01*
X136272881Y-86157000D01*
X136272873Y-86157000D01*
X136272864Y-86157000D01*
X135277129Y-86157000D01*
X135277123Y-86157001D01*
X135217518Y-86163408D01*
X135183331Y-86176159D01*
X135113639Y-86181142D01*
X135096669Y-86176159D01*
X135079140Y-86169621D01*
X135062483Y-86163409D01*
X135062482Y-86163408D01*
X135002883Y-86157001D01*
X135002881Y-86157000D01*
X135002873Y-86157000D01*
X135002864Y-86157000D01*
X134007129Y-86157000D01*
X134007123Y-86157001D01*
X133947518Y-86163408D01*
X133913331Y-86176159D01*
X133843639Y-86181142D01*
X133826669Y-86176159D01*
X133809140Y-86169621D01*
X133792483Y-86163409D01*
X133792482Y-86163408D01*
X133732883Y-86157001D01*
X133732881Y-86157000D01*
X133732873Y-86157000D01*
X133732865Y-86157000D01*
X132739500Y-86157000D01*
X132672461Y-86137315D01*
X132626706Y-86084511D01*
X132615500Y-86033000D01*
X132615500Y-83808349D01*
X169525000Y-83808349D01*
X169525000Y-83825000D01*
X170250000Y-83825000D01*
X170750000Y-83825000D01*
X171474999Y-83825000D01*
X171474999Y-83808364D01*
X171474998Y-83808347D01*
X171464943Y-83709916D01*
X171412093Y-83550427D01*
X171412091Y-83550422D01*
X171323885Y-83407419D01*
X171205080Y-83288614D01*
X171062077Y-83200408D01*
X171062072Y-83200406D01*
X170902583Y-83147557D01*
X170804150Y-83137500D01*
X170750000Y-83137500D01*
X170750000Y-83825000D01*
X170250000Y-83825000D01*
X170250000Y-83137500D01*
X170249999Y-83137499D01*
X170195864Y-83137500D01*
X170195847Y-83137501D01*
X170097415Y-83147557D01*
X169937927Y-83200406D01*
X169937922Y-83200408D01*
X169794919Y-83288614D01*
X169676114Y-83407419D01*
X169587908Y-83550422D01*
X169587906Y-83550427D01*
X169535057Y-83709916D01*
X169525000Y-83808349D01*
X132615500Y-83808349D01*
X132615500Y-74557316D01*
X132635185Y-74490277D01*
X132636398Y-74488425D01*
X132661847Y-74450338D01*
X132709394Y-74379179D01*
X132769737Y-74233497D01*
X132800500Y-74078842D01*
X132800500Y-73921158D01*
X132800500Y-73921155D01*
X132800499Y-73921153D01*
X132769738Y-73766510D01*
X132769737Y-73766503D01*
X132769735Y-73766498D01*
X132709397Y-73620827D01*
X132709390Y-73620814D01*
X132621789Y-73489711D01*
X132621786Y-73489707D01*
X132510292Y-73378213D01*
X132510288Y-73378210D01*
X132379185Y-73290609D01*
X132379172Y-73290602D01*
X132233501Y-73230264D01*
X132233489Y-73230261D01*
X132078845Y-73199500D01*
X132078842Y-73199500D01*
X131921158Y-73199500D01*
X131921155Y-73199500D01*
X131766510Y-73230261D01*
X131766498Y-73230264D01*
X131620827Y-73290602D01*
X131620814Y-73290609D01*
X131489711Y-73378210D01*
X131489707Y-73378213D01*
X131378213Y-73489707D01*
X131378210Y-73489711D01*
X131290609Y-73620814D01*
X131290602Y-73620827D01*
X131230264Y-73766498D01*
X131230261Y-73766510D01*
X131199500Y-73921153D01*
X131199500Y-74078846D01*
X131230261Y-74233489D01*
X131230264Y-74233501D01*
X131290603Y-74379174D01*
X131290605Y-74379177D01*
X131290606Y-74379179D01*
X131293601Y-74383661D01*
X131314480Y-74450338D01*
X131314500Y-74452553D01*
X131314500Y-86033000D01*
X131294815Y-86100039D01*
X131242011Y-86145794D01*
X131190500Y-86157000D01*
X130199500Y-86157000D01*
X130132461Y-86137315D01*
X130086706Y-86084511D01*
X130075500Y-86033000D01*
X130075500Y-77835121D01*
X130084939Y-77787668D01*
X130125501Y-77689744D01*
X130150499Y-77564069D01*
X130150499Y-77435931D01*
X130125501Y-77310256D01*
X130076465Y-77191873D01*
X130005277Y-77085331D01*
X130005275Y-77085329D01*
X130005273Y-77085326D01*
X129910350Y-76990403D01*
X129910327Y-76990382D01*
X123414674Y-70494727D01*
X123414673Y-70494726D01*
X123414669Y-70494723D01*
X123308127Y-70423535D01*
X123189744Y-70374499D01*
X123189738Y-70374497D01*
X123064071Y-70349500D01*
X123064069Y-70349500D01*
X86745931Y-70349500D01*
X86745929Y-70349500D01*
X86620261Y-70374497D01*
X86620255Y-70374499D01*
X86501870Y-70423535D01*
X86395331Y-70494722D01*
X86395324Y-70494728D01*
X81156985Y-75733067D01*
X81095662Y-75766552D01*
X81049906Y-75767859D01*
X80908736Y-75745500D01*
X80908731Y-75745500D01*
X80711269Y-75745500D01*
X80711264Y-75745500D01*
X80516236Y-75776389D01*
X80328441Y-75837408D01*
X80152495Y-75927058D01*
X79992753Y-76043115D01*
X79853115Y-76182753D01*
X79737058Y-76342495D01*
X79737056Y-76342499D01*
X79656805Y-76500000D01*
X79650485Y-76512403D01*
X79602510Y-76563199D01*
X79534689Y-76579994D01*
X79468554Y-76557456D01*
X79429515Y-76512403D01*
X79342944Y-76342499D01*
X79331681Y-76326997D01*
X79226884Y-76182753D01*
X79087246Y-76043115D01*
X78927504Y-75927058D01*
X78927503Y-75927057D01*
X78927501Y-75927056D01*
X78751561Y-75837409D01*
X78751558Y-75837408D01*
X78563763Y-75776389D01*
X78368736Y-75745500D01*
X78368731Y-75745500D01*
X78171269Y-75745500D01*
X78171264Y-75745500D01*
X77976236Y-75776389D01*
X77788441Y-75837408D01*
X77612495Y-75927058D01*
X77452753Y-76043115D01*
X77313115Y-76182753D01*
X77197058Y-76342495D01*
X77197056Y-76342499D01*
X77116805Y-76500000D01*
X77110485Y-76512403D01*
X77062510Y-76563199D01*
X76994689Y-76579994D01*
X76928554Y-76557456D01*
X76889515Y-76512403D01*
X76802944Y-76342499D01*
X76791681Y-76326997D01*
X76686884Y-76182753D01*
X76547246Y-76043115D01*
X76387504Y-75927058D01*
X76387503Y-75927057D01*
X76387501Y-75927056D01*
X76211561Y-75837409D01*
X76211558Y-75837408D01*
X76023763Y-75776389D01*
X75828736Y-75745500D01*
X75828731Y-75745500D01*
X75631269Y-75745500D01*
X75631264Y-75745500D01*
X75436236Y-75776389D01*
X75248441Y-75837408D01*
X75072495Y-75927058D01*
X74912753Y-76043115D01*
X74773115Y-76182753D01*
X74668318Y-76326997D01*
X74612989Y-76369663D01*
X74543375Y-76375642D01*
X74481580Y-76343037D01*
X74447223Y-76282198D01*
X74444000Y-76254112D01*
X74444000Y-76198172D01*
X74443999Y-76198155D01*
X74437598Y-76138627D01*
X74437596Y-76138620D01*
X74387354Y-76003913D01*
X74387350Y-76003906D01*
X74301190Y-75888812D01*
X74301187Y-75888809D01*
X74186093Y-75802649D01*
X74186086Y-75802645D01*
X74051379Y-75752403D01*
X74051372Y-75752401D01*
X73991844Y-75746000D01*
X73440000Y-75746000D01*
X73440000Y-76566988D01*
X73382993Y-76534075D01*
X73255826Y-76500000D01*
X73124174Y-76500000D01*
X72997007Y-76534075D01*
X72940000Y-76566988D01*
X72940000Y-75746000D01*
X72388155Y-75746000D01*
X72328627Y-75752401D01*
X72328620Y-75752403D01*
X72193913Y-75802645D01*
X72193906Y-75802649D01*
X72078812Y-75888809D01*
X72078809Y-75888812D01*
X71992649Y-76003906D01*
X71992645Y-76003913D01*
X71942403Y-76138620D01*
X71942401Y-76138627D01*
X71936000Y-76198155D01*
X67522633Y-76198155D01*
X67507282Y-76178149D01*
X67507281Y-76178148D01*
X67507274Y-76178140D01*
X67321860Y-75992726D01*
X67321851Y-75992718D01*
X67113803Y-75833075D01*
X66886700Y-75701958D01*
X66886690Y-75701953D01*
X66644428Y-75601605D01*
X66644421Y-75601603D01*
X66644419Y-75601602D01*
X66391116Y-75533730D01*
X66333339Y-75526123D01*
X66131127Y-75499500D01*
X66131120Y-75499500D01*
X65868880Y-75499500D01*
X65868872Y-75499500D01*
X65637772Y-75529926D01*
X65608884Y-75533730D01*
X65355581Y-75601602D01*
X65355571Y-75601605D01*
X65113309Y-75701953D01*
X65113299Y-75701958D01*
X64886196Y-75833075D01*
X64678148Y-75992718D01*
X64492718Y-76178148D01*
X64333075Y-76386196D01*
X64201958Y-76613299D01*
X64201953Y-76613309D01*
X64101605Y-76855571D01*
X64101602Y-76855581D01*
X64036451Y-77098731D01*
X64033730Y-77108885D01*
X63999500Y-77368872D01*
X50250500Y-77368872D01*
X50250500Y-63547682D01*
X58450000Y-63547682D01*
X58450000Y-63752317D01*
X58482009Y-63954417D01*
X58545244Y-64149031D01*
X58638141Y-64331350D01*
X58638147Y-64331359D01*
X58670523Y-64375921D01*
X58670524Y-64375922D01*
X59230294Y-63816151D01*
X59242141Y-63860362D01*
X59313891Y-63984638D01*
X59415362Y-64086109D01*
X59539638Y-64157859D01*
X59583847Y-64169704D01*
X59024076Y-64729474D01*
X59068650Y-64761859D01*
X59250968Y-64854755D01*
X59445582Y-64917990D01*
X59647683Y-64950000D01*
X59852317Y-64950000D01*
X60054417Y-64917990D01*
X60249031Y-64854755D01*
X60431349Y-64761859D01*
X60475921Y-64729474D01*
X59916152Y-64169705D01*
X59960362Y-64157859D01*
X60084638Y-64086109D01*
X60186109Y-63984638D01*
X60257859Y-63860362D01*
X60269705Y-63816152D01*
X60829474Y-64375921D01*
X60861859Y-64331349D01*
X60954755Y-64149031D01*
X61017990Y-63954417D01*
X61050000Y-63752317D01*
X61050000Y-63547682D01*
X61017990Y-63345582D01*
X60954755Y-63150968D01*
X60861859Y-62968650D01*
X60829474Y-62924077D01*
X60829474Y-62924076D01*
X60269704Y-63483846D01*
X60257859Y-63439638D01*
X60186109Y-63315362D01*
X60084638Y-63213891D01*
X59960362Y-63142141D01*
X59916151Y-63130294D01*
X60475922Y-62570524D01*
X60475921Y-62570523D01*
X60431359Y-62538147D01*
X60431350Y-62538141D01*
X60249031Y-62445244D01*
X60054417Y-62382009D01*
X59852317Y-62350000D01*
X59647683Y-62350000D01*
X59445582Y-62382009D01*
X59250968Y-62445244D01*
X59068644Y-62538143D01*
X59024077Y-62570523D01*
X59024077Y-62570524D01*
X59583848Y-63130294D01*
X59539638Y-63142141D01*
X59415362Y-63213891D01*
X59313891Y-63315362D01*
X59242141Y-63439638D01*
X59230294Y-63483847D01*
X58670524Y-62924077D01*
X58670523Y-62924077D01*
X58638143Y-62968644D01*
X58545244Y-63150968D01*
X58482009Y-63345582D01*
X58450000Y-63547682D01*
X50250500Y-63547682D01*
X50250500Y-60152135D01*
X61699500Y-60152135D01*
X61699500Y-61847870D01*
X61699501Y-61847876D01*
X61705908Y-61907483D01*
X61756202Y-62042328D01*
X61756206Y-62042335D01*
X61842452Y-62157544D01*
X61842455Y-62157547D01*
X61957664Y-62243793D01*
X61957671Y-62243797D01*
X62092517Y-62294091D01*
X62092516Y-62294091D01*
X62099444Y-62294835D01*
X62152127Y-62300500D01*
X63847872Y-62300499D01*
X63907483Y-62294091D01*
X64042331Y-62243796D01*
X64157546Y-62157546D01*
X64243796Y-62042331D01*
X64294091Y-61907483D01*
X64300500Y-61847873D01*
X64300500Y-61774500D01*
X64320185Y-61707461D01*
X64372989Y-61661706D01*
X64424500Y-61650500D01*
X77894466Y-61650500D01*
X77961505Y-61670185D01*
X77982147Y-61686819D01*
X78082108Y-61786780D01*
X78082112Y-61786783D01*
X78225204Y-61875044D01*
X78225207Y-61875045D01*
X78225213Y-61875049D01*
X78384815Y-61927936D01*
X78483326Y-61938000D01*
X78483331Y-61938000D01*
X79091669Y-61938000D01*
X79091674Y-61938000D01*
X79190185Y-61927936D01*
X79349787Y-61875049D01*
X79492891Y-61786781D01*
X79611781Y-61667891D01*
X79700049Y-61524787D01*
X79752936Y-61365185D01*
X79763000Y-61266674D01*
X79763000Y-60733326D01*
X79752936Y-60634815D01*
X79700049Y-60475213D01*
X79700045Y-60475207D01*
X79700044Y-60475204D01*
X79611783Y-60332112D01*
X79611780Y-60332108D01*
X79579853Y-60300181D01*
X79575514Y-60292235D01*
X79568267Y-60286810D01*
X79559032Y-60262050D01*
X79546368Y-60238858D01*
X79547013Y-60229828D01*
X79543850Y-60221346D01*
X79549466Y-60195525D01*
X79551352Y-60169166D01*
X79557170Y-60160112D01*
X79558702Y-60153073D01*
X79579853Y-60124819D01*
X79592853Y-60111819D01*
X79654176Y-60078334D01*
X79680534Y-60075500D01*
X85604192Y-60075500D01*
X85671231Y-60095185D01*
X85691873Y-60111819D01*
X87335325Y-61755272D01*
X87335326Y-61755273D01*
X87335329Y-61755275D01*
X87335331Y-61755277D01*
X87431201Y-61819334D01*
X87431200Y-61819334D01*
X87431202Y-61819335D01*
X87441873Y-61826465D01*
X87560256Y-61875501D01*
X87560260Y-61875501D01*
X87560261Y-61875502D01*
X87685928Y-61900500D01*
X87685931Y-61900500D01*
X90460426Y-61900500D01*
X90527465Y-61920185D01*
X90573220Y-61972989D01*
X90583164Y-62042147D01*
X90554139Y-62105703D01*
X90525522Y-62130039D01*
X90481344Y-62157287D01*
X90357289Y-62281342D01*
X90265187Y-62430663D01*
X90265186Y-62430666D01*
X90210001Y-62597203D01*
X90210001Y-62597204D01*
X90210000Y-62597204D01*
X90199500Y-62699983D01*
X90199500Y-63300001D01*
X90199501Y-63300019D01*
X90210000Y-63402796D01*
X90210001Y-63402799D01*
X90255302Y-63539505D01*
X90265186Y-63569334D01*
X90357288Y-63718656D01*
X90481344Y-63842712D01*
X90630666Y-63934814D01*
X90797203Y-63989999D01*
X90899991Y-64000500D01*
X92100008Y-64000499D01*
X92202797Y-63989999D01*
X92369334Y-63934814D01*
X92518656Y-63842712D01*
X92642712Y-63718656D01*
X92734814Y-63569334D01*
X92789999Y-63402797D01*
X92800500Y-63300009D01*
X92800499Y-62699992D01*
X92789999Y-62597203D01*
X92734814Y-62430666D01*
X92734810Y-62430659D01*
X92644447Y-62284156D01*
X92626007Y-62216764D01*
X92646930Y-62150100D01*
X92700572Y-62105331D01*
X92769903Y-62096670D01*
X92815077Y-62113519D01*
X92930666Y-62184814D01*
X93097203Y-62239999D01*
X93199991Y-62250500D01*
X94400008Y-62250499D01*
X94502797Y-62239999D01*
X94669334Y-62184814D01*
X94818656Y-62092712D01*
X94942712Y-61968656D01*
X95034814Y-61819334D01*
X95089999Y-61652797D01*
X95100500Y-61550009D01*
X95100499Y-60949992D01*
X95089999Y-60847203D01*
X95034814Y-60680666D01*
X94942712Y-60531344D01*
X94818656Y-60407288D01*
X94818655Y-60407287D01*
X94774478Y-60380039D01*
X94727753Y-60328091D01*
X94716530Y-60259129D01*
X94744373Y-60195047D01*
X94802442Y-60156190D01*
X94839574Y-60150500D01*
X98638511Y-60150500D01*
X98705550Y-60170185D01*
X98739237Y-60204808D01*
X98739906Y-60204285D01*
X98744531Y-60210189D01*
X98864811Y-60330469D01*
X98864813Y-60330470D01*
X98864815Y-60330472D01*
X99010394Y-60418478D01*
X99172804Y-60469086D01*
X99243384Y-60475500D01*
X99243387Y-60475500D01*
X99756613Y-60475500D01*
X99756616Y-60475500D01*
X99827196Y-60469086D01*
X99989606Y-60418478D01*
X100135185Y-60330472D01*
X100237320Y-60228336D01*
X100245265Y-60223998D01*
X100250690Y-60216752D01*
X100275446Y-60207518D01*
X100298641Y-60194853D01*
X100307671Y-60195498D01*
X100316154Y-60192335D01*
X100341974Y-60197951D01*
X100368333Y-60199837D01*
X100377386Y-60205655D01*
X100384427Y-60207187D01*
X100412681Y-60228338D01*
X100463181Y-60278838D01*
X100496666Y-60340161D01*
X100499500Y-60366519D01*
X100499500Y-64225500D01*
X100479815Y-64292539D01*
X100427011Y-64338294D01*
X100375500Y-64349500D01*
X96935929Y-64349500D01*
X96810261Y-64374497D01*
X96810255Y-64374499D01*
X96691875Y-64423533D01*
X96691866Y-64423538D01*
X96585331Y-64494723D01*
X96585327Y-64494726D01*
X94897069Y-66182984D01*
X94835746Y-66216469D01*
X94833580Y-66216920D01*
X94766508Y-66230261D01*
X94766498Y-66230264D01*
X94620827Y-66290602D01*
X94620814Y-66290609D01*
X94489711Y-66378210D01*
X94489707Y-66378213D01*
X94378213Y-66489707D01*
X94378210Y-66489711D01*
X94290609Y-66620814D01*
X94290602Y-66620827D01*
X94230264Y-66766498D01*
X94230261Y-66766510D01*
X94199500Y-66921153D01*
X94199500Y-67078846D01*
X94230261Y-67233489D01*
X94230264Y-67233501D01*
X94290602Y-67379172D01*
X94290609Y-67379185D01*
X94378210Y-67510288D01*
X94378213Y-67510292D01*
X94489707Y-67621786D01*
X94489711Y-67621789D01*
X94620814Y-67709390D01*
X94620827Y-67709397D01*
X94766498Y-67769735D01*
X94766503Y-67769737D01*
X94921153Y-67800499D01*
X94921156Y-67800500D01*
X94921158Y-67800500D01*
X95078844Y-67800500D01*
X95078845Y-67800499D01*
X95233497Y-67769737D01*
X95379179Y-67709394D01*
X95510289Y-67621789D01*
X95621789Y-67510289D01*
X95709394Y-67379179D01*
X95769737Y-67233497D01*
X95783079Y-67166417D01*
X95815462Y-67104508D01*
X95816956Y-67102987D01*
X96369958Y-66549986D01*
X113200001Y-66549986D01*
X113210494Y-66652697D01*
X113265641Y-66819119D01*
X113265643Y-66819124D01*
X113357684Y-66968345D01*
X113481654Y-67092315D01*
X113630875Y-67184356D01*
X113630880Y-67184358D01*
X113797302Y-67239505D01*
X113797309Y-67239506D01*
X113900019Y-67249999D01*
X114249999Y-67249999D01*
X114750000Y-67249999D01*
X115099972Y-67249999D01*
X115099986Y-67249998D01*
X115202697Y-67239505D01*
X115369119Y-67184358D01*
X115369124Y-67184356D01*
X115518345Y-67092315D01*
X115642315Y-66968345D01*
X115734356Y-66819124D01*
X115734358Y-66819119D01*
X115789505Y-66652697D01*
X115789506Y-66652690D01*
X115799999Y-66549986D01*
X115800000Y-66549973D01*
X115800000Y-65250000D01*
X114750000Y-65250000D01*
X114750000Y-67249999D01*
X114249999Y-67249999D01*
X114250000Y-67249998D01*
X114250000Y-65250000D01*
X113200001Y-65250000D01*
X113200001Y-66549986D01*
X96369958Y-66549986D01*
X97233126Y-65686819D01*
X97294449Y-65653334D01*
X97320807Y-65650500D01*
X100488511Y-65650500D01*
X100555550Y-65670185D01*
X100589237Y-65704808D01*
X100589906Y-65704285D01*
X100594531Y-65710189D01*
X100714811Y-65830469D01*
X100714813Y-65830470D01*
X100714815Y-65830472D01*
X100860394Y-65918478D01*
X101022804Y-65969086D01*
X101093384Y-65975500D01*
X101093387Y-65975500D01*
X101606613Y-65975500D01*
X101606616Y-65975500D01*
X101677196Y-65969086D01*
X101839606Y-65918478D01*
X101985185Y-65830472D01*
X102087673Y-65727983D01*
X102148994Y-65694499D01*
X102218685Y-65699483D01*
X102263034Y-65727984D01*
X102365122Y-65830072D01*
X102510604Y-65918019D01*
X102510603Y-65918019D01*
X102672894Y-65968590D01*
X102672893Y-65968590D01*
X102743408Y-65974998D01*
X102743426Y-65974999D01*
X103250000Y-65974999D01*
X103256581Y-65974999D01*
X103327102Y-65968591D01*
X103327107Y-65968590D01*
X103489396Y-65918018D01*
X103634877Y-65830072D01*
X103755072Y-65709877D01*
X103843019Y-65564395D01*
X103893590Y-65402106D01*
X103900000Y-65331572D01*
X103900000Y-65250000D01*
X103250000Y-65250000D01*
X103250000Y-65974999D01*
X102743426Y-65974999D01*
X102749999Y-65974998D01*
X102750000Y-65974998D01*
X102750000Y-64750000D01*
X103250000Y-64750000D01*
X103899999Y-64750000D01*
X103899999Y-64668417D01*
X103893591Y-64597897D01*
X103893590Y-64597892D01*
X103843018Y-64435603D01*
X103755072Y-64290122D01*
X103634877Y-64169927D01*
X103489395Y-64081980D01*
X103489396Y-64081980D01*
X103327105Y-64031409D01*
X103327106Y-64031409D01*
X103256572Y-64025000D01*
X103250000Y-64025000D01*
X103250000Y-64750000D01*
X102750000Y-64750000D01*
X102750000Y-64025000D01*
X102749999Y-64024999D01*
X102743436Y-64025000D01*
X102743417Y-64025001D01*
X102672897Y-64031408D01*
X102672892Y-64031409D01*
X102510603Y-64081981D01*
X102365122Y-64169927D01*
X102365121Y-64169928D01*
X102263035Y-64272015D01*
X102201712Y-64305500D01*
X102132020Y-64300516D01*
X102087673Y-64272015D01*
X101985189Y-64169531D01*
X101985185Y-64169528D01*
X101860349Y-64094061D01*
X101813162Y-64042533D01*
X101800500Y-63987945D01*
X101800500Y-63450013D01*
X113200000Y-63450013D01*
X113200000Y-64750000D01*
X114250000Y-64750000D01*
X114750000Y-64750000D01*
X115799999Y-64750000D01*
X115799999Y-63450028D01*
X115799998Y-63450013D01*
X115789505Y-63347302D01*
X115734358Y-63180880D01*
X115734356Y-63180875D01*
X115642315Y-63031654D01*
X115518345Y-62907684D01*
X115369124Y-62815643D01*
X115369119Y-62815641D01*
X115202697Y-62760494D01*
X115202690Y-62760493D01*
X115099986Y-62750000D01*
X114750000Y-62750000D01*
X114750000Y-64750000D01*
X114250000Y-64750000D01*
X114250000Y-62750000D01*
X113900028Y-62750000D01*
X113900012Y-62750001D01*
X113797302Y-62760494D01*
X113630880Y-62815641D01*
X113630875Y-62815643D01*
X113481654Y-62907684D01*
X113357684Y-63031654D01*
X113265643Y-63180875D01*
X113265641Y-63180880D01*
X113210494Y-63347302D01*
X113210493Y-63347309D01*
X113200000Y-63450013D01*
X101800500Y-63450013D01*
X101800500Y-60366519D01*
X101820185Y-60299480D01*
X101836814Y-60278842D01*
X101905472Y-60210185D01*
X101993478Y-60064606D01*
X102044086Y-59902196D01*
X102050500Y-59831616D01*
X102050500Y-59168384D01*
X102044086Y-59097804D01*
X101993478Y-58935394D01*
X101905472Y-58789815D01*
X101905470Y-58789813D01*
X101905469Y-58789811D01*
X101785188Y-58669530D01*
X101764937Y-58657288D01*
X101639606Y-58581522D01*
X101477196Y-58530914D01*
X101477194Y-58530913D01*
X101477192Y-58530913D01*
X101427778Y-58526423D01*
X101406616Y-58524500D01*
X100893384Y-58524500D01*
X100822804Y-58530914D01*
X100787394Y-58541948D01*
X100672982Y-58577599D01*
X100603122Y-58578749D01*
X100543730Y-58541948D01*
X100513662Y-58478878D01*
X100522466Y-58409566D01*
X100548409Y-58371535D01*
X102233127Y-56686819D01*
X102294450Y-56653334D01*
X102320808Y-56650500D01*
X110579192Y-56650500D01*
X110646231Y-56670185D01*
X110666873Y-56686819D01*
X113163181Y-59183127D01*
X113196666Y-59244450D01*
X113199500Y-59270808D01*
X113199500Y-61150001D01*
X113199501Y-61150018D01*
X113210000Y-61252796D01*
X113210001Y-61252799D01*
X113260963Y-61406591D01*
X113265186Y-61419334D01*
X113357288Y-61568656D01*
X113481344Y-61692712D01*
X113630666Y-61784814D01*
X113797203Y-61839999D01*
X113899991Y-61850500D01*
X115100008Y-61850499D01*
X115202797Y-61839999D01*
X115369334Y-61784814D01*
X115518656Y-61692712D01*
X115642712Y-61568656D01*
X115734814Y-61419334D01*
X115789999Y-61252797D01*
X115800500Y-61150009D01*
X115800500Y-60734500D01*
X115820185Y-60667461D01*
X115872989Y-60621706D01*
X115924500Y-60610500D01*
X132925501Y-60610500D01*
X132992540Y-60630185D01*
X133038295Y-60682989D01*
X133049501Y-60734500D01*
X133049501Y-60960376D01*
X133055908Y-61019983D01*
X133106202Y-61154828D01*
X133106206Y-61154835D01*
X133192452Y-61270044D01*
X133192455Y-61270047D01*
X133307664Y-61356293D01*
X133307667Y-61356295D01*
X133307668Y-61356295D01*
X133307669Y-61356296D01*
X133336025Y-61366872D01*
X133391958Y-61408742D01*
X133416376Y-61474206D01*
X133401525Y-61542479D01*
X133393010Y-61555939D01*
X133260213Y-61738719D01*
X133156417Y-61942429D01*
X133085765Y-62159871D01*
X133071491Y-62250000D01*
X134059252Y-62250000D01*
X134037482Y-62287708D01*
X134000000Y-62427591D01*
X134000000Y-62572409D01*
X134037482Y-62712292D01*
X134059252Y-62750000D01*
X133071491Y-62750000D01*
X133085765Y-62840128D01*
X133156417Y-63057570D01*
X133260211Y-63261276D01*
X133394597Y-63446242D01*
X133556257Y-63607902D01*
X133556263Y-63607907D01*
X133640863Y-63669372D01*
X133683529Y-63724701D01*
X133689508Y-63794315D01*
X133656903Y-63856110D01*
X133640864Y-63870007D01*
X133555940Y-63931709D01*
X133555931Y-63931716D01*
X133394216Y-64093431D01*
X133394216Y-64093432D01*
X133394214Y-64093434D01*
X133338928Y-64169528D01*
X133259783Y-64278461D01*
X133155950Y-64482244D01*
X133085278Y-64699750D01*
X133085278Y-64699753D01*
X133049500Y-64925646D01*
X133049500Y-65154353D01*
X133085278Y-65380246D01*
X133085278Y-65380249D01*
X133155950Y-65597755D01*
X133211822Y-65707409D01*
X133259783Y-65801538D01*
X133394214Y-65986566D01*
X133555934Y-66148286D01*
X133740962Y-66282717D01*
X133928378Y-66378210D01*
X133944744Y-66386549D01*
X134162251Y-66457221D01*
X134162252Y-66457221D01*
X134162255Y-66457222D01*
X134388146Y-66493000D01*
X134388147Y-66493000D01*
X134711853Y-66493000D01*
X134711854Y-66493000D01*
X134937745Y-66457222D01*
X134937748Y-66457221D01*
X134937749Y-66457221D01*
X135155255Y-66386549D01*
X135155255Y-66386548D01*
X135155258Y-66386548D01*
X135359038Y-66282717D01*
X135544066Y-66148286D01*
X135705786Y-65986566D01*
X135840217Y-65801538D01*
X135862296Y-65758204D01*
X135910270Y-65707409D01*
X135972781Y-65690500D01*
X138719192Y-65690500D01*
X138786231Y-65710185D01*
X138806873Y-65726819D01*
X143085324Y-70005271D01*
X143085331Y-70005277D01*
X143191871Y-70076464D01*
X143191870Y-70076464D01*
X143226544Y-70090826D01*
X143310256Y-70125501D01*
X143310260Y-70125501D01*
X143310261Y-70125502D01*
X143435928Y-70150500D01*
X143435931Y-70150500D01*
X150564071Y-70150500D01*
X150648615Y-70133682D01*
X150689744Y-70125501D01*
X150808127Y-70076465D01*
X150914669Y-70005277D01*
X152817254Y-68102691D01*
X152878575Y-68069208D01*
X152948266Y-68074192D01*
X152974994Y-68089248D01*
X152975197Y-68088920D01*
X152981342Y-68092710D01*
X152981344Y-68092712D01*
X153130666Y-68184814D01*
X153297203Y-68239999D01*
X153399991Y-68250500D01*
X154600008Y-68250499D01*
X154702797Y-68239999D01*
X154869334Y-68184814D01*
X155018656Y-68092712D01*
X155142712Y-67968656D01*
X155234814Y-67819334D01*
X155289999Y-67652797D01*
X155300500Y-67550009D01*
X155300500Y-66769500D01*
X155320185Y-66702461D01*
X155372989Y-66656706D01*
X155424500Y-66645500D01*
X164819362Y-66645500D01*
X164886401Y-66665185D01*
X164924899Y-66704401D01*
X164992288Y-66813656D01*
X165116344Y-66937712D01*
X165265666Y-67029814D01*
X165432203Y-67084999D01*
X165534991Y-67095500D01*
X167335008Y-67095499D01*
X167437797Y-67084999D01*
X167604334Y-67029814D01*
X167753656Y-66937712D01*
X167877712Y-66813656D01*
X167969814Y-66664334D01*
X168024999Y-66497797D01*
X168035500Y-66395009D01*
X168035499Y-65594992D01*
X168032373Y-65564395D01*
X168024999Y-65492203D01*
X168024998Y-65492200D01*
X167969814Y-65325666D01*
X167877712Y-65176344D01*
X167753656Y-65052288D01*
X167753655Y-65052287D01*
X167604906Y-64960539D01*
X167558181Y-64908591D01*
X167546958Y-64839629D01*
X167574801Y-64775546D01*
X167604906Y-64749461D01*
X167753656Y-64657712D01*
X167877712Y-64533656D01*
X167883420Y-64524402D01*
X167935368Y-64477678D01*
X167988958Y-64465500D01*
X168910500Y-64465500D01*
X168977539Y-64485185D01*
X169023294Y-64537989D01*
X169034500Y-64589500D01*
X169034500Y-66415019D01*
X169045001Y-66517801D01*
X169100184Y-66684333D01*
X169100189Y-66684344D01*
X169192285Y-66833653D01*
X169192288Y-66833657D01*
X169316342Y-66957711D01*
X169316346Y-66957714D01*
X169465655Y-67049810D01*
X169465658Y-67049811D01*
X169465664Y-67049815D01*
X169632200Y-67104999D01*
X169734988Y-67115500D01*
X169734993Y-67115500D01*
X175735007Y-67115500D01*
X175735012Y-67115500D01*
X175837800Y-67104999D01*
X176004336Y-67049815D01*
X176153657Y-66957712D01*
X176277712Y-66833657D01*
X176369815Y-66684336D01*
X176424999Y-66517800D01*
X176435500Y-66415012D01*
X176435500Y-64589500D01*
X176455185Y-64522461D01*
X176507989Y-64476706D01*
X176559500Y-64465500D01*
X185652770Y-64465500D01*
X185719809Y-64485185D01*
X185740451Y-64501819D01*
X187663181Y-66424548D01*
X187696666Y-66485871D01*
X187699500Y-66512229D01*
X187699500Y-68250001D01*
X187699501Y-68250018D01*
X187710000Y-68352796D01*
X187710001Y-68352799D01*
X187765185Y-68519331D01*
X187765186Y-68519334D01*
X187857288Y-68668656D01*
X187981344Y-68792712D01*
X188130666Y-68884814D01*
X188164500Y-68896025D01*
X188221947Y-68935796D01*
X188248772Y-69000311D01*
X188249500Y-69013732D01*
X188249500Y-77073918D01*
X188249500Y-77073920D01*
X188249499Y-77073920D01*
X188278340Y-77218907D01*
X188278343Y-77218917D01*
X188334913Y-77355490D01*
X188334918Y-77355499D01*
X188343860Y-77368881D01*
X188343862Y-77368883D01*
X188393078Y-77442542D01*
X188417051Y-77478420D01*
X188417052Y-77478421D01*
X191713181Y-80774548D01*
X191746666Y-80835871D01*
X191749500Y-80862229D01*
X191749500Y-87537770D01*
X191729815Y-87604809D01*
X191713181Y-87625451D01*
X191657289Y-87681342D01*
X191565187Y-87830663D01*
X191565185Y-87830668D01*
X191565115Y-87830880D01*
X191510001Y-87997203D01*
X191510001Y-87997204D01*
X191510000Y-87997204D01*
X191499500Y-88099983D01*
X191499500Y-89300001D01*
X191499501Y-89300018D01*
X191510000Y-89402796D01*
X191510001Y-89402799D01*
X191565115Y-89569119D01*
X191565186Y-89569334D01*
X191636478Y-89684918D01*
X191654918Y-89752309D01*
X191633995Y-89818972D01*
X191580353Y-89863742D01*
X191511023Y-89872403D01*
X191465843Y-89855552D01*
X191319340Y-89765189D01*
X191319335Y-89765187D01*
X191319334Y-89765186D01*
X191152797Y-89710001D01*
X191152795Y-89710000D01*
X191050010Y-89699500D01*
X190449998Y-89699500D01*
X190449980Y-89699501D01*
X190347203Y-89710000D01*
X190347200Y-89710001D01*
X190180668Y-89765185D01*
X190180659Y-89765189D01*
X190033208Y-89856137D01*
X189965815Y-89874577D01*
X189899152Y-89853654D01*
X189854383Y-89800012D01*
X189845722Y-89730681D01*
X189862574Y-89685500D01*
X189934355Y-89569126D01*
X189934358Y-89569119D01*
X189989505Y-89402697D01*
X189989506Y-89402690D01*
X189999999Y-89299986D01*
X190000000Y-89299973D01*
X190000000Y-88950000D01*
X189250000Y-88950000D01*
X189250000Y-89999999D01*
X189299972Y-89999999D01*
X189299986Y-89999998D01*
X189402697Y-89989505D01*
X189569119Y-89934358D01*
X189569130Y-89934353D01*
X189716427Y-89843499D01*
X189783819Y-89825058D01*
X189850483Y-89845980D01*
X189895252Y-89899622D01*
X189903914Y-89968953D01*
X189887063Y-90014133D01*
X189815189Y-90130659D01*
X189815186Y-90130666D01*
X189760001Y-90297203D01*
X189760001Y-90297204D01*
X189760000Y-90297204D01*
X189749500Y-90399983D01*
X189749500Y-91600001D01*
X189749501Y-91600018D01*
X189760000Y-91702796D01*
X189760001Y-91702799D01*
X189815185Y-91869331D01*
X189815186Y-91869334D01*
X189907288Y-92018656D01*
X190031344Y-92142712D01*
X190180666Y-92234814D01*
X190189498Y-92237740D01*
X190246944Y-92277508D01*
X190273771Y-92342022D01*
X190274500Y-92355448D01*
X190274500Y-93638510D01*
X190254815Y-93705549D01*
X190220194Y-93739234D01*
X190220718Y-93739903D01*
X190214811Y-93744530D01*
X190094530Y-93864811D01*
X190006522Y-94010393D01*
X189955913Y-94172807D01*
X189949500Y-94243386D01*
X189949500Y-94756613D01*
X189955913Y-94827192D01*
X189955913Y-94827194D01*
X189955914Y-94827196D01*
X190006522Y-94989606D01*
X190056633Y-95072500D01*
X190094530Y-95135188D01*
X190196661Y-95237319D01*
X190200999Y-95245264D01*
X190208246Y-95250689D01*
X190217481Y-95275448D01*
X190230146Y-95298642D01*
X190229500Y-95307671D01*
X190232664Y-95316153D01*
X190227047Y-95341975D01*
X190225162Y-95368334D01*
X190219344Y-95377386D01*
X190217813Y-95384426D01*
X190196662Y-95412680D01*
X190146163Y-95463180D01*
X190084840Y-95496666D01*
X190058481Y-95499500D01*
X181291519Y-95499500D01*
X181224480Y-95479815D01*
X181203838Y-95463181D01*
X181153338Y-95412681D01*
X181119853Y-95351358D01*
X181124837Y-95281666D01*
X181153336Y-95237320D01*
X181255472Y-95135185D01*
X181343478Y-94989606D01*
X181394086Y-94827196D01*
X181400500Y-94756616D01*
X181400500Y-94243384D01*
X181394086Y-94172804D01*
X181343478Y-94010394D01*
X181255472Y-93864815D01*
X181255470Y-93864813D01*
X181255469Y-93864811D01*
X181135188Y-93744530D01*
X181127534Y-93739903D01*
X180997849Y-93661505D01*
X180950662Y-93609978D01*
X180938000Y-93555389D01*
X180938000Y-89893034D01*
X180957685Y-89825995D01*
X180974319Y-89805353D01*
X181023675Y-89755997D01*
X181074281Y-89705391D01*
X181162549Y-89562287D01*
X181215436Y-89402685D01*
X181225500Y-89304174D01*
X181225500Y-89299986D01*
X188000001Y-89299986D01*
X188010494Y-89402697D01*
X188065641Y-89569119D01*
X188065643Y-89569124D01*
X188157684Y-89718345D01*
X188281654Y-89842315D01*
X188430875Y-89934356D01*
X188430880Y-89934358D01*
X188597302Y-89989505D01*
X188597309Y-89989506D01*
X188700019Y-89999999D01*
X188749999Y-89999998D01*
X188750000Y-89999998D01*
X188750000Y-88950000D01*
X188000001Y-88950000D01*
X188000001Y-89299986D01*
X181225500Y-89299986D01*
X181225500Y-88695826D01*
X181215436Y-88597315D01*
X181162549Y-88437713D01*
X181162545Y-88437707D01*
X181162544Y-88437704D01*
X181074283Y-88294612D01*
X181074280Y-88294608D01*
X180955391Y-88175719D01*
X180955387Y-88175716D01*
X180832654Y-88100013D01*
X188000000Y-88100013D01*
X188000000Y-88450000D01*
X188750000Y-88450000D01*
X189250000Y-88450000D01*
X189999999Y-88450000D01*
X189999999Y-88100028D01*
X189999998Y-88100013D01*
X189989505Y-87997302D01*
X189934358Y-87830880D01*
X189934356Y-87830875D01*
X189842315Y-87681654D01*
X189718345Y-87557684D01*
X189569124Y-87465643D01*
X189569119Y-87465641D01*
X189402697Y-87410494D01*
X189402690Y-87410493D01*
X189299986Y-87400000D01*
X189250000Y-87400000D01*
X189250000Y-88450000D01*
X188750000Y-88450000D01*
X188750000Y-87400000D01*
X188749999Y-87399999D01*
X188700029Y-87400000D01*
X188700011Y-87400001D01*
X188597302Y-87410494D01*
X188430880Y-87465641D01*
X188430875Y-87465643D01*
X188281654Y-87557684D01*
X188157684Y-87681654D01*
X188065643Y-87830875D01*
X188065641Y-87830880D01*
X188010494Y-87997302D01*
X188010493Y-87997309D01*
X188000000Y-88100013D01*
X180832654Y-88100013D01*
X180812295Y-88087455D01*
X180812289Y-88087452D01*
X180812287Y-88087451D01*
X180652685Y-88034564D01*
X180652683Y-88034563D01*
X180554181Y-88024500D01*
X180554174Y-88024500D01*
X180020826Y-88024500D01*
X180020818Y-88024500D01*
X179922316Y-88034563D01*
X179922315Y-88034564D01*
X179843219Y-88060773D01*
X179762715Y-88087450D01*
X179762704Y-88087455D01*
X179619612Y-88175716D01*
X179619607Y-88175719D01*
X179587327Y-88208000D01*
X179526003Y-88241485D01*
X179456312Y-88236499D01*
X179411967Y-88208000D01*
X179380080Y-88176114D01*
X179237077Y-88087908D01*
X179237072Y-88087906D01*
X179077583Y-88035057D01*
X178979150Y-88025000D01*
X178962500Y-88025000D01*
X178962500Y-89974999D01*
X178979136Y-89974999D01*
X178979152Y-89974998D01*
X179077583Y-89964943D01*
X179237072Y-89912093D01*
X179237077Y-89912091D01*
X179380079Y-89823885D01*
X179411964Y-89792001D01*
X179419908Y-89787662D01*
X179425332Y-89780417D01*
X179450091Y-89771180D01*
X179473286Y-89758515D01*
X179482314Y-89759160D01*
X179490795Y-89755997D01*
X179516619Y-89761613D01*
X179542978Y-89763499D01*
X179552030Y-89769316D01*
X179559069Y-89770847D01*
X179587324Y-89791996D01*
X179600679Y-89805351D01*
X179634165Y-89866671D01*
X179637000Y-89893034D01*
X179637000Y-93770980D01*
X179617315Y-93838019D01*
X179600681Y-93858661D01*
X179594531Y-93864810D01*
X179594530Y-93864811D01*
X179506522Y-94010393D01*
X179455913Y-94172807D01*
X179449500Y-94243386D01*
X179449500Y-94756613D01*
X179455913Y-94827192D01*
X179455913Y-94827194D01*
X179455914Y-94827196D01*
X179506522Y-94989606D01*
X179556633Y-95072500D01*
X179594530Y-95135188D01*
X179696661Y-95237319D01*
X179730146Y-95298642D01*
X179725162Y-95368334D01*
X179696661Y-95412681D01*
X179594531Y-95514810D01*
X179594530Y-95514811D01*
X179506522Y-95660393D01*
X179455913Y-95822807D01*
X179449500Y-95893386D01*
X179449500Y-96406613D01*
X179455913Y-96477192D01*
X179455913Y-96477194D01*
X179455914Y-96477196D01*
X179506522Y-96639606D01*
X179544320Y-96702132D01*
X179594530Y-96785188D01*
X179714811Y-96905469D01*
X179714813Y-96905470D01*
X179714815Y-96905472D01*
X179860394Y-96993478D01*
X180022804Y-97044086D01*
X180093384Y-97050500D01*
X180093387Y-97050500D01*
X180756613Y-97050500D01*
X180756616Y-97050500D01*
X180827196Y-97044086D01*
X180989606Y-96993478D01*
X181135185Y-96905472D01*
X181203839Y-96836817D01*
X181265160Y-96803334D01*
X181291519Y-96800500D01*
X190058481Y-96800500D01*
X190125520Y-96820185D01*
X190146157Y-96836814D01*
X190214815Y-96905472D01*
X190360394Y-96993478D01*
X190522804Y-97044086D01*
X190593384Y-97050500D01*
X190593387Y-97050500D01*
X191256613Y-97050500D01*
X191256616Y-97050500D01*
X191327196Y-97044086D01*
X191489606Y-96993478D01*
X191635185Y-96905472D01*
X191755472Y-96785185D01*
X191843478Y-96639606D01*
X191894086Y-96477196D01*
X191900500Y-96406616D01*
X191900500Y-95893384D01*
X191894086Y-95822804D01*
X191843478Y-95660394D01*
X191755472Y-95514815D01*
X191755470Y-95514813D01*
X191755469Y-95514811D01*
X191653339Y-95412681D01*
X191619854Y-95351358D01*
X191624838Y-95281666D01*
X191653339Y-95237319D01*
X191755468Y-95135189D01*
X191755469Y-95135188D01*
X191755472Y-95135185D01*
X191843478Y-94989606D01*
X191894086Y-94827196D01*
X191900500Y-94756616D01*
X191900500Y-94243384D01*
X191894086Y-94172804D01*
X191843478Y-94010394D01*
X191755472Y-93864815D01*
X191755470Y-93864813D01*
X191755469Y-93864811D01*
X191635188Y-93744530D01*
X191629282Y-93739903D01*
X191630083Y-93738879D01*
X191588158Y-93693090D01*
X191575500Y-93638510D01*
X191575500Y-92081727D01*
X191593960Y-92016631D01*
X191684814Y-91869334D01*
X191739999Y-91702797D01*
X191750500Y-91600009D01*
X191750499Y-91111228D01*
X191770183Y-91044191D01*
X191822987Y-90998436D01*
X191892146Y-90988492D01*
X191955702Y-91017517D01*
X191962180Y-91023549D01*
X196713181Y-95774549D01*
X196746666Y-95835872D01*
X196749500Y-95862230D01*
X196749500Y-134637770D01*
X196729815Y-134704809D01*
X196713181Y-134725451D01*
X185725451Y-145713181D01*
X185664128Y-145746666D01*
X185637770Y-145749500D01*
X169362230Y-145749500D01*
X169295191Y-145729815D01*
X169274549Y-145713181D01*
X165366819Y-141805451D01*
X165333334Y-141744128D01*
X165330500Y-141717770D01*
X165330500Y-139727928D01*
X165350185Y-139660889D01*
X165381615Y-139627610D01*
X165485195Y-139552355D01*
X165485195Y-139552354D01*
X165485199Y-139552352D01*
X165639852Y-139397699D01*
X165749683Y-139246528D01*
X165805011Y-139203864D01*
X165874624Y-139197885D01*
X165936420Y-139230490D01*
X165950313Y-139246523D01*
X166033398Y-139360880D01*
X166060148Y-139397699D01*
X166214806Y-139552357D01*
X166318385Y-139627610D01*
X166391743Y-139680907D01*
X166493378Y-139732693D01*
X166586616Y-139780201D01*
X166586619Y-139780202D01*
X166690621Y-139813993D01*
X166794625Y-139847786D01*
X166894672Y-139863632D01*
X167010639Y-139882000D01*
X167010644Y-139882000D01*
X167229361Y-139882000D01*
X167334082Y-139865412D01*
X167445375Y-139847786D01*
X167653383Y-139780201D01*
X167848257Y-139680907D01*
X167985039Y-139581530D01*
X168025193Y-139552357D01*
X168025195Y-139552354D01*
X168025199Y-139552352D01*
X168179852Y-139397699D01*
X168289991Y-139246103D01*
X168345320Y-139203439D01*
X168414933Y-139197460D01*
X168476729Y-139230065D01*
X168490628Y-139246106D01*
X168516806Y-139282138D01*
X168516807Y-139282138D01*
X169222352Y-138576593D01*
X169245792Y-138664071D01*
X169304311Y-138765430D01*
X169387070Y-138848189D01*
X169488429Y-138906708D01*
X169575905Y-138930147D01*
X168870360Y-139635691D01*
X168932008Y-139680480D01*
X169126808Y-139779737D01*
X169126811Y-139779738D01*
X169334740Y-139847297D01*
X169550684Y-139881500D01*
X169769316Y-139881500D01*
X169985259Y-139847297D01*
X170193188Y-139779738D01*
X170193191Y-139779737D01*
X170387995Y-139680478D01*
X170449638Y-139635691D01*
X170449639Y-139635691D01*
X169744094Y-138930147D01*
X169831571Y-138906708D01*
X169932930Y-138848189D01*
X170015689Y-138765430D01*
X170074208Y-138664071D01*
X170097647Y-138576595D01*
X170803191Y-139282139D01*
X170803191Y-139282138D01*
X170847978Y-139220495D01*
X170947237Y-139025691D01*
X170947238Y-139025688D01*
X171014797Y-138817759D01*
X171049000Y-138601816D01*
X171049000Y-138383183D01*
X171014797Y-138167240D01*
X170947238Y-137959311D01*
X170947237Y-137959308D01*
X170847980Y-137764508D01*
X170803191Y-137702860D01*
X170097647Y-138408404D01*
X170074208Y-138320929D01*
X170015689Y-138219570D01*
X169932930Y-138136811D01*
X169831571Y-138078292D01*
X169744092Y-138054852D01*
X170449638Y-137349307D01*
X170449638Y-137349306D01*
X170387995Y-137304521D01*
X170387993Y-137304520D01*
X170193191Y-137205262D01*
X170193188Y-137205261D01*
X169985259Y-137137702D01*
X169769316Y-137103500D01*
X169550684Y-137103500D01*
X169334740Y-137137702D01*
X169126811Y-137205261D01*
X169126808Y-137205262D01*
X168932001Y-137304523D01*
X168870360Y-137349306D01*
X168870360Y-137349307D01*
X169575905Y-138054852D01*
X169488429Y-138078292D01*
X169387070Y-138136811D01*
X169304311Y-138219570D01*
X169245792Y-138320929D01*
X169222352Y-138408405D01*
X168516807Y-137702860D01*
X168516805Y-137702860D01*
X168490626Y-137738894D01*
X168435297Y-137781560D01*
X168365683Y-137787539D01*
X168303888Y-137754934D01*
X168289995Y-137738901D01*
X168179852Y-137587301D01*
X168025199Y-137432648D01*
X168025193Y-137432642D01*
X167848260Y-137304094D01*
X167838203Y-137298970D01*
X167787408Y-137250994D01*
X167770500Y-137188486D01*
X167770500Y-134870648D01*
X173096500Y-134870648D01*
X173096500Y-135129351D01*
X173132318Y-135355495D01*
X173136968Y-135384854D01*
X173216909Y-135630885D01*
X173334353Y-135861382D01*
X173486408Y-136070668D01*
X173669332Y-136253592D01*
X173878618Y-136405647D01*
X174109115Y-136523091D01*
X174355146Y-136603032D01*
X174450961Y-136618207D01*
X174610649Y-136643500D01*
X174610654Y-136643500D01*
X174869351Y-136643500D01*
X175011294Y-136621017D01*
X175124854Y-136603032D01*
X175370885Y-136523091D01*
X175601382Y-136405647D01*
X175810668Y-136253592D01*
X175993592Y-136070668D01*
X176145647Y-135861382D01*
X176263091Y-135630885D01*
X176343032Y-135384854D01*
X176369315Y-135218907D01*
X176383500Y-135129351D01*
X176383500Y-134870648D01*
X176343032Y-134615149D01*
X176343032Y-134615146D01*
X176263091Y-134369115D01*
X176145647Y-134138618D01*
X175993592Y-133929332D01*
X175810668Y-133746408D01*
X175601382Y-133594353D01*
X175370885Y-133476909D01*
X175124854Y-133396968D01*
X175124852Y-133396967D01*
X175124850Y-133396967D01*
X174869351Y-133356500D01*
X174869346Y-133356500D01*
X174610654Y-133356500D01*
X174610649Y-133356500D01*
X174355149Y-133396967D01*
X174109112Y-133476910D01*
X173878617Y-133594353D01*
X173669329Y-133746410D01*
X173486410Y-133929329D01*
X173334353Y-134138617D01*
X173216910Y-134369112D01*
X173136967Y-134615149D01*
X173096500Y-134870648D01*
X167770500Y-134870648D01*
X167770500Y-132555928D01*
X167745502Y-132430261D01*
X167745501Y-132430260D01*
X167745501Y-132430256D01*
X167696465Y-132311873D01*
X167665776Y-132265943D01*
X167665776Y-132265942D01*
X167625279Y-132205334D01*
X167625273Y-132205326D01*
X158847598Y-123427651D01*
X158814113Y-123366328D01*
X158819097Y-123296636D01*
X158860969Y-123240703D01*
X158926433Y-123216286D01*
X158973593Y-123222038D01*
X159115146Y-123268032D01*
X159242900Y-123288266D01*
X159370649Y-123308500D01*
X159370654Y-123308500D01*
X159629351Y-123308500D01*
X159771294Y-123286017D01*
X159884854Y-123268032D01*
X160130885Y-123188091D01*
X160361382Y-123070647D01*
X160570668Y-122918592D01*
X160753592Y-122735668D01*
X160905647Y-122526382D01*
X161023091Y-122295885D01*
X161103032Y-122049854D01*
X161133784Y-121855691D01*
X161143499Y-121794355D01*
X161143500Y-121794347D01*
X161143500Y-121535648D01*
X161103032Y-121280149D01*
X161103032Y-121280146D01*
X161023091Y-121034115D01*
X160905647Y-120803618D01*
X160760023Y-120603183D01*
X162556000Y-120603183D01*
X162556000Y-120821816D01*
X162590202Y-121037759D01*
X162657761Y-121245688D01*
X162657762Y-121245691D01*
X162757020Y-121440493D01*
X162757021Y-121440495D01*
X162801806Y-121502138D01*
X162801807Y-121502138D01*
X163502861Y-120801084D01*
X163525667Y-120886194D01*
X163584910Y-120988806D01*
X163668694Y-121072590D01*
X163771306Y-121131833D01*
X163856414Y-121154637D01*
X163155360Y-121855691D01*
X163217008Y-121900480D01*
X163411808Y-121999737D01*
X163411811Y-121999738D01*
X163619740Y-122067297D01*
X163835684Y-122101500D01*
X164054316Y-122101500D01*
X164270259Y-122067297D01*
X164478188Y-121999738D01*
X164478191Y-121999737D01*
X164672995Y-121900478D01*
X164734638Y-121855691D01*
X164734639Y-121855691D01*
X164033585Y-121154638D01*
X164118694Y-121131833D01*
X164221306Y-121072590D01*
X164305090Y-120988806D01*
X164364333Y-120886194D01*
X164387138Y-120801085D01*
X165088191Y-121502139D01*
X165088191Y-121502138D01*
X165132978Y-121440495D01*
X165232237Y-121245691D01*
X165232238Y-121245688D01*
X165299797Y-121037759D01*
X165334000Y-120821816D01*
X165334000Y-120603183D01*
X165333993Y-120603138D01*
X168905500Y-120603138D01*
X168905500Y-120821861D01*
X168939714Y-121037876D01*
X169007297Y-121245880D01*
X169007298Y-121245883D01*
X169047003Y-121323806D01*
X169106592Y-121440756D01*
X169106595Y-121440760D01*
X169235142Y-121617693D01*
X169389806Y-121772357D01*
X169525103Y-121870654D01*
X169566743Y-121900907D01*
X169668376Y-121952692D01*
X169761616Y-122000201D01*
X169761619Y-122000202D01*
X169865621Y-122033993D01*
X169969625Y-122067786D01*
X170069672Y-122083632D01*
X170185639Y-122102000D01*
X170185644Y-122102000D01*
X170404361Y-122102000D01*
X170509082Y-122085412D01*
X170620375Y-122067786D01*
X170828383Y-122000201D01*
X171023257Y-121900907D01*
X171122601Y-121828729D01*
X171200193Y-121772357D01*
X171200195Y-121772354D01*
X171200199Y-121772352D01*
X171354852Y-121617699D01*
X171414465Y-121535648D01*
X173096500Y-121535648D01*
X173096500Y-121794351D01*
X173136967Y-122049850D01*
X173136967Y-122049852D01*
X173136968Y-122049854D01*
X173216909Y-122295885D01*
X173334353Y-122526382D01*
X173486408Y-122735668D01*
X173669332Y-122918592D01*
X173878618Y-123070647D01*
X174109115Y-123188091D01*
X174355146Y-123268032D01*
X174450961Y-123283207D01*
X174610649Y-123308500D01*
X174610654Y-123308500D01*
X174869351Y-123308500D01*
X175011294Y-123286017D01*
X175124854Y-123268032D01*
X175370885Y-123188091D01*
X175601382Y-123070647D01*
X175810668Y-122918592D01*
X175993592Y-122735668D01*
X176145647Y-122526382D01*
X176263091Y-122295885D01*
X176343032Y-122049854D01*
X176366691Y-121900478D01*
X176383500Y-121794351D01*
X176383500Y-121535648D01*
X176343032Y-121280149D01*
X176343032Y-121280146D01*
X176263091Y-121034115D01*
X176145647Y-120803618D01*
X175993592Y-120594332D01*
X175810668Y-120411408D01*
X175601382Y-120259353D01*
X175370885Y-120141909D01*
X175124854Y-120061968D01*
X175124852Y-120061967D01*
X175124850Y-120061967D01*
X174869351Y-120021500D01*
X174869346Y-120021500D01*
X174610654Y-120021500D01*
X174610649Y-120021500D01*
X174355149Y-120061967D01*
X174109112Y-120141910D01*
X173878617Y-120259353D01*
X173669329Y-120411410D01*
X173486410Y-120594329D01*
X173334353Y-120803617D01*
X173216910Y-121034112D01*
X173136967Y-121280149D01*
X173096500Y-121535648D01*
X171414465Y-121535648D01*
X171483407Y-121440757D01*
X171582701Y-121245883D01*
X171650286Y-121037875D01*
X171676272Y-120873806D01*
X171684500Y-120821861D01*
X171684500Y-120603138D01*
X171664506Y-120476909D01*
X171650286Y-120387125D01*
X171582701Y-120179117D01*
X171582701Y-120179116D01*
X171523010Y-120061968D01*
X171483407Y-119984243D01*
X171438810Y-119922860D01*
X171354857Y-119807306D01*
X171200193Y-119652642D01*
X171023260Y-119524095D01*
X171023259Y-119524094D01*
X171023257Y-119524093D01*
X170960825Y-119492282D01*
X170828383Y-119424798D01*
X170828380Y-119424797D01*
X170620376Y-119357214D01*
X170404361Y-119323000D01*
X170404356Y-119323000D01*
X170185644Y-119323000D01*
X170185639Y-119323000D01*
X169969623Y-119357214D01*
X169761619Y-119424797D01*
X169761616Y-119424798D01*
X169566739Y-119524095D01*
X169389806Y-119652642D01*
X169235142Y-119807306D01*
X169106595Y-119984239D01*
X169007298Y-120179116D01*
X169007297Y-120179119D01*
X168939714Y-120387123D01*
X168905500Y-120603138D01*
X165333993Y-120603138D01*
X165299797Y-120387240D01*
X165232238Y-120179311D01*
X165232237Y-120179308D01*
X165132980Y-119984508D01*
X165088191Y-119922860D01*
X164387137Y-120623914D01*
X164364333Y-120538806D01*
X164305090Y-120436194D01*
X164221306Y-120352410D01*
X164118694Y-120293167D01*
X164033583Y-120270361D01*
X164734638Y-119569307D01*
X164734638Y-119569306D01*
X164672995Y-119524521D01*
X164672993Y-119524520D01*
X164478191Y-119425262D01*
X164478188Y-119425261D01*
X164270259Y-119357702D01*
X164054316Y-119323500D01*
X163835684Y-119323500D01*
X163619740Y-119357702D01*
X163411811Y-119425261D01*
X163411808Y-119425262D01*
X163217001Y-119524523D01*
X163155360Y-119569306D01*
X163155360Y-119569307D01*
X163856414Y-120270361D01*
X163771306Y-120293167D01*
X163668694Y-120352410D01*
X163584910Y-120436194D01*
X163525667Y-120538806D01*
X163502861Y-120623914D01*
X162801807Y-119922860D01*
X162801806Y-119922860D01*
X162757023Y-119984501D01*
X162657762Y-120179308D01*
X162657761Y-120179311D01*
X162590202Y-120387240D01*
X162556000Y-120603183D01*
X160760023Y-120603183D01*
X160753592Y-120594332D01*
X160570668Y-120411408D01*
X160361382Y-120259353D01*
X160130885Y-120141909D01*
X159884854Y-120061968D01*
X159884852Y-120061967D01*
X159884850Y-120061967D01*
X159629351Y-120021500D01*
X159629346Y-120021500D01*
X159370654Y-120021500D01*
X159370649Y-120021500D01*
X159115149Y-120061967D01*
X158869112Y-120141910D01*
X158638617Y-120259353D01*
X158429329Y-120411410D01*
X158246410Y-120594329D01*
X158094353Y-120803617D01*
X157976910Y-121034112D01*
X157896967Y-121280149D01*
X157856500Y-121535648D01*
X157856500Y-121794351D01*
X157896967Y-122049850D01*
X157896967Y-122049851D01*
X157942960Y-122191402D01*
X157944955Y-122261243D01*
X157908875Y-122321076D01*
X157846174Y-122351904D01*
X157776759Y-122343939D01*
X157737348Y-122317401D01*
X150914673Y-115494726D01*
X150823964Y-115434117D01*
X150808127Y-115423535D01*
X150802388Y-115421158D01*
X150689744Y-115374499D01*
X150689738Y-115374497D01*
X150564071Y-115349500D01*
X150564069Y-115349500D01*
X138820808Y-115349500D01*
X138753769Y-115329815D01*
X138733127Y-115313181D01*
X131381819Y-107961873D01*
X131348334Y-107900550D01*
X131345500Y-107874192D01*
X131345500Y-107564808D01*
X131365185Y-107497769D01*
X131417989Y-107452014D01*
X131487147Y-107442070D01*
X131550703Y-107471095D01*
X131557181Y-107477127D01*
X134494724Y-110414669D01*
X134585331Y-110505276D01*
X134585332Y-110505277D01*
X134691866Y-110576461D01*
X134691872Y-110576464D01*
X134691873Y-110576465D01*
X134810256Y-110625501D01*
X134810260Y-110625501D01*
X134810261Y-110625502D01*
X134935928Y-110650500D01*
X134935931Y-110650500D01*
X157991692Y-110650500D01*
X158058731Y-110670185D01*
X158079373Y-110686819D01*
X162562950Y-115170396D01*
X162596435Y-115231719D01*
X162593200Y-115296395D01*
X162589714Y-115307123D01*
X162555500Y-115523138D01*
X162555500Y-115741861D01*
X162589714Y-115957876D01*
X162657297Y-116165880D01*
X162657298Y-116165883D01*
X162756595Y-116360760D01*
X162885142Y-116537693D01*
X163039806Y-116692357D01*
X163170722Y-116787471D01*
X163216743Y-116820907D01*
X163318378Y-116872693D01*
X163411616Y-116920201D01*
X163411619Y-116920202D01*
X163515621Y-116953993D01*
X163619625Y-116987786D01*
X163719672Y-117003632D01*
X163835639Y-117022000D01*
X163835644Y-117022000D01*
X164054361Y-117022000D01*
X164159082Y-117005412D01*
X164270375Y-116987786D01*
X164478383Y-116920201D01*
X164673257Y-116820907D01*
X164772601Y-116748729D01*
X164850193Y-116692357D01*
X164850195Y-116692354D01*
X164850199Y-116692352D01*
X165004852Y-116537699D01*
X165004854Y-116537695D01*
X165004857Y-116537693D01*
X165061229Y-116460101D01*
X165133407Y-116360757D01*
X165232701Y-116165883D01*
X165300286Y-115957875D01*
X165321582Y-115823416D01*
X165334500Y-115741861D01*
X165334500Y-115523138D01*
X168905500Y-115523138D01*
X168905500Y-115741861D01*
X168939714Y-115957876D01*
X169007297Y-116165880D01*
X169007298Y-116165883D01*
X169106595Y-116360760D01*
X169235142Y-116537693D01*
X169389806Y-116692357D01*
X169520722Y-116787471D01*
X169566743Y-116820907D01*
X169668378Y-116872693D01*
X169761616Y-116920201D01*
X169761619Y-116920202D01*
X169865621Y-116953993D01*
X169969625Y-116987786D01*
X170069672Y-117003632D01*
X170185639Y-117022000D01*
X170185644Y-117022000D01*
X170404361Y-117022000D01*
X170509082Y-117005412D01*
X170620375Y-116987786D01*
X170828383Y-116920201D01*
X171023257Y-116820907D01*
X171122601Y-116748729D01*
X171200193Y-116692357D01*
X171200195Y-116692354D01*
X171200199Y-116692352D01*
X171354852Y-116537699D01*
X171354854Y-116537695D01*
X171354857Y-116537693D01*
X171411229Y-116460101D01*
X171483407Y-116360757D01*
X171582701Y-116165883D01*
X171650286Y-115957875D01*
X171671582Y-115823416D01*
X171684500Y-115741861D01*
X171684500Y-115523138D01*
X171660957Y-115374499D01*
X171650286Y-115307125D01*
X171582701Y-115099117D01*
X171582701Y-115099116D01*
X171526955Y-114989711D01*
X171483407Y-114904243D01*
X171475147Y-114892874D01*
X171354857Y-114727306D01*
X171200193Y-114572642D01*
X171023260Y-114444095D01*
X171023259Y-114444094D01*
X171023257Y-114444093D01*
X170960825Y-114412282D01*
X170828383Y-114344798D01*
X170828380Y-114344797D01*
X170620376Y-114277214D01*
X170404361Y-114243000D01*
X170404356Y-114243000D01*
X170185644Y-114243000D01*
X170185639Y-114243000D01*
X169969623Y-114277214D01*
X169761619Y-114344797D01*
X169761616Y-114344798D01*
X169566739Y-114444095D01*
X169389806Y-114572642D01*
X169235142Y-114727306D01*
X169106595Y-114904239D01*
X169007298Y-115099116D01*
X169007297Y-115099119D01*
X168939714Y-115307123D01*
X168905500Y-115523138D01*
X165334500Y-115523138D01*
X165310957Y-115374499D01*
X165300286Y-115307125D01*
X165232701Y-115099117D01*
X165232701Y-115099116D01*
X165176955Y-114989711D01*
X165133407Y-114904243D01*
X165125147Y-114892874D01*
X165004857Y-114727306D01*
X164850193Y-114572642D01*
X164673260Y-114444095D01*
X164673259Y-114444094D01*
X164673257Y-114444093D01*
X164610825Y-114412282D01*
X164478383Y-114344798D01*
X164478380Y-114344797D01*
X164270376Y-114277214D01*
X164054361Y-114243000D01*
X164054356Y-114243000D01*
X163835644Y-114243000D01*
X163835639Y-114243000D01*
X163619623Y-114277214D01*
X163608895Y-114280700D01*
X163539053Y-114282695D01*
X163482896Y-114250450D01*
X158727174Y-109494727D01*
X158727173Y-109494726D01*
X158697365Y-109474809D01*
X158620627Y-109423535D01*
X158502244Y-109374499D01*
X158502238Y-109374497D01*
X158376571Y-109349500D01*
X158376569Y-109349500D01*
X135320807Y-109349500D01*
X135253768Y-109329815D01*
X135233126Y-109313181D01*
X132651819Y-106731873D01*
X132618334Y-106670550D01*
X132615500Y-106644192D01*
X132615500Y-106281999D01*
X132635185Y-106214960D01*
X132687989Y-106169205D01*
X132739495Y-106157999D01*
X133732872Y-106157999D01*
X133785221Y-106152371D01*
X133853979Y-106164777D01*
X133905116Y-106212388D01*
X133913035Y-106228207D01*
X133928534Y-106265626D01*
X133999726Y-106372173D01*
X133999727Y-106372174D01*
X136042224Y-108414669D01*
X136130682Y-108503127D01*
X136132832Y-108505277D01*
X136239366Y-108576461D01*
X136239372Y-108576464D01*
X136239373Y-108576465D01*
X136357756Y-108625501D01*
X136357760Y-108625501D01*
X136357761Y-108625502D01*
X136483428Y-108650500D01*
X136483431Y-108650500D01*
X145564071Y-108650500D01*
X145648615Y-108633682D01*
X145689744Y-108625501D01*
X145808127Y-108576465D01*
X145914669Y-108505277D01*
X156083127Y-98336819D01*
X156144450Y-98303334D01*
X156170808Y-98300500D01*
X169633481Y-98300500D01*
X169700520Y-98320185D01*
X169721157Y-98336814D01*
X169789815Y-98405472D01*
X169935394Y-98493478D01*
X170097804Y-98544086D01*
X170168384Y-98550500D01*
X170168387Y-98550500D01*
X170831613Y-98550500D01*
X170831616Y-98550500D01*
X170902196Y-98544086D01*
X171064606Y-98493478D01*
X171210185Y-98405472D01*
X171330472Y-98285185D01*
X171418478Y-98139606D01*
X171469086Y-97977196D01*
X171475500Y-97906616D01*
X171475500Y-97393384D01*
X171469086Y-97322804D01*
X171418478Y-97160394D01*
X171330472Y-97014815D01*
X171330470Y-97014813D01*
X171330469Y-97014811D01*
X171228339Y-96912681D01*
X171194854Y-96851358D01*
X171199838Y-96781666D01*
X171228339Y-96737319D01*
X171330468Y-96635189D01*
X171330469Y-96635188D01*
X171330472Y-96635185D01*
X171418478Y-96489606D01*
X171469086Y-96327196D01*
X171475500Y-96256616D01*
X171475500Y-95743384D01*
X171469086Y-95672804D01*
X171418478Y-95510394D01*
X171330472Y-95364815D01*
X171330470Y-95364813D01*
X171330469Y-95364811D01*
X171210188Y-95244530D01*
X171204282Y-95239903D01*
X171205083Y-95238879D01*
X171163158Y-95193090D01*
X171150500Y-95138510D01*
X171150500Y-89304152D01*
X177775001Y-89304152D01*
X177785056Y-89402583D01*
X177837906Y-89562072D01*
X177837908Y-89562077D01*
X177926114Y-89705080D01*
X178044919Y-89823885D01*
X178187922Y-89912091D01*
X178187927Y-89912093D01*
X178347416Y-89964942D01*
X178445856Y-89974999D01*
X178462500Y-89974998D01*
X178462500Y-89250000D01*
X177775001Y-89250000D01*
X177775001Y-89304152D01*
X171150500Y-89304152D01*
X171150500Y-88695849D01*
X177775000Y-88695849D01*
X177775000Y-88750000D01*
X178462500Y-88750000D01*
X178462500Y-88024999D01*
X178445856Y-88025000D01*
X178347415Y-88035057D01*
X178187927Y-88087906D01*
X178187922Y-88087908D01*
X178044919Y-88176114D01*
X177926114Y-88294919D01*
X177837908Y-88437922D01*
X177837906Y-88437927D01*
X177785057Y-88597416D01*
X177775000Y-88695849D01*
X171150500Y-88695849D01*
X171150500Y-86539844D01*
X171170185Y-86472805D01*
X171200861Y-86442700D01*
X171199724Y-86441262D01*
X171205385Y-86436784D01*
X171205391Y-86436781D01*
X171324281Y-86317891D01*
X171412549Y-86174787D01*
X171465436Y-86015185D01*
X171475500Y-85916674D01*
X171475500Y-85383326D01*
X171465436Y-85284815D01*
X171412549Y-85125213D01*
X171412545Y-85125207D01*
X171412544Y-85125204D01*
X171324283Y-84982112D01*
X171324280Y-84982108D01*
X171292000Y-84949828D01*
X171258515Y-84888505D01*
X171263499Y-84818813D01*
X171292000Y-84774466D01*
X171323885Y-84742580D01*
X171412091Y-84599577D01*
X171412093Y-84599572D01*
X171464942Y-84440083D01*
X171474999Y-84341650D01*
X171475000Y-84341637D01*
X171475000Y-84325000D01*
X169525001Y-84325000D01*
X169525001Y-84341652D01*
X169535056Y-84440083D01*
X169587906Y-84599572D01*
X169587908Y-84599577D01*
X169676114Y-84742580D01*
X169708000Y-84774467D01*
X169741485Y-84835791D01*
X169736499Y-84905482D01*
X169708000Y-84949827D01*
X169675719Y-84982107D01*
X169675716Y-84982112D01*
X169587455Y-85125204D01*
X169587451Y-85125213D01*
X169534564Y-85284815D01*
X169534564Y-85284816D01*
X169534563Y-85284816D01*
X169524500Y-85383318D01*
X169524500Y-85916681D01*
X169534563Y-86015183D01*
X169587450Y-86174784D01*
X169587455Y-86174795D01*
X169675716Y-86317887D01*
X169675719Y-86317891D01*
X169794608Y-86436780D01*
X169800276Y-86441262D01*
X169798670Y-86443292D01*
X169837305Y-86486220D01*
X169849500Y-86539844D01*
X169849500Y-95138510D01*
X169829815Y-95205549D01*
X169795194Y-95239234D01*
X169795718Y-95239903D01*
X169789811Y-95244530D01*
X169669530Y-95364811D01*
X169581522Y-95510393D01*
X169530913Y-95672807D01*
X169525782Y-95729275D01*
X169524500Y-95743384D01*
X169524500Y-96256616D01*
X169526423Y-96277778D01*
X169530913Y-96327192D01*
X169530913Y-96327194D01*
X169530914Y-96327196D01*
X169548966Y-96385127D01*
X169581522Y-96489606D01*
X169669530Y-96635188D01*
X169771661Y-96737319D01*
X169775999Y-96745264D01*
X169783246Y-96750689D01*
X169792481Y-96775448D01*
X169805146Y-96798642D01*
X169804500Y-96807671D01*
X169807664Y-96816153D01*
X169802047Y-96841975D01*
X169800162Y-96868334D01*
X169794344Y-96877386D01*
X169792813Y-96884426D01*
X169771662Y-96912680D01*
X169721163Y-96963180D01*
X169659840Y-96996666D01*
X169633481Y-96999500D01*
X155785929Y-96999500D01*
X155660261Y-97024497D01*
X155660255Y-97024499D01*
X155541870Y-97073535D01*
X155435331Y-97144722D01*
X155435324Y-97144728D01*
X145266873Y-107313181D01*
X145205550Y-107346666D01*
X145179192Y-107349500D01*
X136868307Y-107349500D01*
X136801268Y-107329815D01*
X136780626Y-107313181D01*
X135837126Y-106369680D01*
X135803641Y-106308357D01*
X135808625Y-106238665D01*
X135850497Y-106182732D01*
X135915961Y-106158315D01*
X135924807Y-106157999D01*
X136272871Y-106157999D01*
X136272872Y-106157999D01*
X136332483Y-106151591D01*
X136366667Y-106138840D01*
X136436358Y-106133857D01*
X136453327Y-106138838D01*
X136487517Y-106151591D01*
X136547127Y-106158000D01*
X137542872Y-106157999D01*
X137602483Y-106151591D01*
X137636667Y-106138840D01*
X137706358Y-106133857D01*
X137723327Y-106138838D01*
X137757517Y-106151591D01*
X137817127Y-106158000D01*
X138812872Y-106157999D01*
X138872483Y-106151591D01*
X138906667Y-106138840D01*
X138976358Y-106133857D01*
X138993327Y-106138838D01*
X139027517Y-106151591D01*
X139087127Y-106158000D01*
X140082872Y-106157999D01*
X140142483Y-106151591D01*
X140277331Y-106101296D01*
X140392546Y-106015046D01*
X140478796Y-105899831D01*
X140529091Y-105764983D01*
X140535500Y-105705373D01*
X140535499Y-103609628D01*
X140529091Y-103550017D01*
X140523696Y-103535553D01*
X140478797Y-103415171D01*
X140478793Y-103415164D01*
X140392547Y-103299955D01*
X140392544Y-103299952D01*
X140277335Y-103213706D01*
X140277328Y-103213702D01*
X140142482Y-103163408D01*
X140142483Y-103163408D01*
X140082883Y-103157001D01*
X140082881Y-103157000D01*
X140082873Y-103157000D01*
X140082864Y-103157000D01*
X139087129Y-103157000D01*
X139087123Y-103157001D01*
X139027518Y-103163408D01*
X138993331Y-103176159D01*
X138923639Y-103181142D01*
X138906669Y-103176159D01*
X138889140Y-103169621D01*
X138872483Y-103163409D01*
X138872482Y-103163408D01*
X138812883Y-103157001D01*
X138812881Y-103157000D01*
X138812873Y-103157000D01*
X138812864Y-103157000D01*
X137817129Y-103157000D01*
X137817123Y-103157001D01*
X137757518Y-103163408D01*
X137723331Y-103176159D01*
X137653639Y-103181142D01*
X137636669Y-103176159D01*
X137619140Y-103169621D01*
X137602483Y-103163409D01*
X137602482Y-103163408D01*
X137542883Y-103157001D01*
X137542881Y-103157000D01*
X137542873Y-103157000D01*
X137542864Y-103157000D01*
X136547129Y-103157000D01*
X136547123Y-103157001D01*
X136487518Y-103163408D01*
X136453331Y-103176159D01*
X136383639Y-103181142D01*
X136366669Y-103176159D01*
X136349140Y-103169621D01*
X136332483Y-103163409D01*
X136332482Y-103163408D01*
X136272883Y-103157001D01*
X136272881Y-103157000D01*
X136272873Y-103157000D01*
X136272864Y-103157000D01*
X135277129Y-103157000D01*
X135277123Y-103157001D01*
X135217518Y-103163408D01*
X135183331Y-103176159D01*
X135113639Y-103181142D01*
X135096669Y-103176159D01*
X135079140Y-103169621D01*
X135062483Y-103163409D01*
X135062482Y-103163408D01*
X135002883Y-103157001D01*
X135002881Y-103157000D01*
X135002873Y-103157000D01*
X135002865Y-103157000D01*
X134009500Y-103157000D01*
X133942461Y-103137315D01*
X133896706Y-103084511D01*
X133885500Y-103033000D01*
X133885500Y-102370344D01*
X139085000Y-102370344D01*
X139091401Y-102429872D01*
X139091403Y-102429879D01*
X139141645Y-102564586D01*
X139141649Y-102564593D01*
X139227809Y-102679687D01*
X139227812Y-102679690D01*
X139342906Y-102765850D01*
X139342913Y-102765854D01*
X139477620Y-102816096D01*
X139477627Y-102816098D01*
X139537155Y-102822499D01*
X139537172Y-102822500D01*
X140335000Y-102822500D01*
X140835000Y-102822500D01*
X141632828Y-102822500D01*
X141632844Y-102822499D01*
X141692372Y-102816098D01*
X141692379Y-102816096D01*
X141827086Y-102765854D01*
X141827093Y-102765850D01*
X141942187Y-102679690D01*
X141942190Y-102679687D01*
X142028350Y-102564593D01*
X142028354Y-102564586D01*
X142078596Y-102429879D01*
X142078598Y-102429872D01*
X142084999Y-102370344D01*
X142085000Y-102370327D01*
X142085000Y-102122500D01*
X140835000Y-102122500D01*
X140835000Y-102822500D01*
X140335000Y-102822500D01*
X140335000Y-102122500D01*
X139085000Y-102122500D01*
X139085000Y-102370344D01*
X133885500Y-102370344D01*
X133885500Y-101670928D01*
X133860502Y-101545261D01*
X133860501Y-101545260D01*
X133860501Y-101545256D01*
X133811465Y-101426873D01*
X133811177Y-101426442D01*
X133810979Y-101425964D01*
X133808593Y-101421500D01*
X133809032Y-101421265D01*
X133792658Y-101381740D01*
X133769737Y-101266503D01*
X133745599Y-101208230D01*
X133709397Y-101120827D01*
X133709390Y-101120814D01*
X133621789Y-100989711D01*
X133621786Y-100989707D01*
X133510292Y-100878213D01*
X133510288Y-100878210D01*
X133379185Y-100790609D01*
X133379172Y-100790602D01*
X133233501Y-100730264D01*
X133233489Y-100730261D01*
X133078845Y-100699500D01*
X133078842Y-100699500D01*
X132921158Y-100699500D01*
X132921155Y-100699500D01*
X132766510Y-100730261D01*
X132766498Y-100730264D01*
X132620827Y-100790602D01*
X132620814Y-100790609D01*
X132489711Y-100878210D01*
X132489707Y-100878213D01*
X132378213Y-100989707D01*
X132378210Y-100989711D01*
X132290609Y-101120814D01*
X132290602Y-101120827D01*
X132230264Y-101266498D01*
X132230261Y-101266510D01*
X132199500Y-101421153D01*
X132199500Y-101578846D01*
X132230261Y-101733489D01*
X132230264Y-101733501D01*
X132290602Y-101879172D01*
X132290609Y-101879185D01*
X132378210Y-102010288D01*
X132378213Y-102010292D01*
X132489708Y-102121787D01*
X132489711Y-102121789D01*
X132529391Y-102148302D01*
X132574195Y-102201913D01*
X132584500Y-102251404D01*
X132584500Y-103033000D01*
X132564815Y-103100039D01*
X132512011Y-103145794D01*
X132460500Y-103157000D01*
X131467129Y-103157000D01*
X131467123Y-103157001D01*
X131407518Y-103163408D01*
X131373331Y-103176159D01*
X131303639Y-103181142D01*
X131286669Y-103176159D01*
X131269140Y-103169621D01*
X131252483Y-103163409D01*
X131252482Y-103163408D01*
X131192883Y-103157001D01*
X131192881Y-103157000D01*
X131192873Y-103157000D01*
X131192864Y-103157000D01*
X130197129Y-103157000D01*
X130197123Y-103157001D01*
X130137518Y-103163408D01*
X130103331Y-103176159D01*
X130033639Y-103181142D01*
X130016669Y-103176159D01*
X129999140Y-103169621D01*
X129982483Y-103163409D01*
X129982482Y-103163408D01*
X129922883Y-103157001D01*
X129922881Y-103157000D01*
X129922873Y-103157000D01*
X129922864Y-103157000D01*
X128927129Y-103157000D01*
X128927123Y-103157001D01*
X128867518Y-103163408D01*
X128833331Y-103176159D01*
X128763639Y-103181142D01*
X128746669Y-103176159D01*
X128729140Y-103169621D01*
X128712483Y-103163409D01*
X128712482Y-103163408D01*
X128652883Y-103157001D01*
X128652881Y-103157000D01*
X128652873Y-103157000D01*
X128652864Y-103157000D01*
X127657129Y-103157000D01*
X127657123Y-103157001D01*
X127597518Y-103163408D01*
X127563331Y-103176159D01*
X127493639Y-103181142D01*
X127476669Y-103176159D01*
X127459140Y-103169621D01*
X127442483Y-103163409D01*
X127442482Y-103163408D01*
X127382883Y-103157001D01*
X127382881Y-103157000D01*
X127382873Y-103157000D01*
X127382864Y-103157000D01*
X126387129Y-103157000D01*
X126387123Y-103157001D01*
X126327518Y-103163408D01*
X126293331Y-103176159D01*
X126223639Y-103181142D01*
X126206669Y-103176159D01*
X126189140Y-103169621D01*
X126172483Y-103163409D01*
X126172482Y-103163408D01*
X126112883Y-103157001D01*
X126112881Y-103157000D01*
X126112873Y-103157000D01*
X126112864Y-103157000D01*
X125117129Y-103157000D01*
X125117123Y-103157001D01*
X125057518Y-103163408D01*
X125023331Y-103176159D01*
X124953639Y-103181142D01*
X124936669Y-103176159D01*
X124919140Y-103169621D01*
X124902483Y-103163409D01*
X124902482Y-103163408D01*
X124842883Y-103157001D01*
X124842881Y-103157000D01*
X124842873Y-103157000D01*
X124842864Y-103157000D01*
X123847129Y-103157000D01*
X123847123Y-103157001D01*
X123787520Y-103163408D01*
X123787517Y-103163408D01*
X123787517Y-103163409D01*
X123752620Y-103176425D01*
X123752617Y-103176426D01*
X123682925Y-103181409D01*
X123665952Y-103176425D01*
X123632379Y-103163903D01*
X123632372Y-103163901D01*
X123572844Y-103157500D01*
X123325000Y-103157500D01*
X123325000Y-106064770D01*
X123305315Y-106131809D01*
X123288681Y-106152451D01*
X101147951Y-128293181D01*
X101086628Y-128326666D01*
X101060270Y-128329500D01*
X87884604Y-128329500D01*
X87837155Y-128320062D01*
X87813497Y-128310263D01*
X87813493Y-128310262D01*
X87813488Y-128310260D01*
X87658845Y-128279500D01*
X87658842Y-128279500D01*
X87501158Y-128279500D01*
X87501155Y-128279500D01*
X87346510Y-128310261D01*
X87346498Y-128310264D01*
X87200827Y-128370602D01*
X87200814Y-128370609D01*
X87069711Y-128458210D01*
X87069707Y-128458213D01*
X86958213Y-128569707D01*
X86958210Y-128569711D01*
X86870609Y-128700814D01*
X86870602Y-128700827D01*
X86810264Y-128846498D01*
X86810261Y-128846510D01*
X86779500Y-129001153D01*
X86779500Y-129158846D01*
X86810261Y-129313489D01*
X86810264Y-129313501D01*
X86870602Y-129459172D01*
X86870609Y-129459185D01*
X86958210Y-129590288D01*
X86958213Y-129590292D01*
X87069707Y-129701786D01*
X87069711Y-129701789D01*
X87200814Y-129789390D01*
X87200827Y-129789397D01*
X87300060Y-129830500D01*
X87346503Y-129849737D01*
X87501153Y-129880499D01*
X87501156Y-129880500D01*
X87501158Y-129880500D01*
X87658844Y-129880500D01*
X87658845Y-129880499D01*
X87782479Y-129855907D01*
X87813488Y-129849739D01*
X87813489Y-129849738D01*
X87813497Y-129849737D01*
X87837155Y-129839937D01*
X87884604Y-129830500D01*
X101496420Y-129830500D01*
X101593962Y-129811096D01*
X101641413Y-129801658D01*
X101777995Y-129745084D01*
X101863748Y-129687786D01*
X101900916Y-129662952D01*
X123382819Y-108181047D01*
X123444142Y-108147563D01*
X123513834Y-108152547D01*
X123569767Y-108194419D01*
X123594184Y-108259883D01*
X123594500Y-108268729D01*
X123594500Y-115418918D01*
X123594500Y-115418920D01*
X123594499Y-115418920D01*
X123623340Y-115563907D01*
X123623343Y-115563917D01*
X123679914Y-115700492D01*
X123679915Y-115700494D01*
X123679916Y-115700495D01*
X123712813Y-115749729D01*
X123762048Y-115823416D01*
X123763696Y-115825064D01*
X123768307Y-115831891D01*
X123769841Y-115836707D01*
X123780109Y-115853840D01*
X123790601Y-115879170D01*
X123790609Y-115879185D01*
X123878210Y-116010288D01*
X123878213Y-116010292D01*
X123989707Y-116121786D01*
X123989711Y-116121789D01*
X124120814Y-116209390D01*
X124120827Y-116209397D01*
X124266498Y-116269735D01*
X124266503Y-116269737D01*
X124382825Y-116292875D01*
X124421153Y-116300499D01*
X124421156Y-116300500D01*
X124421158Y-116300500D01*
X124578844Y-116300500D01*
X124578845Y-116300499D01*
X124733497Y-116269737D01*
X124879179Y-116209394D01*
X125010289Y-116121789D01*
X125121789Y-116010289D01*
X125209394Y-115879179D01*
X125269737Y-115733497D01*
X125300500Y-115578842D01*
X125300500Y-115421158D01*
X125300500Y-115421155D01*
X125300499Y-115421153D01*
X125286246Y-115349500D01*
X125269737Y-115266503D01*
X125255329Y-115231719D01*
X125209397Y-115120827D01*
X125209390Y-115120814D01*
X125118405Y-114984646D01*
X125120061Y-114983539D01*
X125096332Y-114927652D01*
X125095500Y-114913309D01*
X125095500Y-106281999D01*
X125115185Y-106214960D01*
X125167989Y-106169205D01*
X125219495Y-106157999D01*
X126112872Y-106157999D01*
X126112874Y-106157998D01*
X126112887Y-106157998D01*
X126141803Y-106154888D01*
X126147244Y-106154304D01*
X126216003Y-106166708D01*
X126267141Y-106214318D01*
X126284500Y-106277593D01*
X126284500Y-127305939D01*
X126284499Y-127305943D01*
X126284499Y-127311080D01*
X126284499Y-127314910D01*
X126276230Y-127343065D01*
X126264814Y-127381942D01*
X126264810Y-127381945D01*
X126264810Y-127381949D01*
X126264804Y-127381953D01*
X126248180Y-127402584D01*
X107787584Y-145863181D01*
X107726261Y-145896666D01*
X107699903Y-145899500D01*
X96300098Y-145899500D01*
X96233059Y-145879815D01*
X96212417Y-145863181D01*
X90756819Y-140407583D01*
X90742115Y-140380655D01*
X90725523Y-140354837D01*
X90724631Y-140348636D01*
X90723334Y-140346260D01*
X90720500Y-140319902D01*
X90720500Y-140156989D01*
X90740185Y-140089950D01*
X90788205Y-140046504D01*
X90848257Y-140015907D01*
X90942766Y-139947242D01*
X91025193Y-139887357D01*
X91025195Y-139887354D01*
X91025199Y-139887352D01*
X91179852Y-139732699D01*
X91289991Y-139581103D01*
X91345320Y-139538439D01*
X91414933Y-139532460D01*
X91476729Y-139565065D01*
X91490628Y-139581106D01*
X91516806Y-139617138D01*
X91516807Y-139617138D01*
X92222352Y-138911593D01*
X92245792Y-138999071D01*
X92304311Y-139100430D01*
X92387070Y-139183189D01*
X92488429Y-139241708D01*
X92575905Y-139265147D01*
X91870360Y-139970691D01*
X91932008Y-140015480D01*
X92126808Y-140114737D01*
X92126811Y-140114738D01*
X92334740Y-140182297D01*
X92550684Y-140216500D01*
X92769316Y-140216500D01*
X92985259Y-140182297D01*
X93193188Y-140114738D01*
X93193191Y-140114737D01*
X93387995Y-140015478D01*
X93449638Y-139970691D01*
X93449639Y-139970691D01*
X92744094Y-139265147D01*
X92831571Y-139241708D01*
X92932930Y-139183189D01*
X93015689Y-139100430D01*
X93074208Y-138999071D01*
X93097647Y-138911595D01*
X93803191Y-139617139D01*
X93803191Y-139617138D01*
X93847978Y-139555495D01*
X93947237Y-139360691D01*
X93947238Y-139360688D01*
X94014797Y-139152759D01*
X94049000Y-138936816D01*
X94049000Y-138718183D01*
X94014797Y-138502240D01*
X93947238Y-138294311D01*
X93947237Y-138294308D01*
X93847980Y-138099508D01*
X93803191Y-138037860D01*
X93097647Y-138743404D01*
X93074208Y-138655929D01*
X93015689Y-138554570D01*
X92932930Y-138471811D01*
X92831571Y-138413292D01*
X92744092Y-138389852D01*
X93449638Y-137684307D01*
X93449638Y-137684306D01*
X93387995Y-137639521D01*
X93387993Y-137639520D01*
X93193191Y-137540262D01*
X93193188Y-137540261D01*
X92985259Y-137472702D01*
X92769316Y-137438500D01*
X92550684Y-137438500D01*
X92334740Y-137472702D01*
X92126811Y-137540261D01*
X92126808Y-137540262D01*
X91932001Y-137639523D01*
X91870360Y-137684306D01*
X91870360Y-137684307D01*
X92575905Y-138389852D01*
X92488429Y-138413292D01*
X92387070Y-138471811D01*
X92304311Y-138554570D01*
X92245792Y-138655929D01*
X92222352Y-138743405D01*
X91516807Y-138037860D01*
X91516805Y-138037860D01*
X91490626Y-138073894D01*
X91435297Y-138116560D01*
X91365683Y-138122539D01*
X91303888Y-138089934D01*
X91289995Y-138073901D01*
X91179852Y-137922301D01*
X91025199Y-137767648D01*
X91025193Y-137767642D01*
X90848260Y-137639095D01*
X90848259Y-137639094D01*
X90848257Y-137639093D01*
X90785825Y-137607282D01*
X90653383Y-137539798D01*
X90653380Y-137539797D01*
X90445376Y-137472214D01*
X90229361Y-137438000D01*
X90229356Y-137438000D01*
X90010644Y-137438000D01*
X90010639Y-137438000D01*
X89794623Y-137472214D01*
X89586619Y-137539797D01*
X89586616Y-137539798D01*
X89391739Y-137639095D01*
X89214806Y-137767642D01*
X89060142Y-137922306D01*
X88950318Y-138073469D01*
X88894989Y-138116135D01*
X88825375Y-138122114D01*
X88763580Y-138089509D01*
X88749682Y-138073469D01*
X88639857Y-137922306D01*
X88485193Y-137767642D01*
X88308260Y-137639095D01*
X88308259Y-137639094D01*
X88308257Y-137639093D01*
X88245825Y-137607282D01*
X88113383Y-137539798D01*
X88113380Y-137539797D01*
X87905376Y-137472214D01*
X87689361Y-137438000D01*
X87689356Y-137438000D01*
X87470644Y-137438000D01*
X87470639Y-137438000D01*
X87254623Y-137472214D01*
X87046619Y-137539797D01*
X87046616Y-137539798D01*
X86851739Y-137639095D01*
X86674806Y-137767642D01*
X86520142Y-137922306D01*
X86391595Y-138099239D01*
X86292298Y-138294116D01*
X86292297Y-138294119D01*
X86224714Y-138502123D01*
X86190500Y-138718138D01*
X86190500Y-138936861D01*
X86224714Y-139152876D01*
X86292297Y-139360880D01*
X86292298Y-139360883D01*
X86359782Y-139493325D01*
X86379722Y-139532460D01*
X86391595Y-139555760D01*
X86520142Y-139732693D01*
X86674806Y-139887357D01*
X86789508Y-139970691D01*
X86851743Y-140015907D01*
X86979132Y-140080815D01*
X87046616Y-140115201D01*
X87046619Y-140115202D01*
X87150621Y-140148993D01*
X87254625Y-140182786D01*
X87354672Y-140198632D01*
X87470639Y-140217000D01*
X87470644Y-140217000D01*
X87689361Y-140217000D01*
X87794082Y-140200412D01*
X87905375Y-140182786D01*
X88113383Y-140115201D01*
X88308257Y-140015907D01*
X88407601Y-139943729D01*
X88485193Y-139887357D01*
X88485195Y-139887354D01*
X88485199Y-139887352D01*
X88639852Y-139732699D01*
X88749683Y-139581528D01*
X88805011Y-139538864D01*
X88874624Y-139532885D01*
X88936420Y-139565490D01*
X88950313Y-139581523D01*
X89056682Y-139727928D01*
X89060148Y-139732699D01*
X89214806Y-139887357D01*
X89390691Y-140015143D01*
X89391743Y-140015907D01*
X89451794Y-140046504D01*
X89502591Y-140094478D01*
X89519500Y-140156989D01*
X89519500Y-140533330D01*
X89519499Y-140533348D01*
X89519499Y-140699054D01*
X89519498Y-140699054D01*
X89560423Y-140851785D01*
X89589358Y-140901900D01*
X89589359Y-140901904D01*
X89589360Y-140901904D01*
X89639479Y-140988714D01*
X89639481Y-140988717D01*
X89758349Y-141107585D01*
X89758354Y-141107589D01*
X95631284Y-146980520D01*
X95631286Y-146980521D01*
X95631290Y-146980524D01*
X95768209Y-147059573D01*
X95768216Y-147059577D01*
X95920943Y-147100501D01*
X95920945Y-147100501D01*
X96086654Y-147100501D01*
X96086670Y-147100500D01*
X107913331Y-147100500D01*
X107913347Y-147100501D01*
X107920943Y-147100501D01*
X108079054Y-147100501D01*
X108079057Y-147100501D01*
X108231785Y-147059577D01*
X108281904Y-147030639D01*
X108368716Y-146980520D01*
X108480520Y-146868716D01*
X108480520Y-146868714D01*
X108490728Y-146858507D01*
X108490729Y-146858504D01*
X127342821Y-128006414D01*
X127404142Y-127972931D01*
X127473834Y-127977915D01*
X127529767Y-128019787D01*
X127554184Y-128085251D01*
X127554500Y-128094097D01*
X127554500Y-132044903D01*
X127534815Y-132111942D01*
X127518181Y-132132584D01*
X111787584Y-147863181D01*
X111726261Y-147896666D01*
X111699903Y-147899500D01*
X75800098Y-147899500D01*
X75733059Y-147879815D01*
X75712417Y-147863181D01*
X68636819Y-140787583D01*
X68603334Y-140726260D01*
X68600500Y-140699902D01*
X68600500Y-135205648D01*
X80856500Y-135205648D01*
X80856500Y-135464351D01*
X80882877Y-135630887D01*
X80896968Y-135719854D01*
X80976909Y-135965885D01*
X81094353Y-136196382D01*
X81246408Y-136405668D01*
X81429332Y-136588592D01*
X81638618Y-136740647D01*
X81869115Y-136858091D01*
X82115146Y-136938032D01*
X82210961Y-136953207D01*
X82370649Y-136978500D01*
X82370654Y-136978500D01*
X82629351Y-136978500D01*
X82771294Y-136956017D01*
X82884854Y-136938032D01*
X83130885Y-136858091D01*
X83361382Y-136740647D01*
X83570668Y-136588592D01*
X83753592Y-136405668D01*
X83905647Y-136196382D01*
X84023091Y-135965885D01*
X84103032Y-135719854D01*
X84141272Y-135478416D01*
X84143500Y-135464351D01*
X84143500Y-135205648D01*
X96096500Y-135205648D01*
X96096500Y-135464351D01*
X96122877Y-135630887D01*
X96136968Y-135719854D01*
X96216909Y-135965885D01*
X96334353Y-136196382D01*
X96486408Y-136405668D01*
X96669332Y-136588592D01*
X96878618Y-136740647D01*
X97109115Y-136858091D01*
X97355146Y-136938032D01*
X97450961Y-136953207D01*
X97610649Y-136978500D01*
X97610654Y-136978500D01*
X97869351Y-136978500D01*
X98011294Y-136956017D01*
X98124854Y-136938032D01*
X98370885Y-136858091D01*
X98601382Y-136740647D01*
X98810668Y-136588592D01*
X98993592Y-136405668D01*
X99145647Y-136196382D01*
X99263091Y-135965885D01*
X99343032Y-135719854D01*
X99381272Y-135478416D01*
X99383500Y-135464351D01*
X99383500Y-135205648D01*
X99343032Y-134950149D01*
X99343032Y-134950146D01*
X99263091Y-134704115D01*
X99145647Y-134473618D01*
X98993592Y-134264332D01*
X98810668Y-134081408D01*
X98601382Y-133929353D01*
X98370885Y-133811909D01*
X98124854Y-133731968D01*
X98124852Y-133731967D01*
X98124850Y-133731967D01*
X97869351Y-133691500D01*
X97869346Y-133691500D01*
X97610654Y-133691500D01*
X97610649Y-133691500D01*
X97355149Y-133731967D01*
X97109112Y-133811910D01*
X96878617Y-133929353D01*
X96669329Y-134081410D01*
X96486410Y-134264329D01*
X96334353Y-134473617D01*
X96216910Y-134704112D01*
X96136967Y-134950149D01*
X96096500Y-135205648D01*
X84143500Y-135205648D01*
X84103032Y-134950149D01*
X84103032Y-134950146D01*
X84023091Y-134704115D01*
X83905647Y-134473618D01*
X83753592Y-134264332D01*
X83570668Y-134081408D01*
X83361382Y-133929353D01*
X83130885Y-133811909D01*
X82884854Y-133731968D01*
X82884852Y-133731967D01*
X82884850Y-133731967D01*
X82629351Y-133691500D01*
X82629346Y-133691500D01*
X82370654Y-133691500D01*
X82370649Y-133691500D01*
X82115149Y-133731967D01*
X81869112Y-133811910D01*
X81638617Y-133929353D01*
X81429329Y-134081410D01*
X81246410Y-134264329D01*
X81094353Y-134473617D01*
X80976910Y-134704112D01*
X80896967Y-134950149D01*
X80856500Y-135205648D01*
X68600500Y-135205648D01*
X68600500Y-134800097D01*
X68620185Y-134733058D01*
X68636819Y-134712416D01*
X71133484Y-132215752D01*
X74044917Y-129304319D01*
X74106240Y-129270834D01*
X74132598Y-129268000D01*
X78630510Y-129268000D01*
X78697549Y-129287685D01*
X78740994Y-129335704D01*
X78769858Y-129392352D01*
X78771595Y-129395760D01*
X78900142Y-129572693D01*
X78900148Y-129572699D01*
X79054801Y-129727352D01*
X79206395Y-129837491D01*
X79249060Y-129892819D01*
X79255039Y-129962432D01*
X79222434Y-130024228D01*
X79206394Y-130038126D01*
X79170360Y-130064305D01*
X79170360Y-130064307D01*
X79875905Y-130769852D01*
X79788429Y-130793292D01*
X79687070Y-130851811D01*
X79604311Y-130934570D01*
X79545792Y-131035929D01*
X79522352Y-131123405D01*
X78816807Y-130417860D01*
X78816806Y-130417860D01*
X78772023Y-130479501D01*
X78672762Y-130674308D01*
X78672761Y-130674311D01*
X78605202Y-130882240D01*
X78571000Y-131098183D01*
X78571000Y-131316816D01*
X78605202Y-131532759D01*
X78672761Y-131740688D01*
X78672762Y-131740691D01*
X78772020Y-131935493D01*
X78772021Y-131935495D01*
X78816806Y-131997138D01*
X78816807Y-131997138D01*
X79522352Y-131291593D01*
X79545792Y-131379071D01*
X79604311Y-131480430D01*
X79687070Y-131563189D01*
X79788429Y-131621708D01*
X79875905Y-131645147D01*
X79170360Y-132350691D01*
X79232008Y-132395480D01*
X79426808Y-132494737D01*
X79426811Y-132494738D01*
X79634740Y-132562297D01*
X79850684Y-132596500D01*
X80069316Y-132596500D01*
X80285259Y-132562297D01*
X80493188Y-132494738D01*
X80493191Y-132494737D01*
X80687995Y-132395478D01*
X80749638Y-132350691D01*
X80749639Y-132350691D01*
X80044094Y-131645147D01*
X80131571Y-131621708D01*
X80232930Y-131563189D01*
X80315689Y-131480430D01*
X80374208Y-131379071D01*
X80397647Y-131291594D01*
X81103191Y-131997139D01*
X81103191Y-131997138D01*
X81147978Y-131935495D01*
X81247237Y-131740691D01*
X81247238Y-131740688D01*
X81314797Y-131532759D01*
X81349000Y-131316816D01*
X81349000Y-131098183D01*
X81314797Y-130882240D01*
X81247238Y-130674311D01*
X81247237Y-130674308D01*
X81147980Y-130479508D01*
X81103191Y-130417860D01*
X80397647Y-131123404D01*
X80374208Y-131035929D01*
X80315689Y-130934570D01*
X80232930Y-130851811D01*
X80131571Y-130793292D01*
X80044092Y-130769852D01*
X80749638Y-130064307D01*
X80749638Y-130064306D01*
X80713606Y-130038128D01*
X80670939Y-129982799D01*
X80664959Y-129913185D01*
X80697565Y-129851390D01*
X80713599Y-129837494D01*
X80865199Y-129727352D01*
X81019852Y-129572699D01*
X81019854Y-129572695D01*
X81019857Y-129572693D01*
X81102324Y-129459185D01*
X81148407Y-129395757D01*
X81247701Y-129200883D01*
X81315286Y-128992875D01*
X81339852Y-128837772D01*
X81349500Y-128776861D01*
X81349500Y-128558138D01*
X81319797Y-128370609D01*
X81315286Y-128342125D01*
X81264877Y-128186980D01*
X81247702Y-128134119D01*
X81247701Y-128134116D01*
X81204887Y-128050091D01*
X81148407Y-127939243D01*
X81140147Y-127927874D01*
X81019857Y-127762306D01*
X80865199Y-127607648D01*
X80860507Y-127604239D01*
X80714028Y-127497816D01*
X80671364Y-127442489D01*
X80665385Y-127372876D01*
X80697990Y-127311080D01*
X80714023Y-127297186D01*
X80865199Y-127187352D01*
X81019852Y-127032699D01*
X81019854Y-127032695D01*
X81019857Y-127032693D01*
X81076229Y-126955101D01*
X81148407Y-126855757D01*
X81247701Y-126660883D01*
X81315286Y-126452875D01*
X81335400Y-126325880D01*
X81349500Y-126236861D01*
X81349500Y-126018138D01*
X81329595Y-125892471D01*
X81315286Y-125802125D01*
X81247701Y-125594117D01*
X81247701Y-125594116D01*
X81213315Y-125526632D01*
X81148407Y-125399243D01*
X81140147Y-125387874D01*
X81019857Y-125222306D01*
X80865193Y-125067642D01*
X80688260Y-124939095D01*
X80688259Y-124939094D01*
X80688257Y-124939093D01*
X80625825Y-124907282D01*
X80493383Y-124839798D01*
X80493380Y-124839797D01*
X80285376Y-124772214D01*
X80069361Y-124738000D01*
X80069356Y-124738000D01*
X79850644Y-124738000D01*
X79850639Y-124738000D01*
X79634623Y-124772214D01*
X79426619Y-124839797D01*
X79426616Y-124839798D01*
X79231739Y-124939095D01*
X79054806Y-125067642D01*
X78900142Y-125222306D01*
X78771595Y-125399239D01*
X78672298Y-125594116D01*
X78672297Y-125594119D01*
X78604714Y-125802123D01*
X78570500Y-126018138D01*
X78570500Y-126236861D01*
X78604714Y-126452876D01*
X78672297Y-126660880D01*
X78672298Y-126660883D01*
X78771595Y-126855760D01*
X78900142Y-127032693D01*
X79054806Y-127187357D01*
X79205969Y-127297182D01*
X79248635Y-127352511D01*
X79254614Y-127422125D01*
X79222009Y-127483920D01*
X79205969Y-127497818D01*
X79054806Y-127607642D01*
X78900142Y-127762306D01*
X78771595Y-127939239D01*
X78771593Y-127939243D01*
X78751889Y-127977915D01*
X78740995Y-127999295D01*
X78693020Y-128050091D01*
X78630510Y-128067000D01*
X73919170Y-128067000D01*
X73919154Y-128066999D01*
X73911558Y-128066999D01*
X73753443Y-128066999D01*
X73685327Y-128085251D01*
X73600714Y-128107923D01*
X73600709Y-128107926D01*
X73463790Y-128186975D01*
X73463782Y-128186981D01*
X67519481Y-134131282D01*
X67519479Y-134131285D01*
X67469361Y-134218094D01*
X67469359Y-134218096D01*
X67440425Y-134268209D01*
X67440424Y-134268210D01*
X67440423Y-134268215D01*
X67399499Y-134420943D01*
X67399499Y-134579057D01*
X67399499Y-134579059D01*
X67399500Y-134589053D01*
X67399500Y-140913330D01*
X67399499Y-140913348D01*
X67399499Y-141079054D01*
X67399498Y-141079054D01*
X67440423Y-141231785D01*
X67469358Y-141281900D01*
X67469359Y-141281904D01*
X67469360Y-141281904D01*
X67519479Y-141368714D01*
X67519481Y-141368717D01*
X67638349Y-141487585D01*
X67638354Y-141487589D01*
X75131284Y-148980520D01*
X75131286Y-148980521D01*
X75131290Y-148980524D01*
X75268209Y-149059573D01*
X75268216Y-149059577D01*
X75420943Y-149100501D01*
X75420945Y-149100501D01*
X75586654Y-149100501D01*
X75586670Y-149100500D01*
X111913331Y-149100500D01*
X111913347Y-149100501D01*
X111920943Y-149100501D01*
X112079054Y-149100501D01*
X112079057Y-149100501D01*
X112231785Y-149059577D01*
X112281904Y-149030639D01*
X112368716Y-148980520D01*
X112480520Y-148868716D01*
X112480520Y-148868714D01*
X112490728Y-148858507D01*
X112490730Y-148858504D01*
X126478586Y-134870648D01*
X157856500Y-134870648D01*
X157856500Y-135129351D01*
X157892318Y-135355495D01*
X157896968Y-135384854D01*
X157976909Y-135630885D01*
X158094353Y-135861382D01*
X158246408Y-136070668D01*
X158429332Y-136253592D01*
X158638618Y-136405647D01*
X158869115Y-136523091D01*
X159115146Y-136603032D01*
X159210961Y-136618207D01*
X159370649Y-136643500D01*
X159370654Y-136643500D01*
X159629351Y-136643500D01*
X159771294Y-136621017D01*
X159884854Y-136603032D01*
X160130885Y-136523091D01*
X160361382Y-136405647D01*
X160570668Y-136253592D01*
X160753592Y-136070668D01*
X160905647Y-135861382D01*
X161023091Y-135630885D01*
X161103032Y-135384854D01*
X161129315Y-135218907D01*
X161143500Y-135129351D01*
X161143500Y-134870648D01*
X161103032Y-134615149D01*
X161103032Y-134615146D01*
X161023091Y-134369115D01*
X160905647Y-134138618D01*
X160753592Y-133929332D01*
X160570668Y-133746408D01*
X160361382Y-133594353D01*
X160130885Y-133476909D01*
X159884854Y-133396968D01*
X159884852Y-133396967D01*
X159884850Y-133396967D01*
X159629351Y-133356500D01*
X159629346Y-133356500D01*
X159370654Y-133356500D01*
X159370649Y-133356500D01*
X159115149Y-133396967D01*
X158869112Y-133476910D01*
X158638617Y-133594353D01*
X158429329Y-133746410D01*
X158246410Y-133929329D01*
X158094353Y-134138617D01*
X157976910Y-134369112D01*
X157896967Y-134615149D01*
X157856500Y-134870648D01*
X126478586Y-134870648D01*
X128523713Y-132825521D01*
X128523716Y-132825520D01*
X128635520Y-132713716D01*
X128685639Y-132626904D01*
X128714577Y-132576785D01*
X128755500Y-132424057D01*
X128755500Y-132265943D01*
X128755500Y-109474809D01*
X128775185Y-109407770D01*
X128827989Y-109362015D01*
X128897147Y-109352071D01*
X128960703Y-109381096D01*
X128967181Y-109387128D01*
X148417825Y-128837772D01*
X148417832Y-128837778D01*
X148496373Y-128890257D01*
X148496374Y-128890257D01*
X148524373Y-128908965D01*
X148642756Y-128958001D01*
X148642760Y-128958001D01*
X148642761Y-128958002D01*
X148768428Y-128983000D01*
X148768431Y-128983000D01*
X155655986Y-128983000D01*
X155723025Y-129002685D01*
X155766470Y-129050703D01*
X155771594Y-129060760D01*
X155900142Y-129237693D01*
X155900148Y-129237699D01*
X156054801Y-129392352D01*
X156206395Y-129502491D01*
X156249060Y-129557819D01*
X156255039Y-129627432D01*
X156222434Y-129689228D01*
X156206394Y-129703126D01*
X156170360Y-129729305D01*
X156170360Y-129729307D01*
X156875905Y-130434852D01*
X156788429Y-130458292D01*
X156687070Y-130516811D01*
X156604311Y-130599570D01*
X156545792Y-130700929D01*
X156522352Y-130788405D01*
X155816807Y-130082860D01*
X155816806Y-130082860D01*
X155772023Y-130144501D01*
X155672762Y-130339308D01*
X155672761Y-130339311D01*
X155605202Y-130547240D01*
X155571000Y-130763183D01*
X155571000Y-130981816D01*
X155605202Y-131197759D01*
X155672761Y-131405688D01*
X155672762Y-131405691D01*
X155772020Y-131600493D01*
X155772021Y-131600495D01*
X155816806Y-131662138D01*
X155816807Y-131662138D01*
X156522352Y-130956593D01*
X156545792Y-131044071D01*
X156604311Y-131145430D01*
X156687070Y-131228189D01*
X156788429Y-131286708D01*
X156875905Y-131310147D01*
X156170360Y-132015691D01*
X156232008Y-132060480D01*
X156426808Y-132159737D01*
X156426811Y-132159738D01*
X156634740Y-132227297D01*
X156850684Y-132261500D01*
X157069316Y-132261500D01*
X157285259Y-132227297D01*
X157493188Y-132159738D01*
X157493191Y-132159737D01*
X157687995Y-132060478D01*
X157749638Y-132015691D01*
X157749639Y-132015691D01*
X157044094Y-131310147D01*
X157131571Y-131286708D01*
X157232930Y-131228189D01*
X157315689Y-131145430D01*
X157374208Y-131044071D01*
X157397647Y-130956595D01*
X158103191Y-131662139D01*
X158103191Y-131662138D01*
X158147978Y-131600495D01*
X158247237Y-131405691D01*
X158247238Y-131405688D01*
X158314797Y-131197759D01*
X158349000Y-130981816D01*
X158349000Y-130763183D01*
X158314797Y-130547240D01*
X158247238Y-130339311D01*
X158247237Y-130339308D01*
X158147980Y-130144508D01*
X158103191Y-130082860D01*
X157397647Y-130788404D01*
X157374208Y-130700929D01*
X157315689Y-130599570D01*
X157232930Y-130516811D01*
X157131571Y-130458292D01*
X157044092Y-130434852D01*
X157749638Y-129729307D01*
X157749638Y-129729306D01*
X157713606Y-129703128D01*
X157670939Y-129647799D01*
X157664959Y-129578185D01*
X157697565Y-129516390D01*
X157713599Y-129502494D01*
X157865199Y-129392352D01*
X158019852Y-129237699D01*
X158019854Y-129237695D01*
X158019857Y-129237693D01*
X158077145Y-129158842D01*
X158148407Y-129060757D01*
X158247701Y-128865883D01*
X158315286Y-128657875D01*
X158338569Y-128510873D01*
X158368498Y-128447738D01*
X158427810Y-128410807D01*
X158497672Y-128411805D01*
X158548723Y-128442590D01*
X163793181Y-133687048D01*
X163826666Y-133748371D01*
X163829500Y-133774729D01*
X163829500Y-137257071D01*
X163809815Y-137324110D01*
X163778385Y-137357389D01*
X163674807Y-137432642D01*
X163674802Y-137432646D01*
X163520142Y-137587306D01*
X163391595Y-137764239D01*
X163292298Y-137959116D01*
X163292297Y-137959119D01*
X163224714Y-138167123D01*
X163190500Y-138383138D01*
X163190500Y-138601861D01*
X163224714Y-138817876D01*
X163292297Y-139025880D01*
X163292298Y-139025883D01*
X163356946Y-139152759D01*
X163379722Y-139197460D01*
X163391595Y-139220760D01*
X163520142Y-139397693D01*
X163674804Y-139552355D01*
X163778385Y-139627610D01*
X163821051Y-139682940D01*
X163829500Y-139727928D01*
X163829500Y-142153918D01*
X163829500Y-142153920D01*
X163829499Y-142153920D01*
X163858340Y-142298907D01*
X163858343Y-142298917D01*
X163914914Y-142435492D01*
X163947812Y-142484727D01*
X163947813Y-142484730D01*
X163997046Y-142558414D01*
X163997052Y-142558421D01*
X167151813Y-145713181D01*
X168521584Y-147082952D01*
X168539054Y-147094624D01*
X168547847Y-147100500D01*
X168547849Y-147100501D01*
X168644505Y-147165084D01*
X168781087Y-147221658D01*
X168781091Y-147221658D01*
X168781092Y-147221659D01*
X168926079Y-147250500D01*
X168926082Y-147250500D01*
X186073920Y-147250500D01*
X186171462Y-147231096D01*
X186218913Y-147221658D01*
X186355495Y-147165084D01*
X186452151Y-147100501D01*
X186478416Y-147082952D01*
X198082952Y-135478416D01*
X198145467Y-135384854D01*
X198165084Y-135355495D01*
X198221658Y-135218913D01*
X198231096Y-135171462D01*
X198250500Y-135073920D01*
X198250500Y-95426079D01*
X198221659Y-95281092D01*
X198221658Y-95281091D01*
X198221658Y-95281087D01*
X198204175Y-95238879D01*
X198165087Y-95144511D01*
X198165085Y-95144507D01*
X198165084Y-95144505D01*
X198119621Y-95076465D01*
X198084986Y-95024628D01*
X198082954Y-95021586D01*
X193286819Y-90225451D01*
X193253334Y-90164128D01*
X193250500Y-90137770D01*
X193250500Y-89862230D01*
X193270185Y-89795191D01*
X193286819Y-89774549D01*
X193311204Y-89750164D01*
X193342712Y-89718656D01*
X193434814Y-89569334D01*
X193489999Y-89402797D01*
X193500500Y-89300009D01*
X193500499Y-88099992D01*
X193499264Y-88087906D01*
X193489999Y-87997203D01*
X193489998Y-87997200D01*
X193434814Y-87830666D01*
X193342712Y-87681344D01*
X193286819Y-87625451D01*
X193253334Y-87564128D01*
X193250500Y-87537770D01*
X193250500Y-80426079D01*
X193221659Y-80281092D01*
X193221658Y-80281091D01*
X193221658Y-80281087D01*
X193221656Y-80281082D01*
X193165087Y-80144511D01*
X193165080Y-80144498D01*
X193082952Y-80021585D01*
X193082951Y-80021584D01*
X192978416Y-79917049D01*
X189786819Y-76725451D01*
X189753334Y-76664128D01*
X189750500Y-76637770D01*
X189750500Y-69013732D01*
X189770185Y-68946693D01*
X189822989Y-68900938D01*
X189835495Y-68896026D01*
X189869334Y-68884814D01*
X190018656Y-68792712D01*
X190142712Y-68668656D01*
X190234814Y-68519334D01*
X190289999Y-68352797D01*
X190300500Y-68250009D01*
X190300499Y-65149992D01*
X190289999Y-65047203D01*
X190234814Y-64880666D01*
X190142712Y-64731344D01*
X190018656Y-64607288D01*
X189901009Y-64534723D01*
X189869336Y-64515187D01*
X189869331Y-64515185D01*
X189828995Y-64501819D01*
X189702797Y-64460001D01*
X189702795Y-64460000D01*
X189600010Y-64449500D01*
X188399998Y-64449500D01*
X188399981Y-64449501D01*
X188297203Y-64460000D01*
X188297200Y-64460001D01*
X188130668Y-64515185D01*
X188130661Y-64515188D01*
X188056942Y-64560658D01*
X187989550Y-64579097D01*
X187922886Y-64558173D01*
X187904166Y-64542799D01*
X186493421Y-63132052D01*
X186493414Y-63132046D01*
X186419729Y-63082812D01*
X186419729Y-63082813D01*
X186370491Y-63049913D01*
X186233917Y-62993343D01*
X186233907Y-62993340D01*
X186088920Y-62964500D01*
X186088918Y-62964500D01*
X176559500Y-62964500D01*
X176492461Y-62944815D01*
X176446706Y-62892011D01*
X176437564Y-62849986D01*
X187700001Y-62849986D01*
X187710494Y-62952697D01*
X187765641Y-63119119D01*
X187765643Y-63119124D01*
X187857684Y-63268345D01*
X187981654Y-63392315D01*
X188130875Y-63484356D01*
X188130880Y-63484358D01*
X188297302Y-63539505D01*
X188297309Y-63539506D01*
X188400019Y-63549999D01*
X188749999Y-63549999D01*
X189250000Y-63549999D01*
X189599972Y-63549999D01*
X189599986Y-63549998D01*
X189702697Y-63539505D01*
X189869119Y-63484358D01*
X189869124Y-63484356D01*
X190018345Y-63392315D01*
X190142315Y-63268345D01*
X190234356Y-63119124D01*
X190234358Y-63119119D01*
X190289505Y-62952697D01*
X190289506Y-62952690D01*
X190299999Y-62849986D01*
X190300000Y-62849973D01*
X190300000Y-61550000D01*
X189250000Y-61550000D01*
X189250000Y-63549999D01*
X188749999Y-63549999D01*
X188750000Y-63549998D01*
X188750000Y-61550000D01*
X187700001Y-61550000D01*
X187700001Y-62849986D01*
X176437564Y-62849986D01*
X176435500Y-62840500D01*
X176435500Y-61014993D01*
X176435499Y-61014980D01*
X176429921Y-60960383D01*
X176424999Y-60912200D01*
X176369815Y-60745664D01*
X176369811Y-60745658D01*
X176369810Y-60745655D01*
X176277714Y-60596346D01*
X176277711Y-60596342D01*
X176153657Y-60472288D01*
X176153653Y-60472285D01*
X176004344Y-60380189D01*
X176004338Y-60380186D01*
X176004336Y-60380185D01*
X175973482Y-60369961D01*
X175837801Y-60325001D01*
X175735019Y-60314500D01*
X175735012Y-60314500D01*
X169734988Y-60314500D01*
X169734980Y-60314500D01*
X169632198Y-60325001D01*
X169465666Y-60380184D01*
X169465655Y-60380189D01*
X169316346Y-60472285D01*
X169316342Y-60472288D01*
X169192288Y-60596342D01*
X169192285Y-60596346D01*
X169100189Y-60745655D01*
X169100184Y-60745666D01*
X169045001Y-60912198D01*
X169034500Y-61014980D01*
X169034500Y-62840500D01*
X169014815Y-62907539D01*
X168962011Y-62953294D01*
X168910500Y-62964500D01*
X167988958Y-62964500D01*
X167921919Y-62944815D01*
X167883420Y-62905598D01*
X167877712Y-62896344D01*
X167753657Y-62772289D01*
X167753656Y-62772288D01*
X167604428Y-62680244D01*
X167557705Y-62628297D01*
X167546482Y-62559334D01*
X167574326Y-62495252D01*
X167604430Y-62469167D01*
X167753343Y-62377317D01*
X167877315Y-62253345D01*
X167969356Y-62104124D01*
X167969358Y-62104119D01*
X168024505Y-61937697D01*
X168024506Y-61937690D01*
X168034999Y-61834986D01*
X168035000Y-61834973D01*
X168035000Y-61685000D01*
X164835001Y-61685000D01*
X164835001Y-61834986D01*
X164845494Y-61937697D01*
X164900641Y-62104119D01*
X164900643Y-62104124D01*
X164992684Y-62253345D01*
X165116654Y-62377315D01*
X165265570Y-62469167D01*
X165312294Y-62521115D01*
X165323517Y-62590078D01*
X165295673Y-62654160D01*
X165265570Y-62680245D01*
X165116342Y-62772289D01*
X164992289Y-62896342D01*
X164900187Y-63045663D01*
X164900185Y-63045668D01*
X164880525Y-63105000D01*
X164845001Y-63212203D01*
X164845001Y-63212204D01*
X164845000Y-63212204D01*
X164834500Y-63314983D01*
X164834500Y-64115001D01*
X164834501Y-64115019D01*
X164845000Y-64217796D01*
X164845001Y-64217799D01*
X164900185Y-64384331D01*
X164900187Y-64384336D01*
X164918792Y-64414499D01*
X164992288Y-64533656D01*
X165116344Y-64657712D01*
X165265094Y-64749461D01*
X165311818Y-64801409D01*
X165323041Y-64870372D01*
X165295197Y-64934454D01*
X165265094Y-64960539D01*
X165116342Y-65052289D01*
X164992289Y-65176342D01*
X164992288Y-65176344D01*
X164933281Y-65272011D01*
X164924901Y-65285597D01*
X164872953Y-65332321D01*
X164819362Y-65344500D01*
X155424499Y-65344500D01*
X155357460Y-65324815D01*
X155311705Y-65272011D01*
X155300499Y-65220500D01*
X155300499Y-64449998D01*
X155300498Y-64449981D01*
X155289999Y-64347203D01*
X155289998Y-64347200D01*
X155265084Y-64272015D01*
X155234814Y-64180666D01*
X155142712Y-64031344D01*
X155018656Y-63907288D01*
X154869334Y-63815186D01*
X154702797Y-63760001D01*
X154702795Y-63760000D01*
X154600010Y-63749500D01*
X153399998Y-63749500D01*
X153399981Y-63749501D01*
X153297203Y-63760000D01*
X153297200Y-63760001D01*
X153130668Y-63815185D01*
X153130663Y-63815187D01*
X152981342Y-63907289D01*
X152857289Y-64031342D01*
X152765187Y-64180663D01*
X152765186Y-64180666D01*
X152710001Y-64347203D01*
X152710001Y-64347204D01*
X152710000Y-64347204D01*
X152699500Y-64449983D01*
X152699500Y-66329191D01*
X152679815Y-66396230D01*
X152663181Y-66416872D01*
X150266873Y-68813181D01*
X150205550Y-68846666D01*
X150179192Y-68849500D01*
X143820808Y-68849500D01*
X143753769Y-68829815D01*
X143733127Y-68813181D01*
X139454674Y-64534727D01*
X139454673Y-64534726D01*
X139454669Y-64534723D01*
X139348127Y-64463535D01*
X139339595Y-64460001D01*
X139229744Y-64414499D01*
X139229738Y-64414497D01*
X139104071Y-64389500D01*
X139104069Y-64389500D01*
X135972781Y-64389500D01*
X135905742Y-64369815D01*
X135862296Y-64321795D01*
X135840217Y-64278462D01*
X135705786Y-64093434D01*
X135544066Y-63931714D01*
X135459134Y-63870007D01*
X135416470Y-63814678D01*
X135410491Y-63745064D01*
X135443097Y-63683269D01*
X135459137Y-63669371D01*
X135543739Y-63607905D01*
X135705402Y-63446242D01*
X135839788Y-63261276D01*
X135943582Y-63057570D01*
X136014234Y-62840128D01*
X136028509Y-62750000D01*
X135040748Y-62750000D01*
X135062518Y-62712292D01*
X135100000Y-62572409D01*
X135100000Y-62427591D01*
X135062518Y-62287708D01*
X135040748Y-62250000D01*
X136028509Y-62250000D01*
X136014234Y-62159871D01*
X136011021Y-62149981D01*
X152700001Y-62149981D01*
X152710494Y-62252697D01*
X152765641Y-62419119D01*
X152765643Y-62419124D01*
X152857684Y-62568345D01*
X152981654Y-62692315D01*
X153130875Y-62784356D01*
X153130880Y-62784358D01*
X153297302Y-62839505D01*
X153297309Y-62839506D01*
X153400019Y-62849999D01*
X153749999Y-62849999D01*
X154250000Y-62849999D01*
X154599972Y-62849999D01*
X154599986Y-62849998D01*
X154702697Y-62839505D01*
X154869119Y-62784358D01*
X154869124Y-62784356D01*
X155018345Y-62692315D01*
X155142315Y-62568345D01*
X155234356Y-62419124D01*
X155234358Y-62419119D01*
X155289505Y-62252697D01*
X155289506Y-62252690D01*
X155300000Y-62149981D01*
X155300000Y-61035013D01*
X164835000Y-61035013D01*
X164835000Y-61185000D01*
X166185000Y-61185000D01*
X166685000Y-61185000D01*
X168034999Y-61185000D01*
X168034999Y-61035028D01*
X168034998Y-61035013D01*
X168024505Y-60932302D01*
X167969358Y-60765880D01*
X167969356Y-60765875D01*
X167877315Y-60616654D01*
X167753345Y-60492684D01*
X167604124Y-60400643D01*
X167604119Y-60400641D01*
X167437697Y-60345494D01*
X167437690Y-60345493D01*
X167334986Y-60335000D01*
X166685000Y-60335000D01*
X166685000Y-61185000D01*
X166185000Y-61185000D01*
X166185000Y-60335000D01*
X165535028Y-60335000D01*
X165535012Y-60335001D01*
X165432302Y-60345494D01*
X165265880Y-60400641D01*
X165265875Y-60400643D01*
X165116654Y-60492684D01*
X164992684Y-60616654D01*
X164900643Y-60765875D01*
X164900641Y-60765880D01*
X164845494Y-60932302D01*
X164845493Y-60932309D01*
X164835000Y-61035013D01*
X155300000Y-61035013D01*
X155300000Y-60850000D01*
X154250000Y-60850000D01*
X154250000Y-62849999D01*
X153749999Y-62849999D01*
X153750000Y-62849998D01*
X153750000Y-60850000D01*
X152700001Y-60850000D01*
X152700001Y-62149981D01*
X136011021Y-62149981D01*
X135943582Y-61942429D01*
X135839788Y-61738723D01*
X135706988Y-61555940D01*
X135683508Y-61490133D01*
X135699333Y-61422079D01*
X135749439Y-61373384D01*
X135763966Y-61366875D01*
X135792331Y-61356296D01*
X135907546Y-61270046D01*
X135993796Y-61154831D01*
X136044091Y-61019983D01*
X136050500Y-60960373D01*
X136050499Y-59957671D01*
X136050499Y-59050013D01*
X152700000Y-59050013D01*
X152700000Y-60350000D01*
X153750000Y-60350000D01*
X154250000Y-60350000D01*
X155299999Y-60350000D01*
X155299999Y-59750013D01*
X187700000Y-59750013D01*
X187700000Y-61050000D01*
X188750000Y-61050000D01*
X189250000Y-61050000D01*
X190299999Y-61050000D01*
X190299999Y-59750028D01*
X190299998Y-59750013D01*
X190289505Y-59647302D01*
X190234358Y-59480880D01*
X190234356Y-59480875D01*
X190142315Y-59331654D01*
X190018345Y-59207684D01*
X189869124Y-59115643D01*
X189869119Y-59115641D01*
X189702697Y-59060494D01*
X189702690Y-59060493D01*
X189599986Y-59050000D01*
X189250000Y-59050000D01*
X189250000Y-61050000D01*
X188750000Y-61050000D01*
X188750000Y-59050000D01*
X188400028Y-59050000D01*
X188400012Y-59050001D01*
X188297302Y-59060494D01*
X188130880Y-59115641D01*
X188130875Y-59115643D01*
X187981654Y-59207684D01*
X187857684Y-59331654D01*
X187765643Y-59480875D01*
X187765641Y-59480880D01*
X187710494Y-59647302D01*
X187710493Y-59647309D01*
X187700000Y-59750013D01*
X155299999Y-59750013D01*
X155299999Y-59050028D01*
X155299998Y-59050013D01*
X155289505Y-58947302D01*
X155234358Y-58780880D01*
X155234356Y-58780875D01*
X155142315Y-58631654D01*
X155018345Y-58507684D01*
X154869124Y-58415643D01*
X154869119Y-58415641D01*
X154702697Y-58360494D01*
X154702690Y-58360493D01*
X154599986Y-58350000D01*
X154250000Y-58350000D01*
X154250000Y-60350000D01*
X153750000Y-60350000D01*
X153750000Y-58350000D01*
X153400028Y-58350000D01*
X153400012Y-58350001D01*
X153297302Y-58360494D01*
X153130880Y-58415641D01*
X153130875Y-58415643D01*
X152981654Y-58507684D01*
X152857684Y-58631654D01*
X152765643Y-58780875D01*
X152765641Y-58780880D01*
X152710494Y-58947302D01*
X152710493Y-58947309D01*
X152700000Y-59050013D01*
X136050499Y-59050013D01*
X136050499Y-59046864D01*
X136050499Y-58959629D01*
X136050498Y-58959623D01*
X136050497Y-58959616D01*
X136044091Y-58900017D01*
X136025249Y-58849500D01*
X135993797Y-58765171D01*
X135993793Y-58765164D01*
X135907547Y-58649955D01*
X135907544Y-58649952D01*
X135792335Y-58563706D01*
X135792328Y-58563702D01*
X135657482Y-58513408D01*
X135657483Y-58513408D01*
X135597883Y-58507001D01*
X135597881Y-58507000D01*
X135597873Y-58507000D01*
X135597864Y-58507000D01*
X133502129Y-58507000D01*
X133502123Y-58507001D01*
X133442516Y-58513408D01*
X133307671Y-58563702D01*
X133307664Y-58563706D01*
X133192455Y-58649952D01*
X133192452Y-58649955D01*
X133106206Y-58765164D01*
X133106202Y-58765171D01*
X133055908Y-58900017D01*
X133052105Y-58935394D01*
X133049501Y-58959623D01*
X133049500Y-58959635D01*
X133049500Y-59185500D01*
X133029815Y-59252539D01*
X132977011Y-59298294D01*
X132925500Y-59309500D01*
X115924499Y-59309500D01*
X115857460Y-59289815D01*
X115811705Y-59237011D01*
X115800499Y-59185500D01*
X115800499Y-58049998D01*
X115800498Y-58049981D01*
X115789999Y-57947203D01*
X115789998Y-57947200D01*
X115734814Y-57780666D01*
X115642712Y-57631344D01*
X115518656Y-57507288D01*
X115369334Y-57415186D01*
X115202797Y-57360001D01*
X115202795Y-57360000D01*
X115100010Y-57349500D01*
X113899998Y-57349500D01*
X113899981Y-57349501D01*
X113797203Y-57360000D01*
X113797200Y-57360001D01*
X113630668Y-57415185D01*
X113630663Y-57415187D01*
X113534368Y-57474582D01*
X113481344Y-57507288D01*
X113481342Y-57507289D01*
X113475197Y-57511080D01*
X113474455Y-57509877D01*
X113417024Y-57533034D01*
X113348384Y-57519980D01*
X113317252Y-57497306D01*
X111314674Y-55494727D01*
X111314673Y-55494726D01*
X111314669Y-55494723D01*
X111208127Y-55423535D01*
X111089744Y-55374499D01*
X111089738Y-55374497D01*
X110964071Y-55349500D01*
X110964069Y-55349500D01*
X101935931Y-55349500D01*
X101935929Y-55349500D01*
X101810261Y-55374497D01*
X101810255Y-55374499D01*
X101691874Y-55423534D01*
X101585326Y-55494726D01*
X98994726Y-58085326D01*
X98923534Y-58191874D01*
X98874499Y-58310255D01*
X98874497Y-58310261D01*
X98849500Y-58435928D01*
X98849500Y-58633480D01*
X98841327Y-58661310D01*
X98835959Y-58689826D01*
X98830918Y-58696759D01*
X98829815Y-58700519D01*
X98815610Y-58718663D01*
X98814399Y-58719943D01*
X98744528Y-58789815D01*
X98737751Y-58801024D01*
X98728621Y-58810683D01*
X98709458Y-58821857D01*
X98693096Y-58836840D01*
X98677598Y-58840434D01*
X98668263Y-58845878D01*
X98656352Y-58845361D01*
X98638511Y-58849500D01*
X92753958Y-58849500D01*
X92686919Y-58829815D01*
X92648420Y-58790598D01*
X92642712Y-58781344D01*
X92518657Y-58657289D01*
X92518656Y-58657288D01*
X92369334Y-58565186D01*
X92202797Y-58510001D01*
X92202795Y-58510000D01*
X92100010Y-58499500D01*
X90899998Y-58499500D01*
X90899981Y-58499501D01*
X90797203Y-58510000D01*
X90797200Y-58510001D01*
X90630668Y-58565185D01*
X90630663Y-58565187D01*
X90481342Y-58657289D01*
X90357289Y-58781342D01*
X90265187Y-58930663D01*
X90265185Y-58930668D01*
X90237349Y-59014670D01*
X90210001Y-59097203D01*
X90210001Y-59097204D01*
X90210000Y-59097204D01*
X90199500Y-59199983D01*
X90199500Y-59800001D01*
X90199501Y-59800019D01*
X90210000Y-59902796D01*
X90210001Y-59902799D01*
X90265185Y-60069331D01*
X90265187Y-60069336D01*
X90279716Y-60092891D01*
X90357288Y-60218656D01*
X90481344Y-60342712D01*
X90487754Y-60346666D01*
X90525522Y-60369961D01*
X90572247Y-60421909D01*
X90583470Y-60490871D01*
X90555627Y-60554953D01*
X90497558Y-60593810D01*
X90460426Y-60599500D01*
X88070808Y-60599500D01*
X88003769Y-60579815D01*
X87983127Y-60563181D01*
X86339674Y-58919727D01*
X86339673Y-58919726D01*
X86317375Y-58904827D01*
X86233127Y-58848535D01*
X86226712Y-58845878D01*
X86114744Y-58799499D01*
X86114738Y-58799497D01*
X85989071Y-58774500D01*
X85989069Y-58774500D01*
X79680534Y-58774500D01*
X79613495Y-58754815D01*
X79592853Y-58738181D01*
X79492891Y-58638219D01*
X79492887Y-58638216D01*
X79349795Y-58549955D01*
X79349789Y-58549952D01*
X79349787Y-58549951D01*
X79190185Y-58497064D01*
X79190183Y-58497063D01*
X79091681Y-58487000D01*
X79091674Y-58487000D01*
X78483326Y-58487000D01*
X78483318Y-58487000D01*
X78384816Y-58497063D01*
X78384815Y-58497064D01*
X78305719Y-58523273D01*
X78225215Y-58549950D01*
X78225204Y-58549955D01*
X78082112Y-58638216D01*
X78082108Y-58638219D01*
X77963219Y-58757108D01*
X77963216Y-58757112D01*
X77874955Y-58900204D01*
X77874950Y-58900215D01*
X77864861Y-58930663D01*
X77822064Y-59059815D01*
X77822064Y-59059816D01*
X77822063Y-59059816D01*
X77812000Y-59158318D01*
X77812000Y-59691681D01*
X77822063Y-59790183D01*
X77874950Y-59949784D01*
X77874955Y-59949795D01*
X77963216Y-60092887D01*
X77963219Y-60092891D01*
X77995147Y-60124819D01*
X77999485Y-60132764D01*
X78006733Y-60138190D01*
X78015967Y-60162949D01*
X78028632Y-60186142D01*
X78027986Y-60195171D01*
X78031150Y-60203654D01*
X78025533Y-60229474D01*
X78023648Y-60255834D01*
X78017829Y-60264887D01*
X78016298Y-60271927D01*
X77995147Y-60300181D01*
X77982147Y-60313181D01*
X77920824Y-60346666D01*
X77894466Y-60349500D01*
X64424499Y-60349500D01*
X64357460Y-60329815D01*
X64311705Y-60277011D01*
X64300499Y-60225500D01*
X64300499Y-60152129D01*
X64300498Y-60152123D01*
X64300497Y-60152116D01*
X64294091Y-60092517D01*
X64285444Y-60069334D01*
X64243797Y-59957671D01*
X64243793Y-59957664D01*
X64157547Y-59842455D01*
X64157544Y-59842452D01*
X64042335Y-59756206D01*
X64042328Y-59756202D01*
X63907482Y-59705908D01*
X63907483Y-59705908D01*
X63847883Y-59699501D01*
X63847881Y-59699500D01*
X63847873Y-59699500D01*
X63847864Y-59699500D01*
X62152129Y-59699500D01*
X62152123Y-59699501D01*
X62092516Y-59705908D01*
X61957671Y-59756202D01*
X61957664Y-59756206D01*
X61842455Y-59842452D01*
X61842452Y-59842455D01*
X61756206Y-59957664D01*
X61756202Y-59957671D01*
X61705908Y-60092517D01*
X61700998Y-60138190D01*
X61699501Y-60152123D01*
X61699500Y-60152135D01*
X50250500Y-60152135D01*
X50250500Y-50374500D01*
X50270185Y-50307461D01*
X50322989Y-50261706D01*
X50374500Y-50250500D01*
X199625500Y-50250500D01*
X199692539Y-50270185D01*
G37*
%TD.AperFunction*%
%TD*%
M02*
